<?xml version="1.0" encoding="utf-8"?>
<!-- Generator: Adobe Illustrator 15.0.2, SVG Export Plug-In . SVG Version: 6.00 Build 0)  -->
<!DOCTYPE svg PUBLIC "-//W3C//DTD SVG 1.1//EN" "http://www.w3.org/Graphics/SVG/1.1/DTD/svg11.dtd">
<svg version="1.1" id="Calque_1" xmlns="http://www.w3.org/2000/svg" xmlns:xlink="http://www.w3.org/1999/xlink" x="0px" y="0px"
	 width="2040.95px" height="1190.55px" viewBox="0 0 2040.95 1190.55" enable-background="new 0 0 2040.95 1190.55"
	 xml:space="preserve">
<rect x="92.739" y="98.938" fill="none" width="252.912" height="173.396"/>
<text transform="matrix(1 0 0 1 92.7388 130.2983)"><tspan x="0" y="0" font-family="'OpenSans-Bold'" font-size="16">découpe</tspan><tspan x="0" y="19.2" font-family="'OpenSans-Bold'" font-size="16">découpe</tspan><tspan x="0" y="38.4" font-family="'OpenSans-Bold'" font-size="16">gravage</tspan></text>
<text transform="matrix(1 0 0 1 41.7227 82.521)"><tspan x="0" y="0" font-family="'OpenSans-Bold'" font-size="44.9159">Wordclock_Swiss FabLab_</tspan><tspan x="566.888" y="0" font-family="'OpenSans-Bold'" font-size="24">extérieur_épaisseur fine</tspan></text>
<rect x="72.137" y="116.411" fill="#FF0000" width="14.174" height="14.173"/>
<rect x="72.137" y="137.822" fill="#0000FF" width="14.174" height="14.173"/>
<rect x="72.137" y="157.777" width="14.174" height="14.172"/>
<g>
	<path fill="none" stroke="#FF0000" stroke-width="0.003" d="M496.287,861.611c0-2.961-1.219-5.902-3.313-7.996
		c-2.093-2.096-5.039-3.312-8-3.312c-2.961,0-5.902,1.217-7.996,3.312c-2.093,2.094-3.312,5.035-3.312,7.996s1.219,5.904,3.312,8
		c2.094,2.094,5.035,3.312,7.996,3.312c2.961,0,5.907-1.219,8-3.312C495.068,867.516,496.287,864.572,496.287,861.611z"/>
	<path fill="none" stroke="#FF0000" stroke-width="0.003" d="M552.842,861.611c0-2.961-1.219-5.902-3.313-7.996
		c-2.094-2.096-5.035-3.312-7.996-3.312c-2.965,0-5.906,1.217-8,3.312c-2.094,2.094-3.312,5.035-3.312,7.996s1.218,5.904,3.312,8
		c2.094,2.094,5.035,3.312,8,3.312c2.961,0,5.902-1.219,7.996-3.312C551.623,867.516,552.842,864.572,552.842,861.611z"/>
	<g>
		<path fill="none" stroke="#0000FF" stroke-width="0.0028" d="M1010.281,932.014c0,14.713-11.926,26.639-26.639,26.639H399.125
			c-14.712,0-26.639-11.926-26.639-26.639V347.502c0-14.713,11.926-26.64,26.639-26.64h584.517c14.713,0,26.639,11.927,26.639,26.64
			V932.014z"/>
	</g>
</g>
<g>
	<g>
		<path fill="none" stroke="#FF0000" stroke-width="0.0028" stroke-miterlimit="10" d="M1668.463,930.719
			c0,14.678-11.896,26.574-26.574,26.574h-584.646c-14.678,0-26.574-11.896-26.574-26.574V346.072
			c0-14.677,11.896-26.575,26.574-26.575h584.646c14.678,0,26.574,11.898,26.574,26.575V930.719z"/>
	</g>
	<g>
		<text transform="matrix(-1 0 0 1 1611.4414 393.1343)" font-family="'GlaserBeckerStencil'" font-size="29.1575">I</text>
		<text transform="matrix(-1 0 0 1 1566.832 393.1343)" font-family="'GlaserBeckerStencil'" font-size="29.1575">L</text>
		<text transform="matrix(-1 0 0 1 1523.6211 393.1343)" font-family="'GlaserBeckerStencil'" font-size="29.1575">Q</text>
		<text transform="matrix(-1 0 0 1 1474.5508 393.1343)" font-family="'GlaserBeckerStencil'" font-size="29.1575">Y</text>
		<text transform="matrix(-1 0 0 1 1428.2207 393.1343)" font-family="'GlaserBeckerStencil'" font-size="29.1575">E</text>
		<text transform="matrix(-1 0 0 1 1382.4141 393.1343)" font-family="'GlaserBeckerStencil'" font-size="29.1575">S</text>
		<text transform="matrix(-1 0 0 1 1334.8574 393.1343)"><tspan x="0" y="0" font-family="'GlaserBeckerStencil'" font-size="29.1575" letter-spacing="26">T</tspan><tspan x="38.303" y="0" font-family="'GlaserBeckerStencil'" font-size="29.1575">D</tspan></text>
		<text transform="matrix(-1 0 0 1 1241.6992 393.1343)" font-family="'GlaserBeckerStencil'" font-size="29.1575">T</text>
		<text transform="matrix(-1 0 0 1 1196.8242 393.1343)" font-family="'GlaserBeckerStencil'" font-size="29.1575">U</text>
		<text transform="matrix(-1 0 0 1 1150.4648 393.1343)" font-family="'GlaserBeckerStencil'" font-size="29.1575">N</text>
		<text transform="matrix(-1 0 0 1 1101.918 393.1343)" font-family="'GlaserBeckerStencil'" font-size="29.1575">E</text>
		<text transform="matrix(-1 0 0 1 1614.3027 439.7275)" font-family="'GlaserBeckerStencil'" font-size="29.1575">T</text>
		<text transform="matrix(-1 0 0 1 1568.875 439.7275)" font-family="'GlaserBeckerStencil'" font-size="29.1575">R</text>
		<text transform="matrix(-1 0 0 1 1523.6484 439.7275)" font-family="'GlaserBeckerStencil'" font-size="29.1575">O</text>
		<text transform="matrix(-1 0 0 1 1471.752 439.7275)" font-family="'GlaserBeckerStencil'" font-size="29.1575">I</text>
		<text transform="matrix(-1 0 0 1 1429.0059 439.7275)" font-family="'GlaserBeckerStencil'" font-size="29.1575">S</text>
		<text transform="matrix(-1 0 0 1 1383.1387 439.7275)"><tspan x="0" y="0" font-family="'GlaserBeckerStencil'" font-size="29.1575" letter-spacing="24">U</tspan><tspan x="43.967" y="0" font-family="'GlaserBeckerStencil'" font-size="29.1575">Q</tspan></text>
		<text transform="matrix(-1 0 0 1 1289.9805 439.7275)" font-family="'GlaserBeckerStencil'" font-size="29.1575">U</text>
		<text transform="matrix(-1 0 0 1 1242.6895 439.7275)" font-family="'GlaserBeckerStencil'" font-size="29.1575">A</text>
		<text transform="matrix(-1 0 0 1 1195.1641 439.7275)" font-family="'GlaserBeckerStencil'" font-size="29.1575">T</text>
		<text transform="matrix(-1 0 0 1 1149.7344 439.7275)" font-family="'GlaserBeckerStencil'" font-size="29.1575">R</text>
		<text transform="matrix(-1 0 0 1 1101.918 439.7275)" font-family="'GlaserBeckerStencil'" font-size="29.1575">E</text>
		<text transform="matrix(-1 0 0 1 1615.498 486.3213)" font-family="'GlaserBeckerStencil'" font-size="29.1575">C</text>
		<text transform="matrix(-1 0 0 1 1564.8809 486.3213)" font-family="'GlaserBeckerStencil'" font-size="29.1575">I</text>
		<text transform="matrix(-1 0 0 1 1523.0684 486.3213)" font-family="'GlaserBeckerStencil'" font-size="29.1575">N</text>
		<text transform="matrix(-1 0 0 1 1477.0586 486.3213)" font-family="'GlaserBeckerStencil'" font-size="29.1575">Q</text>
		<text transform="matrix(-1 0 0 1 1429.0059 486.3213)" font-family="'GlaserBeckerStencil'" font-size="29.1575">S</text>
		<text transform="matrix(-1 0 0 1 1378.5938 486.3213)" font-family="'GlaserBeckerStencil'" font-size="29.1575">I</text>
		<text transform="matrix(-1 0 0 1 1335.875 486.3213)"><tspan x="0" y="0" font-family="'GlaserBeckerStencil'" font-size="29.1575" letter-spacing="22">X</tspan><tspan x="38.688" y="0" font-family="'GlaserBeckerStencil'" font-size="29.1575">W</tspan></text>
		<text transform="matrix(-1 0 0 1 1242.6895 486.3213)" font-family="'GlaserBeckerStencil'" font-size="29.1575">S</text>
		<text transform="matrix(-1 0 0 1 1195.3945 486.3213)" font-family="'GlaserBeckerStencil'" font-size="29.1575">E</text>
		<text transform="matrix(-1 0 0 1 1148.3945 486.3213)" font-family="'GlaserBeckerStencil'" font-size="29.1575">P</text>
		<text transform="matrix(-1 0 0 1 1101.7109 486.3213)" font-family="'GlaserBeckerStencil'" font-size="29.1575">T</text>
		<text transform="matrix(-1 0 0 1 1616.2852 532.915)" font-family="'GlaserBeckerStencil'" font-size="29.1575">H</text>
		<text transform="matrix(-1 0 0 1 1569.4277 532.915)" font-family="'GlaserBeckerStencil'" font-size="29.1575">U</text>
		<text transform="matrix(-1 0 0 1 1518.3418 532.915)" font-family="'GlaserBeckerStencil'" font-size="29.1575">I</text>
		<text transform="matrix(-1 0 0 1 1474.6055 532.915)" font-family="'GlaserBeckerStencil'" font-size="29.1575">T</text>
		<text transform="matrix(-1 0 0 1 1427.8398 532.915)" font-family="'GlaserBeckerStencil'" font-size="29.1575">P</text>
		<text transform="matrix(-1 0 0 1 1383.375 532.915)" font-family="'GlaserBeckerStencil'" font-size="29.1575">N</text>
		<text transform="matrix(-1 0 0 1 1335.1484 532.915)" font-family="'GlaserBeckerStencil'" font-size="29.1575">E</text>
		<text transform="matrix(-1 0 0 1 1290.0098 532.915)" font-family="'GlaserBeckerStencil'" font-size="29.1575">U</text>
		<text transform="matrix(-1 0 0 1 1241.1465 532.915)" font-family="'GlaserBeckerStencil'" font-size="29.1575">F</text>
		<text transform="matrix(-1 0 0 1 1197.4375 532.915)" font-family="'GlaserBeckerStencil'" font-size="29.1575">D</text>
		<text transform="matrix(-1 0 0 1 1145.7969 532.915)" font-family="'GlaserBeckerStencil'" font-size="29.1575">I</text>
		<text transform="matrix(-1 0 0 1 1102.7344 532.915)" font-family="'GlaserBeckerStencil'" font-size="29.1575">X</text>
		<text transform="matrix(-1 0 0 1 1613.7188 579.5093)" font-family="'GlaserBeckerStencil'" font-size="29.1575">F</text>
		<text transform="matrix(-1 0 0 1 1570.2441 579.5093)" font-family="'GlaserBeckerStencil'" font-size="29.1575">O</text>
		<text transform="matrix(-1 0 0 1 1523.0996 579.5093)" font-family="'GlaserBeckerStencil'" font-size="29.1575">N</text>
		<text transform="matrix(-1 0 0 1 1475.6289 579.5093)" font-family="'GlaserBeckerStencil'" font-size="29.1575">Z</text>
		<text transform="matrix(-1 0 0 1 1428.2773 579.5093)" font-family="'GlaserBeckerStencil'" font-size="29.1575">E</text>
		<text transform="matrix(-1 0 0 1 1383.4629 579.5093)" font-family="'GlaserBeckerStencil'" font-size="29.1575">H</text>
		<text transform="matrix(-1 0 0 1 1337.1895 579.5093)" font-family="'GlaserBeckerStencil'" font-size="29.1575">D</text>
		<text transform="matrix(-1 0 0 1 1290.8301 579.5093)" font-family="'GlaserBeckerStencil'" font-size="29.1575">O</text>
		<text transform="matrix(-1 0 0 1 1243.4785 579.5093)" font-family="'GlaserBeckerStencil'" font-size="29.1575">U</text>
		<text transform="matrix(-1 0 0 1 1196.2148 579.5093)" font-family="'GlaserBeckerStencil'" font-size="29.1575">Z</text>
		<text transform="matrix(-1 0 0 1 1148.8613 579.5093)" font-family="'GlaserBeckerStencil'" font-size="29.1575">E</text>
		<text transform="matrix(-1 0 0 1 1103.9883 579.5093)" font-family="'GlaserBeckerStencil'" font-size="29.1575">N</text>
		<text transform="matrix(-1 0 0 1 1616.3457 626.1025)" font-family="'GlaserBeckerStencil'" font-size="29.1575">H</text>
		<text transform="matrix(-1 0 0 1 1570.0684 626.1025)" font-family="'GlaserBeckerStencil'" font-size="29.1575">D</text>
		<text transform="matrix(-1 0 0 1 1521.4961 626.1025)" font-family="'GlaserBeckerStencil'" font-size="29.1575">E</text>
		<text transform="matrix(-1 0 0 1 1476.3848 626.1025)" font-family="'GlaserBeckerStencil'" font-size="29.1575">U</text>
		<text transform="matrix(-1 0 0 1 1429.1211 626.1025)" font-family="'GlaserBeckerStencil'" font-size="29.1575">X</text>
		<text transform="matrix(-1 0 0 1 1382.6777 626.1025)" font-family="'GlaserBeckerStencil'" font-size="29.1575">K</text>
		<text transform="matrix(-1 0 0 1 1336.959 626.1025)" font-family="'GlaserBeckerStencil'" font-size="29.1575">H</text>
		<text transform="matrix(-1 0 0 1 1288.6406 626.1025)" font-family="'GlaserBeckerStencil'" font-size="29.1575">E</text>
		<text transform="matrix(-1 0 0 1 1243.5371 626.1025)" font-family="'GlaserBeckerStencil'" font-size="29.1575">U</text>
		<text transform="matrix(-1 0 0 1 1196.418 626.1025)" font-family="'GlaserBeckerStencil'" font-size="29.1575">R</text>
		<text transform="matrix(-1 0 0 1 1148.9473 626.1025)" font-family="'GlaserBeckerStencil'" font-size="29.1575">E</text>
		<text transform="matrix(-1 0 0 1 1103.1426 626.1025)" font-family="'GlaserBeckerStencil'" font-size="29.1575">S</text>
		<text transform="matrix(-1 0 0 1 1617.7422 672.6963)" font-family="'GlaserBeckerStencil'" font-size="29.1575">M</text>
		<text transform="matrix(-1 0 0 1 1570.3301 672.6963)" font-family="'GlaserBeckerStencil'" font-size="29.1575">O</text>
		<text transform="matrix(-1 0 0 1 1518.4297 672.6963)" font-family="'GlaserBeckerStencil'" font-size="29.1575">I</text>
		<text transform="matrix(-1 0 0 1 1476.6191 672.6963)" font-family="'GlaserBeckerStencil'" font-size="29.1575">N</text>
		<text transform="matrix(-1 0 0 1 1429.1211 672.6963)" font-family="'GlaserBeckerStencil'" font-size="29.1575">S</text>
		<text transform="matrix(-1 0 0 1 1382.7051 672.6963)" font-family="'GlaserBeckerStencil'" font-size="29.1575">R</text>
		<text transform="matrix(-1 0 0 1 1335.2383 672.6963)" font-family="'GlaserBeckerStencil'" font-size="29.1575">E</text>
		<text transform="matrix(-1 0 0 1 1288.4355 672.6963)" font-family="'GlaserBeckerStencil'" font-size="29.1575">T</text>
		<text transform="matrix(-1 0 0 1 1243.8008 672.6963)" font-family="'GlaserBeckerStencil'" font-size="29.1575">N</text>
		<text transform="matrix(-1 0 0 1 1197.5566 672.6963)" font-family="'GlaserBeckerStencil'" font-size="29.1575">D</text>
		<text transform="matrix(-1 0 0 1 1145.8848 672.6963)" font-family="'GlaserBeckerStencil'" font-size="29.1575">I</text>
		<text transform="matrix(-1 0 0 1 1102.8223 672.6963)" font-family="'GlaserBeckerStencil'" font-size="29.1575">X</text>
		<text transform="matrix(-1 0 0 1 1616.752 719.29)" font-family="'GlaserBeckerStencil'" font-size="29.1575">G</text>
		<text transform="matrix(-1 0 0 1 1568.8477 719.29)" font-family="'GlaserBeckerStencil'" font-size="29.1575">V</text>
		<text transform="matrix(-1 0 0 1 1522.2793 719.29)" font-family="'GlaserBeckerStencil'" font-size="29.1575">V</text>
		<text transform="matrix(-1 0 0 1 1471.8652 719.29)" font-family="'GlaserBeckerStencil'" font-size="29.1575">I</text>
		<text transform="matrix(-1 0 0 1 1430.0566 719.29)" font-family="'GlaserBeckerStencil'" font-size="29.1575">N</text>
		<text transform="matrix(-1 0 0 1 1383.8711 719.29)" font-family="'GlaserBeckerStencil'" font-size="29.1575">G</text>
		<text transform="matrix(-1 0 0 1 1335.0039 719.29)" font-family="'GlaserBeckerStencil'" font-size="29.1575">T</text>
		<text transform="matrix(-1 0 0 1 1286.0762 719.29)" font-family="'GlaserBeckerStencil'" font-size="29.1575">-</text>
		<text transform="matrix(-1 0 0 1 1243.0684 719.29)" font-family="'GlaserBeckerStencil'" font-size="29.1575">C</text>
		<text transform="matrix(-1 0 0 1 1192.4805 719.29)" font-family="'GlaserBeckerStencil'" font-size="29.1575">I</text>
		<text transform="matrix(-1 0 0 1 1150.6426 719.29)" font-family="'GlaserBeckerStencil'" font-size="29.1575">N</text>
		<text transform="matrix(-1 0 0 1 1104.3379 719.29)" font-family="'GlaserBeckerStencil'" font-size="29.1575">Q</text>
		<text transform="matrix(-1 0 0 1 1616.9531 765.8838)" font-family="'GlaserBeckerStencil'" font-size="29.1575">Q</text>
		<text transform="matrix(-1 0 0 1 1569.6035 765.8838)" font-family="'GlaserBeckerStencil'" font-size="29.1575">U</text>
		<text transform="matrix(-1 0 0 1 1522.3066 765.8838)" font-family="'GlaserBeckerStencil'" font-size="29.1575">A</text>
		<text transform="matrix(-1 0 0 1 1475.8906 765.8838)" font-family="'GlaserBeckerStencil'" font-size="29.1575">R</text>
		<text transform="matrix(-1 0 0 1 1428.1895 765.8838)" font-family="'GlaserBeckerStencil'" font-size="29.1575">T</text>
		<text transform="matrix(-1 0 0 1 1382.5898 765.8838)" font-family="'GlaserBeckerStencil'" font-size="29.1575">S</text>
		<text transform="matrix(-1 0 0 1 1337.3047 765.8838)" font-family="'GlaserBeckerStencil'" font-size="29.1575">D</text>
		<text transform="matrix(-1 0 0 1 1288.6719 765.8838)" font-family="'GlaserBeckerStencil'" font-size="29.1575">E</text>
		<text transform="matrix(-1 0 0 1 1245.1973 765.8838)" font-family="'GlaserBeckerStencil'" font-size="29.1575">M</text>
		<text transform="matrix(-1 0 0 1 1192.4805 765.8838)" font-family="'GlaserBeckerStencil'" font-size="29.1575">I</text>
		<text transform="matrix(-1 0 0 1 1149.7344 765.8838)" font-family="'GlaserBeckerStencil'" font-size="29.1575">B</text>
		<text transform="matrix(-1 0 0 1 1104.1621 765.8838)" font-family="'GlaserBeckerStencil'" font-size="29.1575">G</text>
		<text transform="matrix(-1 0 0 1 1616.4316 812.4766)" font-family="'GlaserBeckerStencil'" font-size="29.1575">H</text>
		<text transform="matrix(-1 0 0 1 1570.2148 812.4766)" font-family="'GlaserBeckerStencil'" font-size="29.1575">G</text>
		<text transform="matrix(-1 0 0 1 1523.8242 812.4766)"><tspan x="0" y="0" font-family="'GlaserBeckerStencil'" font-size="29.1575" letter-spacing="25">Q</tspan><tspan x="46.674" y="0" font-family="'GlaserBeckerStencil'" font-size="29.1575">S</tspan></text>
		<text transform="matrix(-1 0 0 1 1430.666 812.4766)" font-family="'GlaserBeckerStencil'" font-size="29.1575">O</text>
		<text transform="matrix(-1 0 0 1 1383.3145 812.4766)" font-family="'GlaserBeckerStencil'" font-size="29.1575">U</text>
		<text transform="matrix(-1 0 0 1 1332.6992 812.4766)" font-family="'GlaserBeckerStencil'" font-size="29.1575">J</text>
		<text transform="matrix(-1 0 0 1 1289.4609 812.4766)" font-family="'GlaserBeckerStencil'" font-size="29.1575">Z</text>
		<text transform="matrix(-1 0 0 1 1241.873 812.4766)" font-family="'GlaserBeckerStencil'" font-size="29.1575">Y</text>
		<text transform="matrix(-1 0 0 1 1197.8184 812.4766)" font-family="'GlaserBeckerStencil'" font-size="29.1575">O</text>
		<text transform="matrix(-1 0 0 1 1151.0215 812.4766)" font-family="'GlaserBeckerStencil'" font-size="29.1575">D</text>
		<text transform="matrix(-1 0 0 1 1102.1484 812.4766)" font-family="'GlaserBeckerStencil'" font-size="29.1575">Y</text>
		<text transform="matrix(-1 0 0 1 1615.4648 859.0713)" font-family="'GlaserBeckerStencil'" font-size="29.1575">B</text>
		<text transform="matrix(-1 0 0 1 1573.3047 859.0713)" font-family="'GlaserBeckerStencil'" font-size="29.1575">W</text>
		<text transform="matrix(-1 0 0 1 1521.291 859.0713)" font-family="'GlaserBeckerStencil'" font-size="29.1575">Y</text>
		<text transform="matrix(-1 0 0 1 1475.8906 859.0713)" font-family="'GlaserBeckerStencil'" font-size="29.1575">R</text>
		<text transform="matrix(-1 0 0 1 1428.4844 859.0713)" font-family="'GlaserBeckerStencil'" font-size="29.1575">*</text>
		<text transform="matrix(-1 0 0 1 1381.8848 859.0713)" font-family="'GlaserBeckerStencil'" font-size="29.1575">*</text>
		<text transform="matrix(-1 0 0 1 1335.3262 859.0713)" font-family="'GlaserBeckerStencil'" font-size="29.1575">*</text>
		<text transform="matrix(-1 0 0 1 1288.7266 859.0713)" font-family="'GlaserBeckerStencil'" font-size="29.1575">*</text>
		<text transform="matrix(-1 0 0 1 1239.0137 859.0713)" font-family="'GlaserBeckerStencil'" font-size="29.1575">I</text>
		<text transform="matrix(-1 0 0 1 1200.7012 859.0713)" font-family="'GlaserBeckerStencil'" font-size="29.1575">W</text>
		<text transform="matrix(-1 0 0 1 1146.3535 859.0713)" font-family="'GlaserBeckerStencil'" font-size="29.1575">J</text>
		<text transform="matrix(-1 0 0 1 1103.7246 859.0713)" font-family="'GlaserBeckerStencil'" font-size="29.1575">N</text>
		<text transform="matrix(-1 0 0 1 1613.543 905.665)" font-family="'GlaserBeckerStencil'" font-size="29.1575">L</text>
		<text transform="matrix(-1 0 0 1 1568.8164 905.665)" font-family="'GlaserBeckerStencil'" font-size="29.1575">V</text>
		<text transform="matrix(-1 0 0 1 1523.2148 905.665)" font-family="'GlaserBeckerStencil'" font-size="29.1575">H</text>
		<text transform="matrix(-1 0 0 1 1480.1191 905.665)" font-family="'GlaserBeckerStencil'" font-size="29.1575">W</text>
		<text transform="matrix(-1 0 0 1 1427.9258 905.665)" font-family="'GlaserBeckerStencil'" font-size="29.1575">P</text>
		<text transform="matrix(-1 0 0 1 1380.6621 905.665)" font-family="'GlaserBeckerStencil'" font-size="29.1575">L</text>
		<text transform="matrix(-1 0 0 1 1335.9336 905.665)" font-family="'GlaserBeckerStencil'" font-size="29.1575">A</text>
		<text transform="matrix(-1 0 0 1 1290.8574 905.665)" font-family="'GlaserBeckerStencil'" font-size="29.1575">O</text>
		<text transform="matrix(-1 0 0 1 1242.8047 905.665)" font-family="'GlaserBeckerStencil'" font-size="29.1575">B</text>
		<text transform="matrix(-1 0 0 1 1194.6094 905.665)" font-family="'GlaserBeckerStencil'" font-size="29.1575">F</text>
		<text transform="matrix(-1 0 0 1 1148.627 905.665)" font-family="'GlaserBeckerStencil'" font-size="29.1575">Y</text>
		<text transform="matrix(-1 0 0 1 1102.7656 905.665)" font-family="'GlaserBeckerStencil'" font-size="29.1575">Z</text>
	</g>
</g>
</svg>
