<?xml version="1.0" encoding="UTF-8" standalone="no"?>
<!-- Created with Inkscape (http://www.inkscape.org/) -->

<svg
   xmlns:dc="http://purl.org/dc/elements/1.1/"
   xmlns:cc="http://creativecommons.org/ns#"
   xmlns:rdf="http://www.w3.org/1999/02/22-rdf-syntax-ns#"
   xmlns:svg="http://www.w3.org/2000/svg"
   xmlns="http://www.w3.org/2000/svg"
   xmlns:sodipodi="http://sodipodi.sourceforge.net/DTD/sodipodi-0.dtd"
   xmlns:inkscape="http://www.inkscape.org/namespaces/inkscape"
   width="297mm"
   height="420mm"
   viewBox="0 0 1052.3622 1488.189"
   id="svg2"
   version="1.1"
   inkscape:version="0.91 r13725"
   sodipodi:docname="wordclock-split.svg">
  <defs
     id="defs4" />
  <sodipodi:namedview
     id="base"
     pagecolor="#ffffff"
     bordercolor="#666666"
     borderopacity="1.0"
     inkscape:pageopacity="0.0"
     inkscape:pageshadow="2"
     inkscape:zoom="1"
     inkscape:cx="420.72853"
     inkscape:cy="1498.7872"
     inkscape:document-units="px"
     inkscape:current-layer="layer1"
     showgrid="true"
     inkscape:snap-path-clip="true"
     inkscape:snap-path-mask="true"
     objecttolerance="10000"
     inkscape:window-width="1536"
     inkscape:window-height="803"
     inkscape:window-x="-8"
     inkscape:window-y="-8"
     inkscape:window-maximized="1">
    <inkscape:grid
       type="xygrid"
       id="grid4142" />
  </sodipodi:namedview>
  <metadata
     id="metadata7">
    <rdf:RDF>
      <cc:Work
         rdf:about="">
        <dc:format>image/svg+xml</dc:format>
        <dc:type
           rdf:resource="http://purl.org/dc/dcmitype/StillImage" />
        <dc:title></dc:title>
      </cc:Work>
    </rdf:RDF>
  </metadata>
  <g
     inkscape:label="Layer 1"
     inkscape:groupmode="layer"
     id="layer1"
     transform="translate(0,435.82677)">
    <path
       style="fill:none;fill-opacity:1;stroke:#ff0000;stroke-width:0.11248733;stroke-linecap:round;stroke-linejoin:round;stroke-miterlimit:4;stroke-dasharray:none;stroke-dashoffset:0;stroke-opacity:1"
       d="m 29.749334,-408.91499 0,35.32032 49.347656,0 0,-17.60938 10.529297,0 0,17.60938 48.261703,0 0,-17.60938 10.5293,0 0,17.60938 48.26953,0 0,-17.60938 10.53125,0 0,17.60938 48.25977,0 0,-17.60938 10.53125,0 0,17.60938 48.27539,0 0,-17.60938 10.5293,0 0,17.60938 48.26172,0 0,-17.60938 10.52929,0 0,17.60938 48.26953,0 0,-17.60938 10.5293,0 0,17.60938 48.26172,0 0,-17.60938 10.5293,0 0,17.60938 48.26953,0 0,-17.60938 10.53125,0 0,17.60938 48.26172,0 0,-17.60938 10.52929,0 0,17.60938 48.26953,0 0,-17.60938 10.5293,0 0,17.60938 49.375,0 0,-35.32032 -697.210926,0 z"
       id="rect4286"
       inkscape:connector-curvature="0" />
    <path
       style="fill:none;fill-opacity:1;stroke:#ff0000;stroke-width:0.11248733;stroke-linecap:round;stroke-linejoin:round;stroke-miterlimit:4;stroke-dasharray:none;stroke-dashoffset:0;stroke-opacity:1"
       d="m 29.749334,-364.06711 0,35.32032 49.347652,0 0,-17.60938 10.5293,0 0,17.60938 48.261704,0 0,-17.60938 10.5293,0 0,17.60938 48.26953,0 0,-17.60938 10.53125,0 0,17.60938 48.25977,0 0,-17.60938 10.53125,0 0,17.60938 48.27539,0 0,-17.60938 10.5293,0 0,17.60938 48.26172,0 0,-17.60938 10.52929,0 0,17.60938 48.26953,0 0,-17.60938 10.5293,0 0,17.60938 48.26172,0 0,-17.60938 10.5293,0 0,17.60938 48.26953,0 0,-17.60938 10.53125,0 0,17.60938 48.26172,0 0,-17.60938 10.52929,0 0,17.60938 48.26953,0 0,-17.60938 10.5293,0 0,17.60938 49.375,0 0,-35.32032 -697.210926,0 z"
       id="rect4286-6"
       inkscape:connector-curvature="0" />
    <path
       style="fill:none;fill-opacity:1;stroke:#ff0000;stroke-width:0.11248733;stroke-linecap:round;stroke-linejoin:round;stroke-miterlimit:4;stroke-dasharray:none;stroke-dashoffset:0;stroke-opacity:1"
       d="m 29.749334,-319.21928 0,35.32032 49.347656,0 0,-17.60938 10.529297,0 0,17.60938 48.261703,0 0,-17.60938 10.5293,0 0,17.60938 48.26953,0 0,-17.60938 10.53125,0 0,17.60938 48.25977,0 0,-17.60938 10.53125,0 0,17.60938 48.27539,0 0,-17.60938 10.5293,0 0,17.60938 48.26172,0 0,-17.60938 10.52929,0 0,17.60938 48.26953,0 0,-17.60938 10.5293,0 0,17.60938 48.26172,0 0,-17.60938 10.5293,0 0,17.60938 48.26953,0 0,-17.60938 10.53125,0 0,17.60938 48.26172,0 0,-17.60938 10.52929,0 0,17.60938 48.26953,0 0,-17.60938 10.5293,0 0,17.60938 49.375,0 0,-35.32032 -697.210926,0 z"
       id="rect4286-0"
       inkscape:connector-curvature="0" />
    <path
       style="fill:none;fill-opacity:1;stroke:#ff0000;stroke-width:0.11248733;stroke-linecap:round;stroke-linejoin:round;stroke-miterlimit:4;stroke-dasharray:none;stroke-dashoffset:0;stroke-opacity:1"
       d="m 29.749334,-274.37139 0,35.32032 49.347652,0 0,-17.60938 10.5293,0 0,17.60938 48.261704,0 0,-17.60938 10.5293,0 0,17.60938 48.26953,0 0,-17.60938 10.53125,0 0,17.60938 48.25977,0 0,-17.60938 10.53125,0 0,17.60938 48.27539,0 0,-17.60938 10.5293,0 0,17.60938 48.26172,0 0,-17.60938 10.52929,0 0,17.60938 48.26953,0 0,-17.60938 10.5293,0 0,17.60938 48.26172,0 0,-17.60938 10.5293,0 0,17.60938 48.26953,0 0,-17.60938 10.53125,0 0,17.60938 48.26172,0 0,-17.60938 10.52929,0 0,17.60938 48.26953,0 0,-17.60938 10.5293,0 0,17.60938 49.375,0 0,-35.32032 -697.210926,0 z"
       id="rect4286-6-1"
       inkscape:connector-curvature="0" />
    <path
       style="fill:none;fill-opacity:1;stroke:#ff0000;stroke-width:0.11248733;stroke-linecap:round;stroke-linejoin:round;stroke-miterlimit:4;stroke-dasharray:none;stroke-dashoffset:0;stroke-opacity:1"
       d="m 29.749334,-229.52363 0,35.32032 49.34765,0 0,-17.60938 10.5293,0 0,17.60938 48.261696,0 0,-17.60938 10.5293,0 0,17.60938 48.26953,0 0,-17.60938 10.53125,0 0,17.60938 48.25977,0 0,-17.60938 10.53125,0 0,17.60938 48.2754,0 0,-17.60938 10.5293,0 0,17.60938 48.26172,0 0,-17.60938 10.52929,0 0,17.60938 48.26953,0 0,-17.60938 10.52929,0 0,17.60938 48.26173,0 0,-17.60938 10.5293,0 0,17.60938 48.26952,0 0,-17.60938 10.53125,0 0,17.60938 48.26172,0 0,-17.60938 10.52929,0 0,17.60938 48.2695,0 0,-17.60938 10.5293,0 0,17.60938 49.375,0 0,-35.32032 -697.210886,0 z"
       id="rect4286-8"
       inkscape:connector-curvature="0" />
    <path
       style="fill:none;fill-opacity:1;stroke:#ff0000;stroke-width:0.11248733;stroke-linecap:round;stroke-linejoin:round;stroke-miterlimit:4;stroke-dasharray:none;stroke-dashoffset:0;stroke-opacity:1"
       d="m 29.749334,-184.67575 0,35.32032 49.34765,0 0,-17.60938 10.5293,0 0,17.60938 48.261696,0 0,-17.60938 10.5293,0 0,17.60938 48.26953,0 0,-17.60938 10.53125,0 0,17.60938 48.25977,0 0,-17.60938 10.53125,0 0,17.60938 48.27539,0 0,-17.60938 10.5293,0 0,17.60938 48.26172,0 0,-17.60938 10.52929,0 0,17.60938 48.26953,0 0,-17.60938 10.5293,0 0,17.60938 48.26172,0 0,-17.60938 10.5293,0 0,17.60938 48.26953,0 0,-17.60938 10.53125,0 0,17.60938 48.26172,0 0,-17.60938 10.52929,0 0,17.60938 48.26954,0 0,-17.60938 10.5293,0 0,17.60938 49.375,0 0,-35.32032 -697.210926,0 z"
       id="rect4286-6-4"
       inkscape:connector-curvature="0" />
    <path
       style="fill:none;fill-opacity:1;stroke:#ff0000;stroke-width:0.11248733;stroke-linecap:round;stroke-linejoin:round;stroke-miterlimit:4;stroke-dasharray:none;stroke-dashoffset:0;stroke-opacity:1"
       d="m 29.749334,-139.82797 0,35.32032 49.34765,0 0,-17.60938 10.5293,0 0,17.60938 48.261706,0 0,-17.60938 10.5293,0 0,17.60938 48.26953,0 0,-17.60938 10.53125,0 0,17.60938 48.25977,0 0,-17.60938 10.53125,0 0,17.60938 48.27539,0 0,-17.60938 10.5293,0 0,17.60938 48.26172,0 0,-17.60938 10.52929,0 0,17.60938 48.26953,0 0,-17.60938 10.5293,0 0,17.60938 48.26172,0 0,-17.60938 10.5293,0 0,17.60938 48.26953,0 0,-17.60938 10.53125,0 0,17.60938 48.26171,0 0,-17.60938 10.5293,0 0,17.60938 48.2695,0 0,-17.60938 10.5293,0 0,17.60938 49.375,0 0,-35.32032 -697.210896,0 z"
       id="rect4286-64"
       inkscape:connector-curvature="0" />
    <path
       style="fill:none;fill-opacity:1;stroke:#ff0000;stroke-width:0.11248733;stroke-linecap:round;stroke-linejoin:round;stroke-miterlimit:4;stroke-dasharray:none;stroke-dashoffset:0;stroke-opacity:1"
       d="m 29.749334,-94.98003 0,35.32032 49.34765,0 0,-17.60938 10.5293,0 0,17.60938 48.261706,0 0,-17.60938 10.5293,0 0,17.60938 48.26953,0 0,-17.60938 10.53125,0 0,17.60938 48.25977,0 0,-17.60938 10.53125,0 0,17.60938 48.27539,0 0,-17.60938 10.5293,0 0,17.60938 48.26172,0 0,-17.60938 10.52929,0 0,17.60938 48.26953,0 0,-17.60938 10.5293,0 0,17.60938 48.26172,0 0,-17.60938 10.5293,0 0,17.60938 48.26953,0 0,-17.60938 10.53125,0 0,17.60938 48.26175,0 0,-17.60938 10.5293,0 0,17.60938 48.2695,0 0,-17.60938 10.5293,0 0,17.60938 49.375,0 0,-35.32032 -697.210936,0 z"
       id="rect4286-6-5"
       inkscape:connector-curvature="0" />
    <path
       style="fill:none;fill-opacity:1;stroke:#ff0000;stroke-width:0.11248733;stroke-linecap:round;stroke-linejoin:round;stroke-miterlimit:4;stroke-dasharray:none;stroke-dashoffset:0;stroke-opacity:1"
       d="m 29.749334,-50.13226 0,35.32031 49.34765,0 0,-17.60938 10.5293,0 0,17.60938 48.261706,0 0,-17.60938 10.5293,0 0,17.60938 48.26953,0 0,-17.60938 10.53125,0 0,17.60938 48.25977,0 0,-17.60938 10.53125,0 0,17.60938 48.27539,0 0,-17.60938 10.5293,0 0,17.60938 48.26172,0 0,-17.60938 10.52929,0 0,17.60938 48.26953,0 0,-17.60938 10.5293,0 0,17.60938 48.26172,0 0,-17.60938 10.5293,0 0,17.60938 48.26953,0 0,-17.60938 10.53125,0 0,17.60938 48.26173,0 0,-17.60938 10.5293,0 0,17.60938 48.2695,0 0,-17.60938 10.5293,0 0,17.60938 49.375,0 0,-35.32031 -697.210916,0 z"
       id="rect4286-0-9"
       inkscape:connector-curvature="0" />
    <path
       style="fill:none;fill-opacity:1;stroke:#ff0000;stroke-width:0.11248733;stroke-linecap:round;stroke-linejoin:round;stroke-miterlimit:4;stroke-dasharray:none;stroke-dashoffset:0;stroke-opacity:1"
       d="m 29.749334,-5.28437 0,35.32032 49.34765,0 0,-17.60938 10.5293,0 0,17.60938 48.261706,0 0,-17.60938 10.5293,0 0,17.60938 48.26953,0 0,-17.60938 10.53125,0 0,17.60938 48.25977,0 0,-17.60938 10.53125,0 0,17.60938 48.27539,0 0,-17.60938 10.5293,0 0,17.60938 48.26172,0 0,-17.60938 10.52929,0 0,17.60938 48.26953,0 0,-17.60938 10.5293,0 0,17.60938 48.26172,0 0,-17.60938 10.5293,0 0,17.60938 48.26953,0 0,-17.60938 10.53125,0 0,17.60938 48.26177,0 0,-17.60938 10.5292,0 0,17.60938 48.2696,0 0,-17.60938 10.5293,0 0,17.60938 49.375,0 0,-35.32032 -697.210956,0 z"
       id="rect4286-6-1-1"
       inkscape:connector-curvature="0" />
    <path
       style="fill:none;fill-opacity:1;stroke:#ff0000;stroke-width:0.11248733;stroke-linecap:round;stroke-linejoin:round;stroke-miterlimit:4;stroke-dasharray:none;stroke-dashoffset:0;stroke-opacity:1"
       d="m 29.749334,39.56344 0,35.32032 49.34765,0 0,-17.60938 10.5293,0 0,17.60938 48.261706,0 0,-17.60938 10.5293,0 0,17.60938 48.26953,0 0,-17.60938 10.53125,0 0,17.60938 48.25977,0 0,-17.60938 10.53125,0 0,17.60938 48.27539,0 0,-17.60938 10.5293,0 0,17.60938 48.26172,0 0,-17.60938 10.52929,0 0,17.60938 48.26953,0 0,-17.60938 10.5293,0 0,17.60938 48.26172,0 0,-17.60938 10.5293,0 0,17.60938 48.26953,0 0,-17.60938 10.53125,0 0,17.60938 48.26176,0 0,-17.60938 10.5293,0 0,17.60938 48.2695,0 0,-17.60938 10.5293,0 0,17.60938 49.375,0 0,-35.32032 -697.210946,0 z"
       id="rect4286-8-5"
       inkscape:connector-curvature="0" />
    <path
       style="fill:none;fill-opacity:1;stroke:#ff0000;stroke-width:0.11248733;stroke-linecap:round;stroke-linejoin:round;stroke-miterlimit:4;stroke-dasharray:none;stroke-dashoffset:0;stroke-opacity:1"
       d="m 29.749334,84.41129 0,35.32032 49.34765,0 0,-17.60938 10.5293,0 0,17.60938 48.261706,0 0,-17.60938 10.5293,0 0,17.60938 48.26953,0 0,-17.60938 10.53125,0 0,17.60938 48.25977,0 0,-17.60938 10.53125,0 0,17.60938 48.27539,0 0,-17.60938 10.5293,0 0,17.60938 48.26172,0 0,-17.60938 10.52929,0 0,17.60938 48.26953,0 0,-17.60938 10.5293,0 0,17.60938 48.26172,0 0,-17.60938 10.5293,0 0,17.60938 48.26953,0 0,-17.60938 10.53125,0 0,17.60938 48.2617,0 0,-17.60938 10.5293,0 0,17.60938 48.2696,0 0,-17.60938 10.5293,0 0,17.60938 49.375,0 0,-35.32032 -697.210986,0 z"
       id="rect4286-6-4-6"
       inkscape:connector-curvature="0" />
    <path
       style="fill:none;fill-opacity:1;stroke:#ff0000;stroke-width:0.11248733;stroke-linecap:round;stroke-linejoin:round;stroke-miterlimit:4;stroke-dasharray:none;stroke-dashoffset:0;stroke-opacity:1"
       d="m 29.749334,129.25917 0,35.32032 49.34765,0 0,-17.60938 10.5293,0 0,17.60938 48.261706,0 0,-17.60938 10.5293,0 0,17.60938 48.26953,0 0,-17.60938 10.53125,0 0,17.60938 48.25977,0 0,-17.60938 10.53125,0 0,17.60938 48.27539,0 0,-17.60938 10.5293,0 0,17.60938 48.26172,0 0,-17.60938 10.52929,0 0,17.60938 48.26953,0 0,-17.60938 10.5293,0 0,17.60938 48.26172,0 0,-17.60938 10.5293,0 0,17.60938 48.26953,0 0,-17.60938 10.53125,0 0,17.60938 48.26171,0 0,-17.60938 10.5293,0 0,17.60938 48.2695,0 0,-17.60938 10.5293,0 0,17.60938 49.375,0 0,-35.32032 -697.210896,0 z"
       id="rect4286-5"
       inkscape:connector-curvature="0" />
    <path
       style="fill:none;fill-opacity:1;stroke:#ff0000;stroke-width:0.11248733;stroke-linecap:round;stroke-linejoin:round;stroke-miterlimit:4;stroke-dasharray:none;stroke-dashoffset:0;stroke-opacity:1"
       d="m 29.749334,174.10699 0,35.32032 49.34765,0 0,-17.60938 10.5293,0 0,17.60938 48.261706,0 0,-17.60938 10.5293,0 0,17.60938 48.26953,0 0,-17.60938 10.53125,0 0,17.60938 48.25977,0 0,-17.60938 10.53125,0 0,17.60938 48.27539,0 0,-17.60938 10.5293,0 0,17.60938 48.26172,0 0,-17.60938 10.52929,0 0,17.60938 48.26953,0 0,-17.60938 10.5293,0 0,17.60938 48.26172,0 0,-17.60938 10.5293,0 0,17.60938 48.26953,0 0,-17.60938 10.53125,0 0,17.60938 48.26171,0 0,-17.60938 10.5293,0 0,17.60938 48.2695,0 0,-17.60938 10.5293,0 0,17.60938 49.375,0 0,-35.32032 -697.210896,0 z"
       id="rect4286-6-9"
       inkscape:connector-curvature="0" />
    <path
       style="fill:none;fill-opacity:1;stroke:#ff0000;stroke-width:0.11248733;stroke-linecap:round;stroke-linejoin:round;stroke-miterlimit:4;stroke-dasharray:none;stroke-dashoffset:0;stroke-opacity:1"
       d="m 29.749334,218.95485 0,35.32031 49.34765,0 0,-17.60938 10.5293,0 0,17.60938 48.261706,0 0,-17.60938 10.5293,0 0,17.60938 48.26953,0 0,-17.60938 10.53125,0 0,17.60938 48.25977,0 0,-17.60938 10.53125,0 0,17.60938 48.27539,0 0,-17.60938 10.5293,0 0,17.60938 48.26172,0 0,-17.60938 10.52929,0 0,17.60938 48.26953,0 0,-17.60938 10.5293,0 0,17.60938 48.26172,0 0,-17.60938 10.5293,0 0,17.60938 48.26953,0 0,-17.60938 10.53125,0 0,17.60938 48.26171,0 0,-17.60938 10.5293,0 0,17.60938 48.2695,0 0,-17.60938 10.5293,0 0,17.60938 49.375,0 0,-35.32031 -697.210896,0 z"
       id="rect4286-0-5"
       inkscape:connector-curvature="0" />
    <path
       style="fill:none;fill-opacity:1;stroke:#ff0000;stroke-width:0.11248733;stroke-linecap:round;stroke-linejoin:round;stroke-miterlimit:4;stroke-dasharray:none;stroke-dashoffset:0;stroke-opacity:1"
       d="m 29.749334,263.80266 0,35.32032 49.34765,0 0,-17.60938 10.5293,0 0,17.60938 48.261706,0 0,-17.60938 10.5293,0 0,17.60938 48.26953,0 0,-17.60938 10.53125,0 0,17.60938 48.25977,0 0,-17.60938 10.53125,0 0,17.60938 48.27539,0 0,-17.60938 10.5293,0 0,17.60938 48.26172,0 0,-17.60938 10.52929,0 0,17.60938 48.26953,0 0,-17.60938 10.5293,0 0,17.60938 48.26172,0 0,-17.60938 10.5293,0 0,17.60938 48.26953,0 0,-17.60938 10.53125,0 0,17.60938 48.26171,0 0,-17.60938 10.5293,0 0,17.60938 48.2695,0 0,-17.60938 10.5293,0 0,17.60938 49.375,0 0,-35.32032 -697.210896,0 z"
       id="rect4286-6-1-0"
       inkscape:connector-curvature="0" />
    <path
       style="fill:none;fill-opacity:1;stroke:#ff0000;stroke-width:0.11248733;stroke-linecap:round;stroke-linejoin:round;stroke-miterlimit:4;stroke-dasharray:none;stroke-dashoffset:0;stroke-opacity:1"
       d="m 29.749334,308.65052 0,35.32032 49.34765,0 0,-17.60938 10.5293,0 0,17.60938 48.261696,0 0,-17.60938 10.5293,0 0,17.60938 48.26953,0 0,-17.60938 10.53125,0 0,17.60938 48.25977,0 0,-17.60938 10.53125,0 0,17.60938 48.2754,0 0,-17.60938 10.5293,0 0,17.60938 48.26172,0 0,-17.60938 10.52929,0 0,17.60938 48.26953,0 0,-17.60938 10.52929,0 0,17.60938 48.26173,0 0,-17.60938 10.5293,0 0,17.60938 48.26952,0 0,-17.60938 10.53125,0 0,17.60938 48.26172,0 0,-17.60938 10.5293,0 0,17.60938 48.2695,0 0,-17.60938 10.5293,0 0,17.60938 49.375,0 0,-35.32032 -697.210896,0 z"
       id="rect4286-8-8"
       inkscape:connector-curvature="0" />
    <path
       style="fill:none;fill-opacity:1;stroke:#ff0000;stroke-width:0.11248733;stroke-linecap:round;stroke-linejoin:round;stroke-miterlimit:4;stroke-dasharray:none;stroke-dashoffset:0;stroke-opacity:1"
       d="m 29.749334,353.49835 0,35.32032 49.34765,0 0,-17.60938 10.5293,0 0,17.60938 48.261696,0 0,-17.60938 10.5293,0 0,17.60938 48.26953,0 0,-17.60938 10.53125,0 0,17.60938 48.25977,0 0,-17.60938 10.53125,0 0,17.60938 48.27539,0 0,-17.60938 10.5293,0 0,17.60938 48.26172,0 0,-17.60938 10.52929,0 0,17.60938 48.26953,0 0,-17.60938 10.5293,0 0,17.60938 48.26172,0 0,-17.60938 10.5293,0 0,17.60938 48.26953,0 0,-17.60938 10.53125,0 0,17.60938 48.26172,0 0,-17.60938 10.5293,0 0,17.60938 48.2695,0 0,-17.60938 10.5293,0 0,17.60938 49.375,0 0,-35.32032 -697.210896,0 z"
       id="rect4286-6-4-3"
       inkscape:connector-curvature="0" />
    <path
       style="fill:none;fill-opacity:1;stroke:#ff0000;stroke-width:0.11248733;stroke-linecap:round;stroke-linejoin:round;stroke-miterlimit:4;stroke-dasharray:none;stroke-dashoffset:0;stroke-opacity:1"
       d="m 29.749334,398.34621 0,35.32032 49.34765,0 0,-17.60938 10.5293,0 0,17.60938 48.261706,0 0,-17.60938 10.5293,0 0,17.60938 48.26953,0 0,-17.60938 10.53125,0 0,17.60938 48.25977,0 0,-17.60938 10.53125,0 0,17.60938 48.27539,0 0,-17.60938 10.5293,0 0,17.60938 48.26172,0 0,-17.60938 10.52929,0 0,17.60938 48.26953,0 0,-17.60938 10.5293,0 0,17.60938 48.26172,0 0,-17.60938 10.5293,0 0,17.60938 48.26953,0 0,-17.60938 10.53125,0 0,17.60938 48.26171,0 0,-17.60938 10.5293,0 0,17.60938 48.2695,0 0,-17.60938 10.5293,0 0,17.60938 49.375,0 0,-35.32032 -697.210896,0 z"
       id="rect4286-64-7"
       inkscape:connector-curvature="0" />
    <path
       style="fill:none;fill-opacity:1;stroke:#ff0000;stroke-width:0.11248733;stroke-linecap:round;stroke-linejoin:round;stroke-miterlimit:4;stroke-dasharray:none;stroke-dashoffset:0;stroke-opacity:1"
       d="m 29.749334,443.19405 0,35.32032 49.34765,0 0,-17.60938 10.5293,0 0,17.60938 48.261706,0 0,-17.60938 10.5293,0 0,17.60938 48.26953,0 0,-17.60938 10.53125,0 0,17.60938 48.25977,0 0,-17.60938 10.53125,0 0,17.60938 48.27539,0 0,-17.60938 10.5293,0 0,17.60938 48.26172,0 0,-17.60938 10.52929,0 0,17.60938 48.26953,0 0,-17.60938 10.5293,0 0,17.60938 48.26172,0 0,-17.60938 10.5293,0 0,17.60938 48.26953,0 0,-17.60938 10.53125,0 0,17.60938 48.26171,0 0,-17.60938 10.5293,0 0,17.60938 48.2695,0 0,-17.60938 10.5293,0 0,17.60938 49.375,0 0,-35.32032 -697.210896,0 z"
       id="rect4286-6-5-3"
       inkscape:connector-curvature="0" />
    <path
       style="fill:none;fill-opacity:1;stroke:#ff0000;stroke-width:0.11248733;stroke-linecap:round;stroke-linejoin:round;stroke-miterlimit:4;stroke-dasharray:none;stroke-dashoffset:0;stroke-opacity:1"
       d="m 29.749334,488.04187 0,35.32036 49.34765,0 0,-17.60943 10.5293,0 0,17.60943 48.261706,0 0,-17.60943 10.5293,0 0,17.60943 48.26953,0 0,-17.60943 10.53125,0 0,17.60943 48.25977,0 0,-17.60943 10.53125,0 0,17.60943 48.27539,0 0,-17.60943 10.5293,0 0,17.60943 48.26172,0 0,-17.60943 10.52929,0 0,17.60943 48.26953,0 0,-17.60943 10.5293,0 0,17.60943 48.26172,0 0,-17.60943 10.5293,0 0,17.60943 48.26953,0 0,-17.60943 10.53125,0 0,17.60943 48.26171,0 0,-17.60943 10.5293,0 0,17.60943 48.2695,0 0,-17.60943 10.5293,0 0,17.60943 49.375,0 0,-35.32036 -697.210896,0 z"
       id="rect4286-0-9-5"
       inkscape:connector-curvature="0" />
    <path
       style="fill:none;fill-opacity:1;stroke:#ff0000;stroke-width:0.11248733;stroke-linecap:round;stroke-linejoin:round;stroke-miterlimit:4;stroke-dasharray:none;stroke-dashoffset:0;stroke-opacity:1"
       d="m 29.749334,532.88974 0,35.3204 49.34765,0 0,-17.6094 10.5293,0 0,17.6094 48.261706,0 0,-17.6094 10.5293,0 0,17.6094 48.26953,0 0,-17.6094 10.53125,0 0,17.6094 48.25977,0 0,-17.6094 10.53125,0 0,17.6094 48.27539,0 0,-17.6094 10.5293,0 0,17.6094 48.26172,0 0,-17.6094 10.52929,0 0,17.6094 48.26953,0 0,-17.6094 10.5293,0 0,17.6094 48.26172,0 0,-17.6094 10.5293,0 0,17.6094 48.26953,0 0,-17.6094 10.53125,0 0,17.6094 48.26181,0 0,-17.6094 10.5292,0 0,17.6094 48.2696,0 0,-17.6094 10.5293,0 0,17.6094 49.375,0 0,-35.3204 -697.210996,0 z"
       id="rect4286-6-1-1-6"
       inkscape:connector-curvature="0" />
    <rect
       style="fill:none;fill-opacity:1;stroke:#ff0000;stroke-width:0.0702237;stroke-linecap:round;stroke-linejoin:round;stroke-miterlimit:4;stroke-dasharray:none;stroke-dashoffset:0;stroke-opacity:1"
       id="rect4645"
       width="697.25262"
       height="35.362846"
       x="29.352112"
       y="676.09448" />
    <rect
       style="fill:none;fill-opacity:1;stroke:#ff0000;stroke-width:0.06859688;stroke-linecap:round;stroke-linejoin:round;stroke-miterlimit:4;stroke-dasharray:none;stroke-dashoffset:0;stroke-opacity:1"
       id="rect4647"
       width="718.5141"
       height="35.364471"
       x="29.351299"
       y="723.83569" />
    <rect
       style="fill:none;fill-opacity:1;stroke:#ff0000;stroke-width:0.0702237;stroke-linecap:round;stroke-linejoin:round;stroke-miterlimit:4;stroke-dasharray:none;stroke-dashoffset:0;stroke-opacity:1"
       id="rect4645-7"
       width="697.25262"
       height="35.362846"
       x="29.352112"
       y="580.61047" />
    <rect
       style="fill:none;fill-opacity:1;stroke:#ff0000;stroke-width:0.06859688;stroke-linecap:round;stroke-linejoin:round;stroke-miterlimit:4;stroke-dasharray:none;stroke-dashoffset:0;stroke-opacity:1"
       id="rect4647-6"
       width="718.5141"
       height="35.364471"
       x="29.351299"
       y="628.35168" />
  </g>
</svg>
