<svg xmlns="http://www.w3.org/2000/svg" version="1.1" width="580.7mm" height="514.7mm" viewBox = " 0 0 2057.600117 1823.741657" >
<!-- Front--> 
<g transform="translate(22.5000185, 22.5000185) " > 
 <rect x="79.724475" y="79.724475" width="708.662" height="708.662" rx="10.62993" ry="10.62993" style="stroke:#FF0000;stroke-width:0.354331;fill:none" /> 
<polygon style="stroke:#FF0000; fill:none; stroke-width:0.354331" points="0, 0 56.69296, 0 56.69296, 10.62993 113.38592, 10.62993 113.38592, 0 152.36233, 0 152.36233, 10.62993 191.33874, 10.62993 191.33874, 0 230.31515000000002, 0 230.31515000000002, 10.62993 269.29156, 10.62993 269.29156, 0 308.26797, 0 308.26797, 10.62993 347.24438, 10.62993 347.24438, 0 386.22079, 0 386.22079, 10.62993 425.1972, 10.62993 425.1972, 0 464.17361, 0 464.17361, 10.62993 503.15002, 10.62993 503.15002, 0 542.12643, 0 542.12643, 10.62993 581.10284, 10.62993 581.10284, 0 620.07925, 0 620.07925, 10.62993 659.05566, 10.62993 659.05566, 0 698.03207, 0 698.03207, 10.62993 737.00848, 10.62993 737.00848, 0 775.98489, 0 775.98489, 10.62993 832.67785, 10.62993 832.67785, 0 889.37081, 0 889.37081, 56.69296 878.7408800000001, 56.69296 878.7408800000001, 113.38592 889.37081, 113.38592 889.37081, 152.36233 878.7408800000001, 152.36233 878.7408800000001, 191.33874 889.37081, 191.33874 889.37081, 230.31515000000002 878.7408800000001, 230.31515000000002 878.7408800000001, 269.29156 889.37081, 269.29156 889.37081, 308.26797 878.7408800000001, 308.26797 878.7408800000001, 347.24438 889.37081, 347.24438 889.37081, 386.22079 878.7408800000001, 386.22079 878.7408800000001, 425.1972 889.37081, 425.1972 889.37081, 464.17361 878.7408800000001, 464.17361 878.7408800000001, 503.15002 889.37081, 503.15002 889.37081, 542.12643 878.7408800000001, 542.12643 878.7408800000001, 581.10284 889.37081, 581.10284 889.37081, 620.07925 878.7408800000001, 620.07925 878.7408800000001, 659.05566 889.37081, 659.05566 889.37081, 698.03207 878.7408800000001, 698.03207 878.7408800000001, 737.00848 889.37081, 737.00848 889.37081, 775.98489 878.7408800000001, 775.98489 878.7408800000001, 832.67785 889.37081, 832.67785 889.37081, 889.37081 832.67785, 889.37081 832.67785, 878.7408800000001 775.98489, 878.7408800000001 775.98489, 889.37081 737.00848, 889.37081 737.00848, 878.7408800000001 698.03207, 878.7408800000001 698.03207, 889.37081 659.05566, 889.37081 659.05566, 878.7408800000001 620.07925, 878.7408800000001 620.07925, 889.37081 581.10284, 889.37081 581.10284, 878.7408800000001 542.12643, 878.7408800000001 542.12643, 889.37081 503.15002, 889.37081 503.15002, 878.7408800000001 464.17361, 878.7408800000001 464.17361, 889.37081 425.1972, 889.37081 425.1972, 878.7408800000001 386.22079, 878.7408800000001 386.22079, 889.37081 347.24438, 889.37081 347.24438, 878.7408800000001 308.26797, 878.7408800000001 308.26797, 889.37081 269.29156, 889.37081 269.29156, 878.7408800000001 230.31515000000002, 878.7408800000001 230.31515000000002, 889.37081 191.33874, 889.37081 191.33874, 878.7408800000001 152.36233, 878.7408800000001 152.36233, 889.37081 113.38592, 889.37081 113.38592, 878.7408800000001 56.69296, 878.7408800000001 56.69296, 889.37081 0, 889.37081 0, 832.67785 10.62993, 832.67785 10.62993, 775.98489 0, 775.98489 0, 737.00848 10.62993, 737.00848 10.62993, 698.03207 0, 698.03207 0, 659.05566 10.62993, 659.05566 10.62993, 620.07925 0, 620.07925 0, 581.10284 10.62993, 581.10284 10.62993, 542.12643 0, 542.12643 0, 503.15002 10.62993, 503.15002 10.62993, 464.17361 0, 464.17361 0, 425.1972 10.62993, 425.1972 10.62993, 386.22079 0, 386.22079 0, 347.24438 10.62993, 347.24438 10.62993, 308.26797 0, 308.26797 0, 269.29156 10.62993, 269.29156 10.62993, 230.31515000000002 0, 230.31515000000002 0, 191.33874 10.62993, 191.33874 10.62993, 152.36233 0, 152.36233 0, 113.38592 10.62993, 113.38592 10.62993, 56.69296 0, 56.69296 "/> 
</g>
<!-- Back--> 
<g transform="translate(911.8708285, 22.5000185) " > 
<polygon style="stroke:#FF0000; fill:none; stroke-width:0.354331" points="0, 0 56.69296, 0 56.69296, 10.62993 113.38592, 10.62993 113.38592, 0 152.36233, 0 152.36233, 10.62993 191.33874, 10.62993 191.33874, 0 230.31515000000002, 0 230.31515000000002, 10.62993 269.29156, 10.62993 269.29156, 0 308.26797, 0 308.26797, 10.62993 347.24438, 10.62993 347.24438, 0 386.22079, 0 386.22079, 10.62993 425.1972, 10.62993 425.1972, 0 464.17361, 0 464.17361, 10.62993 503.15002, 10.62993 503.15002, 0 542.12643, 0 542.12643, 10.62993 581.10284, 10.62993 581.10284, 0 620.07925, 0 620.07925, 10.62993 659.05566, 10.62993 659.05566, 0 698.03207, 0 698.03207, 10.62993 737.00848, 10.62993 737.00848, 0 775.98489, 0 775.98489, 10.62993 832.67785, 10.62993 832.67785, 0 889.37081, 0 889.37081, 56.69296 878.7408800000001, 56.69296 878.7408800000001, 113.38592 889.37081, 113.38592 889.37081, 152.36233 878.7408800000001, 152.36233 878.7408800000001, 191.33874 889.37081, 191.33874 889.37081, 230.31515000000002 878.7408800000001, 230.31515000000002 878.7408800000001, 269.29156 889.37081, 269.29156 889.37081, 308.26797 878.7408800000001, 308.26797 878.7408800000001, 347.24438 889.37081, 347.24438 889.37081, 386.22079 878.7408800000001, 386.22079 878.7408800000001, 425.1972 889.37081, 425.1972 889.37081, 464.17361 878.7408800000001, 464.17361 878.7408800000001, 503.15002 889.37081, 503.15002 889.37081, 542.12643 878.7408800000001, 542.12643 878.7408800000001, 581.10284 889.37081, 581.10284 889.37081, 620.07925 878.7408800000001, 620.07925 878.7408800000001, 659.05566 889.37081, 659.05566 889.37081, 698.03207 878.7408800000001, 698.03207 878.7408800000001, 737.00848 889.37081, 737.00848 889.37081, 775.98489 878.7408800000001, 775.98489 878.7408800000001, 832.67785 889.37081, 832.67785 889.37081, 889.37081 832.67785, 889.37081 832.67785, 878.7408800000001 775.98489, 878.7408800000001 775.98489, 889.37081 737.00848, 889.37081 737.00848, 878.7408800000001 698.03207, 878.7408800000001 698.03207, 889.37081 659.05566, 889.37081 659.05566, 878.7408800000001 620.07925, 878.7408800000001 620.07925, 889.37081 581.10284, 889.37081 581.10284, 878.7408800000001 542.12643, 878.7408800000001 542.12643, 889.37081 503.15002, 889.37081 503.15002, 878.7408800000001 464.17361, 878.7408800000001 464.17361, 889.37081 425.1972, 889.37081 425.1972, 878.7408800000001 386.22079, 878.7408800000001 386.22079, 889.37081 347.24438, 889.37081 347.24438, 878.7408800000001 308.26797, 878.7408800000001 308.26797, 889.37081 269.29156, 889.37081 269.29156, 878.7408800000001 230.31515000000002, 878.7408800000001 230.31515000000002, 889.37081 191.33874, 889.37081 191.33874, 878.7408800000001 152.36233, 878.7408800000001 152.36233, 889.37081 113.38592, 889.37081 113.38592, 878.7408800000001 56.69296, 878.7408800000001 56.69296, 889.37081 0, 889.37081 0, 832.67785 10.62993, 832.67785 10.62993, 775.98489 0, 775.98489 0, 737.00848 10.62993, 737.00848 10.62993, 698.03207 0, 698.03207 0, 659.05566 10.62993, 659.05566 10.62993, 620.07925 0, 620.07925 0, 581.10284 10.62993, 581.10284 10.62993, 542.12643 0, 542.12643 0, 503.15002 10.62993, 503.15002 10.62993, 464.17361 0, 464.17361 0, 425.1972 10.62993, 425.1972 10.62993, 386.22079 0, 386.22079 0, 347.24438 10.62993, 347.24438 10.62993, 308.26797 0, 308.26797 0, 269.29156 10.62993, 269.29156 10.62993, 230.31515000000002 0, 230.31515000000002 0, 191.33874 10.62993, 191.33874 10.62993, 152.36233 0, 152.36233 0, 113.38592 10.62993, 113.38592 10.62993, 56.69296 0, 56.69296 "/> 
</g>
<!-- Left--> 
<g transform="translate(1801.2416385000001, 22.5000185) " > 
<polygon style="stroke:#FF0000; fill:none; stroke-width:0.354331" points="10.62993, 0 48.7205125, 0 48.7205125, 10.62993 97.441025, 10.62993 97.441025, 0 136.417435, 0 136.417435, 10.62993 185.1379475, 10.62993 185.1379475, 0 223.22853, 0 223.22853, 56.69296 233.85846, 56.69296 233.85846, 113.38592 223.22853, 113.38592 223.22853, 152.36233 233.85846, 152.36233 233.85846, 191.33874 223.22853, 191.33874 223.22853, 230.31515000000002 233.85846, 230.31515000000002 233.85846, 269.29156 223.22853, 269.29156 223.22853, 308.26797 233.85846, 308.26797 233.85846, 347.24438 223.22853, 347.24438 223.22853, 386.22079 233.85846, 386.22079 233.85846, 425.1972 223.22853, 425.1972 223.22853, 464.17361 233.85846, 464.17361 233.85846, 503.15002 223.22853, 503.15002 223.22853, 542.12643 233.85846, 542.12643 233.85846, 581.10284 223.22853, 581.10284 223.22853, 620.07925 233.85846, 620.07925 233.85846, 659.05566 223.22853, 659.05566 223.22853, 698.03207 233.85846, 698.03207 233.85846, 737.00848 223.22853, 737.00848 223.22853, 775.98489 233.85846, 775.98489 233.85846, 832.67785 223.22853, 832.67785 223.22852999999998, 889.37081 185.1379475, 889.37081 185.1379475, 878.7408800000001 136.417435, 878.7408800000001 136.417435, 889.37081 97.441025, 889.37081 97.441025, 878.7408800000001 48.7205125, 878.7408800000001 48.7205125, 889.37081 10.62993, 889.37081 10.62993, 832.67785 0, 832.67785 0, 775.98489 10.62993, 775.98489 10.62993, 737.00848 0, 737.00848 0, 698.03207 10.62993, 698.03207 10.62993, 659.05566 0, 659.05566 0, 620.07925 10.62993, 620.07925 10.62993, 581.10284 0, 581.10284 0, 542.12643 10.62993, 542.12643 10.62993, 503.15002 0, 503.15002 0, 464.17361 10.62993, 464.17361 10.62993, 425.1972 0, 425.1972 0, 386.22079 10.62993, 386.22079 10.62993, 347.24438 0, 347.24438 0, 308.26797 10.62993, 308.26797 10.62993, 269.29156 0, 269.29156 0, 230.31515000000002 10.62993, 230.31515000000002 10.62993, 191.33874 0, 191.33874 0, 152.36233 10.62993, 152.36233 10.62993, 113.38592 0, 113.38592 0, 56.69296 10.62993, 56.69296 "/> 
</g>
<!-- Right--> 
<g transform="translate(1801.2416385000001, 911.8708285) " > 
<polygon style="stroke:#FF0000; fill:none; stroke-width:0.354331" points="10.62993, 0 48.7205125, 0 48.7205125, 10.62993 97.441025, 10.62993 97.441025, 0 136.417435, 0 136.417435, 10.62993 185.1379475, 10.62993 185.1379475, 0 223.22853, 0 223.22853, 56.69296 233.85846, 56.69296 233.85846, 113.38592 223.22853, 113.38592 223.22853, 152.36233 233.85846, 152.36233 233.85846, 191.33874 223.22853, 191.33874 223.22853, 230.31515000000002 233.85846, 230.31515000000002 233.85846, 269.29156 223.22853, 269.29156 223.22853, 308.26797 233.85846, 308.26797 233.85846, 347.24438 223.22853, 347.24438 223.22853, 386.22079 233.85846, 386.22079 233.85846, 425.1972 223.22853, 425.1972 223.22853, 464.17361 233.85846, 464.17361 233.85846, 503.15002 223.22853, 503.15002 223.22853, 542.12643 233.85846, 542.12643 233.85846, 581.10284 223.22853, 581.10284 223.22853, 620.07925 233.85846, 620.07925 233.85846, 659.05566 223.22853, 659.05566 223.22853, 698.03207 233.85846, 698.03207 233.85846, 737.00848 223.22853, 737.00848 223.22853, 775.98489 233.85846, 775.98489 233.85846, 832.67785 223.22853, 832.67785 223.22852999999998, 889.37081 185.1379475, 889.37081 185.1379475, 878.7408800000001 136.417435, 878.7408800000001 136.417435, 889.37081 97.441025, 889.37081 97.441025, 878.7408800000001 48.7205125, 878.7408800000001 48.7205125, 889.37081 10.62993, 889.37081 10.62993, 832.67785 0, 832.67785 0, 775.98489 10.62993, 775.98489 10.62993, 737.00848 0, 737.00848 0, 698.03207 10.62993, 698.03207 10.62993, 659.05566 0, 659.05566 0, 620.07925 10.62993, 620.07925 10.62993, 581.10284 0, 581.10284 0, 542.12643 10.62993, 542.12643 10.62993, 503.15002 0, 503.15002 0, 464.17361 10.62993, 464.17361 10.62993, 425.1972 0, 425.1972 0, 386.22079 10.62993, 386.22079 10.62993, 347.24438 0, 347.24438 0, 308.26797 10.62993, 308.26797 10.62993, 269.29156 0, 269.29156 0, 230.31515000000002 10.62993, 230.31515000000002 10.62993, 191.33874 0, 191.33874 0, 152.36233 10.62993, 152.36233 10.62993, 113.38592 0, 113.38592 0, 56.69296 10.62993, 56.69296 "/> 
</g>
<!-- Top--> 
<g transform="translate(22.5000185, 911.8708285) " > 
<polygon style="stroke:#FF0000; fill:none; stroke-width:0.354331" points="10.62993, 10.62993 56.69296, 10.62993 56.69296, 0 113.38592, 0 113.38592, 10.62993 152.36233, 10.62993 152.36233, 0 191.33874, 0 191.33874, 10.62993 230.31515000000002, 10.62993 230.31515000000002, 0 269.29156, 0 269.29156, 10.62993 308.26797, 10.62993 308.26797, 0 347.24438, 0 347.24438, 10.62993 386.22079, 10.62993 386.22079, 0 425.1972, 0 425.1972, 10.62993 464.17361, 10.62993 464.17361, 0 503.15002, 0 503.15002, 10.62993 542.12643, 10.62993 542.12643, 0 581.10284, 0 581.10284, 10.62993 620.07925, 10.62993 620.07925, 0 659.05566, 0 659.05566, 10.62993 698.03207, 10.62993 698.03207, 0 737.00848, 0 737.00848, 10.62993 775.98489, 10.62993 775.98489, 0 832.67785, 0 832.67785, 10.62993 878.7408800000001, 10.62993 878.7408800000001, 48.7205125 889.37081, 48.7205125 889.37081, 97.441025 878.7408800000001, 97.441025 878.7408800000001, 136.417435 889.37081, 136.417435 889.37081, 185.1379475 878.7408800000001, 185.1379475 878.7408800000001, 223.22853 832.67785, 223.22853 832.67785, 233.85846 775.98489, 233.85846 775.98489, 223.22853 737.00848, 223.22853 737.00848, 233.85846 698.03207, 233.85846 698.03207, 223.22853 659.05566, 223.22853 659.05566, 233.85846 620.07925, 233.85846 620.07925, 223.22853 581.10284, 223.22853 581.10284, 233.85846 542.12643, 233.85846 542.12643, 223.22853 503.15002, 223.22853 503.15002, 233.85846 464.17361, 233.85846 464.17361, 223.22853 425.1972, 223.22853 425.1972, 233.85846 386.22079, 233.85846 386.22079, 223.22853 347.24438, 223.22853 347.24438, 233.85846 308.26797, 233.85846 308.26797, 223.22853 269.29156, 223.22853 269.29156, 233.85846 230.31515000000002, 233.85846 230.31515000000002, 223.22853 191.33874, 223.22853 191.33874, 233.85846 152.36233, 233.85846 152.36233, 223.22853 113.38592, 223.22853 113.38592, 233.85846 56.69296, 233.85846 56.69296, 223.22853 10.62993, 223.22852999999998 10.62993, 185.1379475 0, 185.1379475 0, 136.417435 10.62993, 136.417435 10.62993, 97.441025 0, 97.441025 0, 48.7205125 10.62993, 48.7205125 "/> 
</g>
<!-- Bottom--> 
<g transform="translate(911.8708285, 911.8708285) " > 
<polygon style="stroke:#FF0000; fill:none; stroke-width:0.354331" points="10.62993, 10.62993 56.69296, 10.62993 56.69296, 0 113.38592, 0 113.38592, 10.62993 152.36233, 10.62993 152.36233, 0 191.33874, 0 191.33874, 10.62993 230.31515000000002, 10.62993 230.31515000000002, 0 269.29156, 0 269.29156, 10.62993 308.26797, 10.62993 308.26797, 0 347.24438, 0 347.24438, 10.62993 386.22079, 10.62993 386.22079, 0 425.1972, 0 425.1972, 10.62993 464.17361, 10.62993 464.17361, 0 503.15002, 0 503.15002, 10.62993 542.12643, 10.62993 542.12643, 0 581.10284, 0 581.10284, 10.62993 620.07925, 10.62993 620.07925, 0 659.05566, 0 659.05566, 10.62993 698.03207, 10.62993 698.03207, 0 737.00848, 0 737.00848, 10.62993 775.98489, 10.62993 775.98489, 0 832.67785, 0 832.67785, 10.62993 878.7408800000001, 10.62993 878.7408800000001, 48.7205125 889.37081, 48.7205125 889.37081, 97.441025 878.7408800000001, 97.441025 878.7408800000001, 136.417435 889.37081, 136.417435 889.37081, 185.1379475 878.7408800000001, 185.1379475 878.7408800000001, 223.22853 832.67785, 223.22853 832.67785, 233.85846 775.98489, 233.85846 775.98489, 223.22853 737.00848, 223.22853 737.00848, 233.85846 698.03207, 233.85846 698.03207, 223.22853 659.05566, 223.22853 659.05566, 233.85846 620.07925, 233.85846 620.07925, 223.22853 581.10284, 223.22853 581.10284, 233.85846 542.12643, 233.85846 542.12643, 223.22853 503.15002, 223.22853 503.15002, 233.85846 464.17361, 233.85846 464.17361, 223.22853 425.1972, 223.22853 425.1972, 233.85846 386.22079, 233.85846 386.22079, 223.22853 347.24438, 223.22853 347.24438, 233.85846 308.26797, 233.85846 308.26797, 223.22853 269.29156, 223.22853 269.29156, 233.85846 230.31515000000002, 233.85846 230.31515000000002, 223.22853 191.33874, 223.22853 191.33874, 233.85846 152.36233, 233.85846 152.36233, 223.22853 113.38592, 223.22853 113.38592, 233.85846 56.69296, 233.85846 56.69296, 223.22853 10.62993, 223.22852999999998 10.62993, 185.1379475 0, 185.1379475 0, 136.417435 10.62993, 136.417435 10.62993, 97.441025 0, 97.441025 0, 48.7205125 10.62993, 48.7205125 "/> 
</g></svg>