G75*
%MOIN*%
%OFA0B0*%
%FSLAX25Y25*%
%IPPOS*%
%LPD*%
%AMOC8*
5,1,8,0,0,1.08239X$1,22.5*
%
%ADD10C,0.03162*%
%ADD11OC8,0.06737*%
%ADD12C,0.08400*%
%ADD13C,0.05800*%
D10*
X0036827Y0027772D03*
X0041551Y0027772D03*
X0046276Y0027772D03*
X0051000Y0027772D03*
X0055724Y0027772D03*
X0075016Y0027772D03*
X0079740Y0027772D03*
X0084465Y0027772D03*
X0089189Y0027772D03*
X0093913Y0027772D03*
X0112811Y0027772D03*
X0117535Y0027772D03*
X0122260Y0027772D03*
X0126984Y0027772D03*
X0131709Y0027772D03*
X0151000Y0027772D03*
X0155724Y0027772D03*
X0160449Y0027772D03*
X0165173Y0027772D03*
X0169898Y0027772D03*
X0188795Y0027772D03*
X0193520Y0027772D03*
X0198244Y0027772D03*
X0202969Y0027772D03*
X0207693Y0027772D03*
X0226984Y0027772D03*
X0231709Y0027772D03*
X0236433Y0027772D03*
X0241157Y0027772D03*
X0245882Y0027772D03*
X0264780Y0027772D03*
X0269504Y0027772D03*
X0274228Y0027772D03*
X0278953Y0027772D03*
X0283677Y0027772D03*
X0302969Y0027772D03*
X0307693Y0027772D03*
X0312417Y0027772D03*
X0317142Y0027772D03*
X0321866Y0027772D03*
X0340764Y0027772D03*
X0345488Y0027772D03*
X0350213Y0027772D03*
X0354937Y0027772D03*
X0359661Y0027772D03*
X0378953Y0027772D03*
X0383677Y0027772D03*
X0388402Y0027772D03*
X0393126Y0027772D03*
X0397850Y0027772D03*
X0416748Y0027772D03*
X0421472Y0027772D03*
X0426197Y0027772D03*
X0430921Y0027772D03*
X0435646Y0027772D03*
X0454937Y0027772D03*
X0459661Y0027772D03*
X0464386Y0027772D03*
X0469110Y0027772D03*
X0473835Y0027772D03*
X0492732Y0027772D03*
X0497457Y0027772D03*
X0502181Y0027772D03*
X0506906Y0027772D03*
X0511630Y0027772D03*
X0530921Y0027772D03*
X0535646Y0027772D03*
X0540370Y0027772D03*
X0545094Y0027772D03*
X0549819Y0027772D03*
X0568717Y0027772D03*
X0573441Y0027772D03*
X0578165Y0027772D03*
X0582890Y0027772D03*
X0587614Y0027772D03*
X0606906Y0027772D03*
X0611630Y0027772D03*
X0616354Y0027772D03*
X0621079Y0027772D03*
X0625803Y0027772D03*
X0644701Y0027772D03*
X0649425Y0027772D03*
X0654150Y0027772D03*
X0658874Y0027772D03*
X0663598Y0027772D03*
X0682890Y0027772D03*
X0687614Y0027772D03*
X0692339Y0027772D03*
X0697063Y0027772D03*
X0701787Y0027772D03*
X0720685Y0027772D03*
X0725409Y0027772D03*
X0730134Y0027772D03*
X0734858Y0027772D03*
X0739583Y0027772D03*
X0758874Y0027772D03*
X0763598Y0027772D03*
X0768323Y0027772D03*
X0773047Y0027772D03*
X0777772Y0027772D03*
X0787220Y0398244D03*
X0787220Y0402969D03*
X0787220Y0407693D03*
X0749031Y0407693D03*
X0749031Y0402969D03*
X0749031Y0398244D03*
X0711236Y0398244D03*
X0711236Y0402969D03*
X0711236Y0407693D03*
X0673047Y0407693D03*
X0673047Y0402969D03*
X0673047Y0398244D03*
X0635252Y0398244D03*
X0635252Y0402969D03*
X0635252Y0407693D03*
X0597063Y0407693D03*
X0597063Y0402969D03*
X0597063Y0398244D03*
X0559268Y0398244D03*
X0559268Y0402969D03*
X0559268Y0407693D03*
X0521079Y0407693D03*
X0521079Y0402969D03*
X0521079Y0398244D03*
X0483283Y0398244D03*
X0483283Y0402969D03*
X0483283Y0407693D03*
X0445094Y0407693D03*
X0445094Y0402969D03*
X0445094Y0398244D03*
X0407299Y0398244D03*
X0407299Y0402969D03*
X0407299Y0407693D03*
X0369110Y0407693D03*
X0369110Y0402969D03*
X0369110Y0398244D03*
X0331315Y0398244D03*
X0331315Y0402969D03*
X0331315Y0407693D03*
X0293126Y0407693D03*
X0293126Y0402969D03*
X0293126Y0398244D03*
X0255331Y0398244D03*
X0255331Y0402969D03*
X0255331Y0407693D03*
X0217142Y0407693D03*
X0217142Y0402969D03*
X0217142Y0398244D03*
X0179346Y0398244D03*
X0179346Y0402969D03*
X0179346Y0407693D03*
X0141157Y0407693D03*
X0141157Y0402969D03*
X0141157Y0398244D03*
X0103362Y0398244D03*
X0103362Y0402969D03*
X0103362Y0407693D03*
X0065173Y0407693D03*
X0065173Y0402969D03*
X0065173Y0398244D03*
X0026984Y0398244D03*
X0026984Y0402969D03*
X0026984Y0407693D03*
X0037220Y0790370D03*
X0041945Y0790370D03*
X0046669Y0790370D03*
X0051394Y0790370D03*
X0056118Y0790370D03*
X0074622Y0790370D03*
X0079346Y0790370D03*
X0084071Y0790370D03*
X0088795Y0790370D03*
X0093520Y0790370D03*
X0113205Y0790370D03*
X0117929Y0790370D03*
X0122654Y0790370D03*
X0127378Y0790370D03*
X0132102Y0790370D03*
X0150606Y0790370D03*
X0155331Y0790370D03*
X0160055Y0790370D03*
X0164780Y0790370D03*
X0169504Y0790370D03*
X0189189Y0790370D03*
X0193913Y0790370D03*
X0198638Y0790370D03*
X0203362Y0790370D03*
X0208087Y0790370D03*
X0226591Y0790370D03*
X0231315Y0790370D03*
X0236039Y0790370D03*
X0240764Y0790370D03*
X0245488Y0790370D03*
X0265173Y0790370D03*
X0269898Y0790370D03*
X0274622Y0790370D03*
X0279346Y0790370D03*
X0284071Y0790370D03*
X0302575Y0790370D03*
X0307299Y0790370D03*
X0312024Y0790370D03*
X0316748Y0790370D03*
X0321472Y0790370D03*
X0341157Y0790370D03*
X0345882Y0790370D03*
X0350606Y0790370D03*
X0355331Y0790370D03*
X0360055Y0790370D03*
X0378559Y0790370D03*
X0383283Y0790370D03*
X0388008Y0790370D03*
X0392732Y0790370D03*
X0397457Y0790370D03*
X0417142Y0790370D03*
X0421866Y0790370D03*
X0426591Y0790370D03*
X0431315Y0790370D03*
X0436039Y0790370D03*
X0454543Y0790370D03*
X0459268Y0790370D03*
X0463992Y0790370D03*
X0468717Y0790370D03*
X0473441Y0790370D03*
X0493126Y0790370D03*
X0497850Y0790370D03*
X0502575Y0790370D03*
X0507299Y0790370D03*
X0512024Y0790370D03*
X0530528Y0790370D03*
X0535252Y0790370D03*
X0539976Y0790370D03*
X0544701Y0790370D03*
X0549425Y0790370D03*
X0569110Y0790370D03*
X0573835Y0790370D03*
X0578559Y0790370D03*
X0583283Y0790370D03*
X0588008Y0790370D03*
X0606512Y0790370D03*
X0611236Y0790370D03*
X0615961Y0790370D03*
X0620685Y0790370D03*
X0625409Y0790370D03*
X0645094Y0790370D03*
X0649819Y0790370D03*
X0654543Y0790370D03*
X0659268Y0790370D03*
X0663992Y0790370D03*
X0682496Y0790370D03*
X0687220Y0790370D03*
X0691945Y0790370D03*
X0696669Y0790370D03*
X0701394Y0790370D03*
X0721079Y0790370D03*
X0725803Y0790370D03*
X0730528Y0790370D03*
X0735252Y0790370D03*
X0739976Y0790370D03*
X0758480Y0790370D03*
X0763205Y0790370D03*
X0767929Y0790370D03*
X0772654Y0790370D03*
X0777378Y0790370D03*
D11*
X0774307Y0774622D03*
X0763205Y0774622D03*
X0727772Y0774622D03*
X0698323Y0774622D03*
X0687220Y0774622D03*
X0651787Y0774622D03*
X0622339Y0774622D03*
X0611236Y0774622D03*
X0575803Y0774622D03*
X0546354Y0774622D03*
X0535252Y0774622D03*
X0499819Y0774622D03*
X0470370Y0774622D03*
X0459268Y0774622D03*
X0423835Y0774622D03*
X0394386Y0774622D03*
X0383283Y0774622D03*
X0347850Y0774622D03*
X0318402Y0774622D03*
X0307299Y0774622D03*
X0271866Y0774622D03*
X0242417Y0774622D03*
X0231315Y0774622D03*
X0195882Y0774622D03*
X0166433Y0774622D03*
X0155331Y0774622D03*
X0119898Y0774622D03*
X0090449Y0774622D03*
X0079346Y0774622D03*
X0043913Y0774622D03*
D12*
X0086433Y0717535D03*
X0119898Y0654543D03*
X0086433Y0591551D03*
X0043913Y0654543D03*
X0162417Y0591551D03*
X0195882Y0654543D03*
X0238402Y0591551D03*
X0271866Y0654543D03*
X0314386Y0591551D03*
X0347850Y0654543D03*
X0390370Y0591551D03*
X0423835Y0654543D03*
X0466354Y0591551D03*
X0499819Y0654543D03*
X0542339Y0591551D03*
X0575803Y0654543D03*
X0618323Y0591551D03*
X0651787Y0654543D03*
X0694307Y0591551D03*
X0727772Y0654543D03*
X0770291Y0591551D03*
X0727772Y0528559D03*
X0694307Y0465567D03*
X0727772Y0402575D03*
X0770291Y0465567D03*
X0770291Y0337614D03*
X0727772Y0276591D03*
X0694307Y0213598D03*
X0651787Y0276591D03*
X0618323Y0213598D03*
X0575803Y0276591D03*
X0542339Y0213598D03*
X0499819Y0276591D03*
X0466354Y0213598D03*
X0423835Y0276591D03*
X0390370Y0213598D03*
X0347850Y0276591D03*
X0314386Y0213598D03*
X0271866Y0276591D03*
X0238402Y0213598D03*
X0195882Y0276591D03*
X0162417Y0213598D03*
X0119898Y0276591D03*
X0086433Y0213598D03*
X0043913Y0276591D03*
X0086433Y0337614D03*
X0119898Y0402575D03*
X0086433Y0465567D03*
X0043913Y0402575D03*
X0162417Y0465567D03*
X0195882Y0402575D03*
X0238402Y0465567D03*
X0271866Y0402575D03*
X0314386Y0465567D03*
X0347850Y0402575D03*
X0390370Y0465567D03*
X0423835Y0402575D03*
X0466354Y0465567D03*
X0499819Y0402575D03*
X0542339Y0465567D03*
X0575803Y0402575D03*
X0618323Y0465567D03*
X0651787Y0402575D03*
X0618323Y0337614D03*
X0542339Y0337614D03*
X0466354Y0337614D03*
X0390370Y0337614D03*
X0314386Y0337614D03*
X0238402Y0337614D03*
X0162417Y0337614D03*
X0195882Y0150606D03*
X0162417Y0087614D03*
X0119898Y0150606D03*
X0086433Y0087614D03*
X0043913Y0150606D03*
X0238402Y0087614D03*
X0271866Y0150606D03*
X0314386Y0087614D03*
X0347850Y0150606D03*
X0390370Y0087614D03*
X0423835Y0150606D03*
X0466354Y0087614D03*
X0499819Y0150606D03*
X0542339Y0087614D03*
X0575803Y0150606D03*
X0618323Y0087614D03*
X0651787Y0150606D03*
X0694307Y0087614D03*
X0727772Y0150606D03*
X0770291Y0087614D03*
X0770291Y0213598D03*
X0694307Y0337614D03*
X0651787Y0528559D03*
X0575803Y0528559D03*
X0499819Y0528559D03*
X0423835Y0528559D03*
X0347850Y0528559D03*
X0271866Y0528559D03*
X0195882Y0528559D03*
X0119898Y0528559D03*
X0043913Y0528559D03*
X0162417Y0717535D03*
X0238402Y0717535D03*
X0314386Y0717535D03*
X0390370Y0717535D03*
X0466354Y0717535D03*
X0542339Y0717535D03*
X0618323Y0717535D03*
X0694307Y0717535D03*
X0770291Y0717535D03*
D13*
X0727772Y0036433D03*
X0651787Y0036433D03*
X0575803Y0036433D03*
X0499819Y0036433D03*
X0423835Y0036433D03*
X0347850Y0036433D03*
X0271866Y0036433D03*
X0195882Y0036433D03*
X0119898Y0036433D03*
X0043913Y0036433D03*
M02*
