G75*
%MOIN*%
%OFA0B0*%
%FSLAX25Y25*%
%IPPOS*%
%LPD*%
%AMOC8*
5,1,8,0,0,1.08239X$1,22.5*
%
%ADD10R,0.19685X0.07874*%
%ADD11OC8,0.05937*%
%ADD12C,0.08600*%
%ADD13C,0.07600*%
%ADD14C,0.05000*%
%ADD15C,0.01000*%
D10*
X0043913Y0044307D03*
X0043913Y0056118D03*
X0043913Y0067929D03*
X0043913Y0107299D03*
X0043913Y0119110D03*
X0043913Y0130921D03*
X0043913Y0170291D03*
X0043913Y0182102D03*
X0043913Y0193913D03*
X0043913Y0233283D03*
X0043913Y0245094D03*
X0043913Y0256906D03*
X0043913Y0296276D03*
X0043913Y0308087D03*
X0043913Y0319898D03*
X0043913Y0359268D03*
X0043913Y0371079D03*
X0043913Y0382890D03*
X0043913Y0422260D03*
X0043913Y0434071D03*
X0043913Y0445882D03*
X0043913Y0485252D03*
X0043913Y0497063D03*
X0043913Y0508874D03*
X0043913Y0548244D03*
X0043913Y0560055D03*
X0043913Y0571866D03*
X0043913Y0611236D03*
X0043913Y0623047D03*
X0043913Y0634858D03*
X0043913Y0674228D03*
X0043913Y0686039D03*
X0043913Y0697850D03*
X0043913Y0737220D03*
X0043913Y0749031D03*
X0043913Y0760843D03*
X0086433Y0760843D03*
X0086433Y0749031D03*
X0086433Y0737220D03*
X0119898Y0737220D03*
X0119898Y0749031D03*
X0119898Y0760843D03*
X0162417Y0760843D03*
X0162417Y0749031D03*
X0162417Y0737220D03*
X0195882Y0737220D03*
X0195882Y0749031D03*
X0195882Y0760843D03*
X0238402Y0760843D03*
X0238402Y0749031D03*
X0238402Y0737220D03*
X0271866Y0737220D03*
X0271866Y0749031D03*
X0271866Y0760843D03*
X0314386Y0760843D03*
X0314386Y0749031D03*
X0314386Y0737220D03*
X0347850Y0737220D03*
X0347850Y0749031D03*
X0347850Y0760843D03*
X0390370Y0760843D03*
X0390370Y0749031D03*
X0390370Y0737220D03*
X0423835Y0737220D03*
X0423835Y0749031D03*
X0423835Y0760843D03*
X0466354Y0760843D03*
X0466354Y0749031D03*
X0466354Y0737220D03*
X0499819Y0737220D03*
X0499819Y0749031D03*
X0499819Y0760843D03*
X0542339Y0760843D03*
X0542339Y0749031D03*
X0542339Y0737220D03*
X0575803Y0737220D03*
X0575803Y0749031D03*
X0575803Y0760843D03*
X0618323Y0760843D03*
X0618323Y0749031D03*
X0618323Y0737220D03*
X0651787Y0737220D03*
X0651787Y0749031D03*
X0651787Y0760843D03*
X0694307Y0760843D03*
X0694307Y0749031D03*
X0694307Y0737220D03*
X0727772Y0737220D03*
X0727772Y0749031D03*
X0727772Y0760843D03*
X0770291Y0760843D03*
X0770291Y0749031D03*
X0770291Y0737220D03*
X0770291Y0697850D03*
X0770291Y0686039D03*
X0770291Y0674228D03*
X0770291Y0634858D03*
X0770291Y0623047D03*
X0770291Y0611236D03*
X0770291Y0571866D03*
X0770291Y0560055D03*
X0770291Y0548244D03*
X0770291Y0508874D03*
X0770291Y0497063D03*
X0770291Y0485252D03*
X0770291Y0445882D03*
X0770291Y0434071D03*
X0770291Y0422260D03*
X0770291Y0382890D03*
X0770291Y0371079D03*
X0770291Y0359268D03*
X0770291Y0319898D03*
X0770291Y0308087D03*
X0770291Y0296276D03*
X0770291Y0256906D03*
X0770291Y0245094D03*
X0770291Y0233283D03*
X0770291Y0193913D03*
X0770291Y0182102D03*
X0770291Y0170291D03*
X0770291Y0130921D03*
X0770291Y0119110D03*
X0770291Y0107299D03*
X0770291Y0067929D03*
X0770291Y0056118D03*
X0770291Y0044307D03*
X0727772Y0044307D03*
X0727772Y0056118D03*
X0727772Y0067929D03*
X0694307Y0067929D03*
X0694307Y0056118D03*
X0694307Y0044307D03*
X0651787Y0044307D03*
X0651787Y0056118D03*
X0651787Y0067929D03*
X0618323Y0067929D03*
X0618323Y0056118D03*
X0618323Y0044307D03*
X0575803Y0044307D03*
X0575803Y0056118D03*
X0575803Y0067929D03*
X0542339Y0067929D03*
X0542339Y0056118D03*
X0542339Y0044307D03*
X0499819Y0044307D03*
X0499819Y0056118D03*
X0499819Y0067929D03*
X0466354Y0067929D03*
X0466354Y0056118D03*
X0466354Y0044307D03*
X0423835Y0044307D03*
X0423835Y0056118D03*
X0423835Y0067929D03*
X0390370Y0067929D03*
X0390370Y0056118D03*
X0390370Y0044307D03*
X0347850Y0044307D03*
X0347850Y0056118D03*
X0347850Y0067929D03*
X0314386Y0067929D03*
X0314386Y0056118D03*
X0314386Y0044307D03*
X0271866Y0044307D03*
X0271866Y0056118D03*
X0271866Y0067929D03*
X0238402Y0067929D03*
X0238402Y0056118D03*
X0238402Y0044307D03*
X0195882Y0044307D03*
X0195882Y0056118D03*
X0195882Y0067929D03*
X0162417Y0067929D03*
X0162417Y0056118D03*
X0162417Y0044307D03*
X0119898Y0044307D03*
X0119898Y0056118D03*
X0119898Y0067929D03*
X0086433Y0067929D03*
X0086433Y0056118D03*
X0086433Y0044307D03*
X0086433Y0107299D03*
X0086433Y0119110D03*
X0086433Y0130921D03*
X0119898Y0130921D03*
X0119898Y0119110D03*
X0119898Y0107299D03*
X0162417Y0107299D03*
X0162417Y0119110D03*
X0162417Y0130921D03*
X0195882Y0130921D03*
X0195882Y0119110D03*
X0195882Y0107299D03*
X0238402Y0107299D03*
X0238402Y0119110D03*
X0238402Y0130921D03*
X0271866Y0130921D03*
X0271866Y0119110D03*
X0271866Y0107299D03*
X0314386Y0107299D03*
X0314386Y0119110D03*
X0314386Y0130921D03*
X0347850Y0130921D03*
X0347850Y0119110D03*
X0347850Y0107299D03*
X0390370Y0107299D03*
X0390370Y0119110D03*
X0390370Y0130921D03*
X0423835Y0130921D03*
X0423835Y0119110D03*
X0423835Y0107299D03*
X0466354Y0107299D03*
X0466354Y0119110D03*
X0466354Y0130921D03*
X0499819Y0130921D03*
X0499819Y0119110D03*
X0499819Y0107299D03*
X0542339Y0107299D03*
X0542339Y0119110D03*
X0542339Y0130921D03*
X0575803Y0130921D03*
X0575803Y0119110D03*
X0575803Y0107299D03*
X0618323Y0107299D03*
X0618323Y0119110D03*
X0618323Y0130921D03*
X0651787Y0130921D03*
X0651787Y0119110D03*
X0651787Y0107299D03*
X0694307Y0107299D03*
X0694307Y0119110D03*
X0694307Y0130921D03*
X0727772Y0130921D03*
X0727772Y0119110D03*
X0727772Y0107299D03*
X0727772Y0170291D03*
X0727772Y0182102D03*
X0727772Y0193913D03*
X0694307Y0193913D03*
X0694307Y0182102D03*
X0694307Y0170291D03*
X0651787Y0170291D03*
X0651787Y0182102D03*
X0651787Y0193913D03*
X0618323Y0193913D03*
X0618323Y0182102D03*
X0618323Y0170291D03*
X0575803Y0170291D03*
X0575803Y0182102D03*
X0575803Y0193913D03*
X0542339Y0193913D03*
X0542339Y0182102D03*
X0542339Y0170291D03*
X0499819Y0170291D03*
X0499819Y0182102D03*
X0499819Y0193913D03*
X0466354Y0193913D03*
X0466354Y0182102D03*
X0466354Y0170291D03*
X0423835Y0170291D03*
X0423835Y0182102D03*
X0423835Y0193913D03*
X0390370Y0193913D03*
X0390370Y0182102D03*
X0390370Y0170291D03*
X0347850Y0170291D03*
X0347850Y0182102D03*
X0347850Y0193913D03*
X0314386Y0193913D03*
X0314386Y0182102D03*
X0314386Y0170291D03*
X0271866Y0170291D03*
X0271866Y0182102D03*
X0271866Y0193913D03*
X0238402Y0193913D03*
X0238402Y0182102D03*
X0238402Y0170291D03*
X0195882Y0170291D03*
X0195882Y0182102D03*
X0195882Y0193913D03*
X0162417Y0193913D03*
X0162417Y0182102D03*
X0162417Y0170291D03*
X0119898Y0170291D03*
X0119898Y0182102D03*
X0119898Y0193913D03*
X0086433Y0193913D03*
X0086433Y0182102D03*
X0086433Y0170291D03*
X0086433Y0233283D03*
X0086433Y0245094D03*
X0086433Y0256906D03*
X0119898Y0256906D03*
X0119898Y0245094D03*
X0119898Y0233283D03*
X0162417Y0233283D03*
X0162417Y0245094D03*
X0162417Y0256906D03*
X0195882Y0256906D03*
X0195882Y0245094D03*
X0195882Y0233283D03*
X0238402Y0233283D03*
X0238402Y0245094D03*
X0238402Y0256906D03*
X0271866Y0256906D03*
X0271866Y0245094D03*
X0271866Y0233283D03*
X0314386Y0233283D03*
X0314386Y0245094D03*
X0314386Y0256906D03*
X0347850Y0256906D03*
X0347850Y0245094D03*
X0347850Y0233283D03*
X0390370Y0233283D03*
X0390370Y0245094D03*
X0390370Y0256906D03*
X0423835Y0256906D03*
X0423835Y0245094D03*
X0423835Y0233283D03*
X0466354Y0233283D03*
X0466354Y0245094D03*
X0466354Y0256906D03*
X0499819Y0256906D03*
X0499819Y0245094D03*
X0499819Y0233283D03*
X0542339Y0233283D03*
X0542339Y0245094D03*
X0542339Y0256906D03*
X0575803Y0256906D03*
X0575803Y0245094D03*
X0575803Y0233283D03*
X0618323Y0233283D03*
X0618323Y0245094D03*
X0618323Y0256906D03*
X0651787Y0256906D03*
X0651787Y0245094D03*
X0651787Y0233283D03*
X0694307Y0233283D03*
X0694307Y0245094D03*
X0694307Y0256906D03*
X0727772Y0256906D03*
X0727772Y0245094D03*
X0727772Y0233283D03*
X0727772Y0296276D03*
X0727772Y0308087D03*
X0727772Y0319898D03*
X0694307Y0319898D03*
X0694307Y0308087D03*
X0694307Y0296276D03*
X0651787Y0296276D03*
X0651787Y0308087D03*
X0651787Y0319898D03*
X0618323Y0319898D03*
X0618323Y0308087D03*
X0618323Y0296276D03*
X0575803Y0296276D03*
X0575803Y0308087D03*
X0575803Y0319898D03*
X0542339Y0319898D03*
X0542339Y0308087D03*
X0542339Y0296276D03*
X0499819Y0296276D03*
X0499819Y0308087D03*
X0499819Y0319898D03*
X0466354Y0319898D03*
X0466354Y0308087D03*
X0466354Y0296276D03*
X0423835Y0296276D03*
X0423835Y0308087D03*
X0423835Y0319898D03*
X0423835Y0359268D03*
X0423835Y0371079D03*
X0423835Y0382890D03*
X0390370Y0382890D03*
X0390370Y0371079D03*
X0390370Y0359268D03*
X0390370Y0319898D03*
X0390370Y0308087D03*
X0390370Y0296276D03*
X0347850Y0296276D03*
X0347850Y0308087D03*
X0347850Y0319898D03*
X0314386Y0319898D03*
X0314386Y0308087D03*
X0314386Y0296276D03*
X0271866Y0296276D03*
X0271866Y0308087D03*
X0271866Y0319898D03*
X0238402Y0319898D03*
X0238402Y0308087D03*
X0238402Y0296276D03*
X0195882Y0296276D03*
X0195882Y0308087D03*
X0195882Y0319898D03*
X0195882Y0359268D03*
X0195882Y0371079D03*
X0195882Y0382890D03*
X0162417Y0382890D03*
X0162417Y0371079D03*
X0162417Y0359268D03*
X0162417Y0319898D03*
X0162417Y0308087D03*
X0162417Y0296276D03*
X0119898Y0296276D03*
X0119898Y0308087D03*
X0119898Y0319898D03*
X0086433Y0319898D03*
X0086433Y0308087D03*
X0086433Y0296276D03*
X0086433Y0359268D03*
X0086433Y0371079D03*
X0086433Y0382890D03*
X0119898Y0382890D03*
X0119898Y0371079D03*
X0119898Y0359268D03*
X0119898Y0422260D03*
X0119898Y0434071D03*
X0119898Y0445882D03*
X0086433Y0445882D03*
X0086433Y0434071D03*
X0086433Y0422260D03*
X0086433Y0485252D03*
X0086433Y0497063D03*
X0086433Y0508874D03*
X0119898Y0508874D03*
X0119898Y0497063D03*
X0119898Y0485252D03*
X0162417Y0485252D03*
X0162417Y0497063D03*
X0162417Y0508874D03*
X0162417Y0548244D03*
X0162417Y0560055D03*
X0162417Y0571866D03*
X0195882Y0571866D03*
X0195882Y0560055D03*
X0195882Y0548244D03*
X0195882Y0508874D03*
X0195882Y0497063D03*
X0195882Y0485252D03*
X0195882Y0445882D03*
X0195882Y0434071D03*
X0195882Y0422260D03*
X0162417Y0422260D03*
X0162417Y0434071D03*
X0162417Y0445882D03*
X0238402Y0445882D03*
X0238402Y0434071D03*
X0238402Y0422260D03*
X0271866Y0422260D03*
X0271866Y0434071D03*
X0271866Y0445882D03*
X0271866Y0485252D03*
X0271866Y0497063D03*
X0271866Y0508874D03*
X0238402Y0508874D03*
X0238402Y0497063D03*
X0238402Y0485252D03*
X0238402Y0548244D03*
X0238402Y0560055D03*
X0238402Y0571866D03*
X0271866Y0571866D03*
X0271866Y0560055D03*
X0271866Y0548244D03*
X0314386Y0548244D03*
X0314386Y0560055D03*
X0314386Y0571866D03*
X0347850Y0571866D03*
X0347850Y0560055D03*
X0347850Y0548244D03*
X0347850Y0508874D03*
X0347850Y0497063D03*
X0347850Y0485252D03*
X0314386Y0485252D03*
X0314386Y0497063D03*
X0314386Y0508874D03*
X0314386Y0445882D03*
X0314386Y0434071D03*
X0314386Y0422260D03*
X0347850Y0422260D03*
X0347850Y0434071D03*
X0347850Y0445882D03*
X0390370Y0445882D03*
X0390370Y0434071D03*
X0390370Y0422260D03*
X0423835Y0422260D03*
X0423835Y0434071D03*
X0423835Y0445882D03*
X0423835Y0485252D03*
X0423835Y0497063D03*
X0423835Y0508874D03*
X0423835Y0548244D03*
X0423835Y0560055D03*
X0423835Y0571866D03*
X0390370Y0571866D03*
X0390370Y0560055D03*
X0390370Y0548244D03*
X0390370Y0508874D03*
X0390370Y0497063D03*
X0390370Y0485252D03*
X0466354Y0485252D03*
X0466354Y0497063D03*
X0466354Y0508874D03*
X0499819Y0508874D03*
X0499819Y0497063D03*
X0499819Y0485252D03*
X0499819Y0445882D03*
X0499819Y0434071D03*
X0499819Y0422260D03*
X0466354Y0422260D03*
X0466354Y0434071D03*
X0466354Y0445882D03*
X0466354Y0382890D03*
X0466354Y0371079D03*
X0466354Y0359268D03*
X0499819Y0359268D03*
X0499819Y0371079D03*
X0499819Y0382890D03*
X0542339Y0382890D03*
X0542339Y0371079D03*
X0542339Y0359268D03*
X0575803Y0359268D03*
X0575803Y0371079D03*
X0575803Y0382890D03*
X0575803Y0422260D03*
X0575803Y0434071D03*
X0575803Y0445882D03*
X0542339Y0445882D03*
X0542339Y0434071D03*
X0542339Y0422260D03*
X0542339Y0485252D03*
X0542339Y0497063D03*
X0542339Y0508874D03*
X0575803Y0508874D03*
X0575803Y0497063D03*
X0575803Y0485252D03*
X0618323Y0485252D03*
X0618323Y0497063D03*
X0618323Y0508874D03*
X0651787Y0508874D03*
X0651787Y0497063D03*
X0651787Y0485252D03*
X0651787Y0445882D03*
X0651787Y0434071D03*
X0651787Y0422260D03*
X0618323Y0422260D03*
X0618323Y0434071D03*
X0618323Y0445882D03*
X0618323Y0382890D03*
X0618323Y0371079D03*
X0618323Y0359268D03*
X0651787Y0359268D03*
X0651787Y0371079D03*
X0651787Y0382890D03*
X0694307Y0382890D03*
X0694307Y0371079D03*
X0694307Y0359268D03*
X0727772Y0359268D03*
X0727772Y0371079D03*
X0727772Y0382890D03*
X0727772Y0422260D03*
X0727772Y0434071D03*
X0727772Y0445882D03*
X0694307Y0445882D03*
X0694307Y0434071D03*
X0694307Y0422260D03*
X0694307Y0485252D03*
X0694307Y0497063D03*
X0694307Y0508874D03*
X0727772Y0508874D03*
X0727772Y0497063D03*
X0727772Y0485252D03*
X0727772Y0548244D03*
X0727772Y0560055D03*
X0727772Y0571866D03*
X0694307Y0571866D03*
X0694307Y0560055D03*
X0694307Y0548244D03*
X0651787Y0548244D03*
X0651787Y0560055D03*
X0651787Y0571866D03*
X0618323Y0571866D03*
X0618323Y0560055D03*
X0618323Y0548244D03*
X0575803Y0548244D03*
X0575803Y0560055D03*
X0575803Y0571866D03*
X0542339Y0571866D03*
X0542339Y0560055D03*
X0542339Y0548244D03*
X0499819Y0548244D03*
X0499819Y0560055D03*
X0499819Y0571866D03*
X0466354Y0571866D03*
X0466354Y0560055D03*
X0466354Y0548244D03*
X0466354Y0611236D03*
X0466354Y0623047D03*
X0466354Y0634858D03*
X0499819Y0634858D03*
X0499819Y0623047D03*
X0499819Y0611236D03*
X0542339Y0611236D03*
X0542339Y0623047D03*
X0542339Y0634858D03*
X0575803Y0634858D03*
X0575803Y0623047D03*
X0575803Y0611236D03*
X0618323Y0611236D03*
X0618323Y0623047D03*
X0618323Y0634858D03*
X0651787Y0634858D03*
X0651787Y0623047D03*
X0651787Y0611236D03*
X0694307Y0611236D03*
X0694307Y0623047D03*
X0694307Y0634858D03*
X0727772Y0634858D03*
X0727772Y0623047D03*
X0727772Y0611236D03*
X0727772Y0674228D03*
X0727772Y0686039D03*
X0727772Y0697850D03*
X0694307Y0697850D03*
X0694307Y0686039D03*
X0694307Y0674228D03*
X0651787Y0674228D03*
X0651787Y0686039D03*
X0651787Y0697850D03*
X0618323Y0697850D03*
X0618323Y0686039D03*
X0618323Y0674228D03*
X0575803Y0674228D03*
X0575803Y0686039D03*
X0575803Y0697850D03*
X0542339Y0697850D03*
X0542339Y0686039D03*
X0542339Y0674228D03*
X0499819Y0674228D03*
X0499819Y0686039D03*
X0499819Y0697850D03*
X0466354Y0697850D03*
X0466354Y0686039D03*
X0466354Y0674228D03*
X0423835Y0674228D03*
X0423835Y0686039D03*
X0423835Y0697850D03*
X0390370Y0697850D03*
X0390370Y0686039D03*
X0390370Y0674228D03*
X0390370Y0634858D03*
X0390370Y0623047D03*
X0390370Y0611236D03*
X0423835Y0611236D03*
X0423835Y0623047D03*
X0423835Y0634858D03*
X0347850Y0634858D03*
X0347850Y0623047D03*
X0347850Y0611236D03*
X0314386Y0611236D03*
X0314386Y0623047D03*
X0314386Y0634858D03*
X0314386Y0674228D03*
X0314386Y0686039D03*
X0314386Y0697850D03*
X0347850Y0697850D03*
X0347850Y0686039D03*
X0347850Y0674228D03*
X0271866Y0674228D03*
X0271866Y0686039D03*
X0271866Y0697850D03*
X0238402Y0697850D03*
X0238402Y0686039D03*
X0238402Y0674228D03*
X0238402Y0634858D03*
X0238402Y0623047D03*
X0238402Y0611236D03*
X0271866Y0611236D03*
X0271866Y0623047D03*
X0271866Y0634858D03*
X0195882Y0634858D03*
X0195882Y0623047D03*
X0195882Y0611236D03*
X0162417Y0611236D03*
X0162417Y0623047D03*
X0162417Y0634858D03*
X0162417Y0674228D03*
X0162417Y0686039D03*
X0162417Y0697850D03*
X0195882Y0697850D03*
X0195882Y0686039D03*
X0195882Y0674228D03*
X0119898Y0674228D03*
X0119898Y0686039D03*
X0119898Y0697850D03*
X0086433Y0697850D03*
X0086433Y0686039D03*
X0086433Y0674228D03*
X0086433Y0634858D03*
X0086433Y0623047D03*
X0086433Y0611236D03*
X0119898Y0611236D03*
X0119898Y0623047D03*
X0119898Y0634858D03*
X0119898Y0571866D03*
X0119898Y0560055D03*
X0119898Y0548244D03*
X0086433Y0548244D03*
X0086433Y0560055D03*
X0086433Y0571866D03*
X0238402Y0382890D03*
X0238402Y0371079D03*
X0238402Y0359268D03*
X0271866Y0359268D03*
X0271866Y0371079D03*
X0271866Y0382890D03*
X0314386Y0382890D03*
X0314386Y0371079D03*
X0314386Y0359268D03*
X0347850Y0359268D03*
X0347850Y0371079D03*
X0347850Y0382890D03*
D11*
X0347850Y0774622D03*
X0318402Y0774622D03*
X0307299Y0774622D03*
X0271866Y0774622D03*
X0242417Y0774622D03*
X0231315Y0774622D03*
X0195882Y0774622D03*
X0166433Y0774622D03*
X0155331Y0774622D03*
X0119898Y0774622D03*
X0090449Y0774622D03*
X0079346Y0774622D03*
X0043913Y0774622D03*
X0383283Y0774622D03*
X0394386Y0774622D03*
X0423835Y0774622D03*
X0459268Y0774622D03*
X0470370Y0774622D03*
X0499819Y0774622D03*
X0535252Y0774622D03*
X0546354Y0774622D03*
X0575803Y0774622D03*
X0611236Y0774622D03*
X0622339Y0774622D03*
X0651787Y0774622D03*
X0687220Y0774622D03*
X0698323Y0774622D03*
X0727772Y0774622D03*
X0763205Y0774622D03*
X0774307Y0774622D03*
D12*
X0043913Y0044307D02*
X0043913Y0036433D01*
X0086433Y0067929D02*
X0086433Y0087614D01*
X0086433Y0107299D01*
X0119898Y0130921D02*
X0119898Y0150606D01*
X0119898Y0170291D01*
X0086433Y0193913D02*
X0086433Y0213598D01*
X0086433Y0233283D01*
X0119898Y0256906D02*
X0119898Y0276591D01*
X0119898Y0296276D01*
X0086433Y0319898D02*
X0086433Y0337614D01*
X0086433Y0359268D01*
X0119898Y0382890D02*
X0119898Y0402575D01*
X0119898Y0422260D01*
X0086433Y0445882D02*
X0086433Y0465567D01*
X0086433Y0485252D01*
X0119898Y0508874D02*
X0119898Y0528559D01*
X0119898Y0548244D01*
X0086433Y0571866D02*
X0086433Y0591551D01*
X0086433Y0611236D01*
X0119898Y0634858D02*
X0119898Y0654543D01*
X0119898Y0674228D01*
X0086433Y0697850D02*
X0086433Y0717535D01*
X0086433Y0737220D01*
X0119898Y0760843D02*
X0119898Y0774622D01*
X0162417Y0737220D02*
X0162417Y0717535D01*
X0162417Y0697850D01*
X0195882Y0674228D02*
X0195882Y0654543D01*
X0195882Y0634858D01*
X0162417Y0611236D02*
X0162417Y0591551D01*
X0162417Y0571866D01*
X0195882Y0548244D02*
X0195882Y0528559D01*
X0195882Y0508874D01*
X0162417Y0485252D02*
X0162417Y0465567D01*
X0162417Y0445882D01*
X0195882Y0422260D02*
X0195882Y0402575D01*
X0195882Y0382890D01*
X0162417Y0359268D02*
X0162417Y0337614D01*
X0162417Y0319898D01*
X0195882Y0296276D02*
X0195882Y0276591D01*
X0195882Y0256906D01*
X0162417Y0233283D02*
X0162417Y0213598D01*
X0162417Y0193913D01*
X0195882Y0170291D02*
X0195882Y0150606D01*
X0195882Y0130921D01*
X0162417Y0107299D02*
X0162417Y0087614D01*
X0162417Y0067929D01*
X0195882Y0044307D02*
X0195882Y0036433D01*
X0238402Y0067929D02*
X0238402Y0087614D01*
X0238402Y0107299D01*
X0271866Y0130921D02*
X0271866Y0150606D01*
X0271866Y0170291D01*
X0238402Y0193913D02*
X0238402Y0213598D01*
X0238402Y0233283D01*
X0271866Y0256906D02*
X0271866Y0276591D01*
X0271866Y0296276D01*
X0238402Y0319898D02*
X0238402Y0337614D01*
X0238402Y0359268D01*
X0271866Y0382890D02*
X0271866Y0402575D01*
X0271866Y0422260D01*
X0238402Y0445882D02*
X0238402Y0465567D01*
X0238402Y0485252D01*
X0271866Y0508874D02*
X0271866Y0528559D01*
X0271866Y0548244D01*
X0238402Y0571866D02*
X0238402Y0591551D01*
X0238402Y0611236D01*
X0271866Y0634858D02*
X0271866Y0654543D01*
X0271866Y0674228D01*
X0238402Y0697850D02*
X0238402Y0717535D01*
X0238402Y0737220D01*
X0271866Y0760843D02*
X0271866Y0774622D01*
X0314386Y0737220D02*
X0314386Y0717535D01*
X0314386Y0697850D01*
X0347850Y0674228D02*
X0347850Y0654543D01*
X0347850Y0634858D01*
X0314386Y0611236D02*
X0314386Y0591551D01*
X0314386Y0571866D01*
X0347850Y0548244D02*
X0347850Y0528559D01*
X0347850Y0508874D01*
X0314386Y0485252D02*
X0314386Y0465567D01*
X0314386Y0445882D01*
X0347850Y0422260D02*
X0347850Y0402575D01*
X0347850Y0382890D01*
X0314386Y0359268D02*
X0314386Y0337614D01*
X0314386Y0319898D01*
X0347850Y0296276D02*
X0347850Y0276591D01*
X0347850Y0256906D01*
X0314386Y0233283D02*
X0314386Y0213598D01*
X0314386Y0193913D01*
X0347850Y0170291D02*
X0347850Y0150606D01*
X0347850Y0130921D01*
X0314386Y0107299D02*
X0314386Y0087614D01*
X0314386Y0067929D01*
X0347850Y0044307D02*
X0347850Y0036433D01*
X0390370Y0067929D02*
X0390370Y0087614D01*
X0390370Y0107299D01*
X0423835Y0130921D02*
X0423835Y0150606D01*
X0423835Y0170291D01*
X0390370Y0193913D02*
X0390370Y0213598D01*
X0390370Y0233283D01*
X0423835Y0256906D02*
X0423835Y0276591D01*
X0423835Y0296276D01*
X0390370Y0319898D02*
X0390370Y0337614D01*
X0390370Y0359268D01*
X0423835Y0382890D02*
X0423835Y0402575D01*
X0423835Y0422260D01*
X0390370Y0445882D02*
X0390370Y0465567D01*
X0390370Y0485252D01*
X0423835Y0508874D02*
X0423835Y0528559D01*
X0423835Y0548244D01*
X0390370Y0571866D02*
X0390370Y0591551D01*
X0390370Y0611236D01*
X0423835Y0634858D02*
X0423835Y0654543D01*
X0423835Y0674228D01*
X0390370Y0697850D02*
X0390370Y0717535D01*
X0390370Y0737220D01*
X0423835Y0760843D02*
X0423835Y0774622D01*
X0466354Y0737220D02*
X0466354Y0717535D01*
X0466354Y0697850D01*
X0499819Y0674228D02*
X0499819Y0654543D01*
X0499819Y0634858D01*
X0466354Y0611236D02*
X0466354Y0591551D01*
X0466354Y0571866D01*
X0499819Y0548244D02*
X0499819Y0528559D01*
X0499819Y0508874D01*
X0466354Y0485252D02*
X0466354Y0465567D01*
X0466354Y0445882D01*
X0499819Y0422260D02*
X0499819Y0402575D01*
X0499819Y0382890D01*
X0466354Y0359268D02*
X0466354Y0337614D01*
X0466354Y0319898D01*
X0499819Y0296276D02*
X0499819Y0276591D01*
X0499819Y0256906D01*
X0466354Y0233283D02*
X0466354Y0213598D01*
X0466354Y0193913D01*
X0499819Y0170291D02*
X0499819Y0150606D01*
X0499819Y0130921D01*
X0466354Y0107299D02*
X0466354Y0087614D01*
X0466354Y0067929D01*
X0499819Y0044307D02*
X0499819Y0036433D01*
X0542339Y0067929D02*
X0542339Y0087614D01*
X0542339Y0107299D01*
X0575803Y0130921D02*
X0575803Y0150606D01*
X0575803Y0170291D01*
X0542339Y0193913D02*
X0542339Y0213598D01*
X0542339Y0233283D01*
X0575803Y0256906D02*
X0575803Y0276591D01*
X0575803Y0296276D01*
X0542339Y0319898D02*
X0542339Y0337614D01*
X0542339Y0359268D01*
X0575803Y0382890D02*
X0575803Y0402575D01*
X0575803Y0422260D01*
X0542339Y0445882D02*
X0542339Y0465567D01*
X0542339Y0485252D01*
X0575803Y0508874D02*
X0575803Y0528559D01*
X0575803Y0548244D01*
X0542339Y0571866D02*
X0542339Y0591551D01*
X0542339Y0611236D01*
X0575803Y0634858D02*
X0575803Y0654543D01*
X0575803Y0674228D01*
X0542339Y0697850D02*
X0542339Y0717535D01*
X0542339Y0737220D01*
X0575803Y0760843D02*
X0575803Y0774622D01*
X0618323Y0737220D02*
X0618323Y0717535D01*
X0618323Y0697850D01*
X0651787Y0674228D02*
X0651787Y0654543D01*
X0651787Y0634858D01*
X0618323Y0611236D02*
X0618323Y0591551D01*
X0618323Y0571866D01*
X0651787Y0548244D02*
X0651787Y0528559D01*
X0651787Y0508874D01*
X0618323Y0485252D02*
X0618323Y0465567D01*
X0618323Y0445882D01*
X0651787Y0422260D02*
X0651787Y0402575D01*
X0651787Y0382890D01*
X0618323Y0359268D02*
X0618323Y0337614D01*
X0618323Y0319898D01*
X0651787Y0296276D02*
X0651787Y0276591D01*
X0651787Y0256906D01*
X0618323Y0233283D02*
X0618323Y0213598D01*
X0618323Y0193913D01*
X0651787Y0170291D02*
X0651787Y0150606D01*
X0651787Y0130921D01*
X0618323Y0107299D02*
X0618323Y0087614D01*
X0618323Y0067929D01*
X0651787Y0044307D02*
X0651787Y0036433D01*
X0694307Y0067929D02*
X0694307Y0087614D01*
X0694307Y0107299D01*
X0727772Y0130921D02*
X0727772Y0150606D01*
X0727772Y0170291D01*
X0694307Y0193913D02*
X0694307Y0213598D01*
X0694307Y0233283D01*
X0727772Y0256906D02*
X0727772Y0276591D01*
X0727772Y0296276D01*
X0694307Y0319898D02*
X0694307Y0337614D01*
X0694307Y0359268D01*
X0727772Y0382890D02*
X0727772Y0402575D01*
X0727772Y0422260D01*
X0694307Y0445882D02*
X0694307Y0465567D01*
X0694307Y0485252D01*
X0727772Y0508874D02*
X0727772Y0528559D01*
X0727772Y0548244D01*
X0694307Y0571866D02*
X0694307Y0591551D01*
X0694307Y0611236D01*
X0727772Y0634858D02*
X0727772Y0654543D01*
X0727772Y0674228D01*
X0694307Y0697850D02*
X0694307Y0717535D01*
X0694307Y0737220D01*
X0727772Y0760843D02*
X0727772Y0774622D01*
X0770291Y0737220D02*
X0770291Y0717535D01*
X0770291Y0697850D01*
X0770291Y0611236D02*
X0770291Y0591551D01*
X0770291Y0571866D01*
X0770291Y0485252D02*
X0770291Y0465567D01*
X0770291Y0445882D01*
X0770291Y0359268D02*
X0770291Y0337614D01*
X0770291Y0319898D01*
X0770291Y0233283D02*
X0770291Y0213598D01*
X0770291Y0193913D01*
X0770291Y0107299D02*
X0770291Y0087614D01*
X0770291Y0067929D01*
X0727772Y0044307D02*
X0727772Y0036433D01*
X0575803Y0036433D02*
X0575803Y0044307D01*
X0423835Y0044307D02*
X0423835Y0036433D01*
X0271866Y0036433D02*
X0271866Y0044307D01*
X0119898Y0044307D02*
X0119898Y0036433D01*
X0043913Y0130921D02*
X0043913Y0150606D01*
X0043913Y0170291D01*
X0043913Y0256906D02*
X0043913Y0276591D01*
X0043913Y0296276D01*
X0043913Y0382890D02*
X0043913Y0402575D01*
X0043913Y0422260D01*
X0043913Y0508874D02*
X0043913Y0528559D01*
X0043913Y0548244D01*
X0043913Y0634858D02*
X0043913Y0654543D01*
X0043913Y0674228D01*
X0043913Y0760843D02*
X0043913Y0774622D01*
X0195882Y0774622D02*
X0195882Y0760843D01*
X0347850Y0760843D02*
X0347850Y0774622D01*
X0499819Y0774622D02*
X0499819Y0760843D01*
X0651787Y0760843D02*
X0651787Y0774622D01*
D13*
X0618323Y0717535D03*
X0651787Y0654543D03*
X0618323Y0591551D03*
X0575803Y0654543D03*
X0542339Y0591551D03*
X0499819Y0654543D03*
X0466354Y0591551D03*
X0423835Y0654543D03*
X0390370Y0591551D03*
X0347850Y0654543D03*
X0314386Y0591551D03*
X0271866Y0654543D03*
X0238402Y0591551D03*
X0195882Y0654543D03*
X0162417Y0591551D03*
X0119898Y0654543D03*
X0086433Y0591551D03*
X0043913Y0654543D03*
X0086433Y0717535D03*
X0162417Y0717535D03*
X0238402Y0717535D03*
X0314386Y0717535D03*
X0390370Y0717535D03*
X0466354Y0717535D03*
X0542339Y0717535D03*
X0694307Y0717535D03*
X0727772Y0654543D03*
X0694307Y0591551D03*
X0727772Y0528559D03*
X0694307Y0465567D03*
X0727772Y0402575D03*
X0770291Y0465567D03*
X0770291Y0337614D03*
X0727772Y0276591D03*
X0694307Y0213598D03*
X0651787Y0276591D03*
X0618323Y0213598D03*
X0575803Y0276591D03*
X0542339Y0213598D03*
X0499819Y0276591D03*
X0466354Y0213598D03*
X0423835Y0276591D03*
X0390370Y0213598D03*
X0347850Y0276591D03*
X0314386Y0213598D03*
X0271866Y0276591D03*
X0238402Y0213598D03*
X0195882Y0276591D03*
X0162417Y0213598D03*
X0119898Y0276591D03*
X0086433Y0213598D03*
X0043913Y0276591D03*
X0086433Y0337614D03*
X0119898Y0402575D03*
X0086433Y0465567D03*
X0043913Y0402575D03*
X0162417Y0465567D03*
X0195882Y0402575D03*
X0238402Y0465567D03*
X0271866Y0402575D03*
X0314386Y0465567D03*
X0347850Y0402575D03*
X0390370Y0465567D03*
X0423835Y0402575D03*
X0466354Y0465567D03*
X0499819Y0402575D03*
X0542339Y0465567D03*
X0575803Y0402575D03*
X0618323Y0465567D03*
X0651787Y0402575D03*
X0618323Y0337614D03*
X0542339Y0337614D03*
X0466354Y0337614D03*
X0390370Y0337614D03*
X0314386Y0337614D03*
X0238402Y0337614D03*
X0162417Y0337614D03*
X0195882Y0150606D03*
X0162417Y0087614D03*
X0119898Y0150606D03*
X0086433Y0087614D03*
X0043913Y0150606D03*
X0238402Y0087614D03*
X0271866Y0150606D03*
X0314386Y0087614D03*
X0347850Y0150606D03*
X0390370Y0087614D03*
X0423835Y0150606D03*
X0466354Y0087614D03*
X0499819Y0150606D03*
X0542339Y0087614D03*
X0575803Y0150606D03*
X0618323Y0087614D03*
X0651787Y0150606D03*
X0694307Y0087614D03*
X0727772Y0150606D03*
X0770291Y0087614D03*
X0770291Y0213598D03*
X0694307Y0337614D03*
X0651787Y0528559D03*
X0575803Y0528559D03*
X0499819Y0528559D03*
X0423835Y0528559D03*
X0347850Y0528559D03*
X0271866Y0528559D03*
X0195882Y0528559D03*
X0119898Y0528559D03*
X0043913Y0528559D03*
X0770291Y0591551D03*
X0770291Y0717535D03*
D14*
X0727772Y0036433D03*
X0651787Y0036433D03*
X0575803Y0036433D03*
X0499819Y0036433D03*
X0423835Y0036433D03*
X0347850Y0036433D03*
X0271866Y0036433D03*
X0195882Y0036433D03*
X0119898Y0036433D03*
X0043913Y0036433D03*
D15*
X0043913Y0056118D02*
X0055724Y0056118D01*
X0055724Y0119110D01*
X0043913Y0119110D01*
X0074622Y0119110D02*
X0074622Y0182102D01*
X0086433Y0182102D01*
X0055724Y0182102D02*
X0043913Y0182102D01*
X0055724Y0182102D02*
X0055724Y0245094D01*
X0043913Y0245094D01*
X0074622Y0245094D02*
X0074622Y0308087D01*
X0086433Y0308087D01*
X0055724Y0308087D02*
X0043913Y0308087D01*
X0055724Y0308087D02*
X0055724Y0371079D01*
X0043913Y0371079D01*
X0074622Y0371079D02*
X0074622Y0434071D01*
X0086433Y0434071D01*
X0055724Y0434071D02*
X0043913Y0434071D01*
X0055724Y0434071D02*
X0055724Y0497063D01*
X0043913Y0497063D01*
X0074622Y0497063D02*
X0086433Y0497063D01*
X0074622Y0497063D02*
X0074622Y0560055D01*
X0086433Y0560055D01*
X0055724Y0560055D02*
X0043913Y0560055D01*
X0055724Y0560055D02*
X0055724Y0623047D01*
X0043913Y0623047D01*
X0074622Y0623047D02*
X0074622Y0686039D01*
X0086433Y0686039D01*
X0055724Y0686039D02*
X0043913Y0686039D01*
X0055724Y0686039D02*
X0055724Y0749031D01*
X0043913Y0749031D01*
X0074622Y0749031D02*
X0074622Y0772654D01*
X0076591Y0774622D01*
X0079346Y0774622D01*
X0074622Y0749031D02*
X0086433Y0749031D01*
X0119898Y0749031D02*
X0131709Y0749031D01*
X0131709Y0686039D01*
X0119898Y0686039D01*
X0150606Y0686039D02*
X0162417Y0686039D01*
X0150606Y0686039D02*
X0150606Y0623047D01*
X0162417Y0623047D01*
X0131709Y0623047D02*
X0131709Y0560055D01*
X0119898Y0560055D01*
X0150606Y0560055D02*
X0150606Y0497063D01*
X0162417Y0497063D01*
X0131709Y0497063D02*
X0131709Y0434071D01*
X0119898Y0434071D01*
X0150606Y0434071D02*
X0162417Y0434071D01*
X0150606Y0434071D02*
X0150606Y0371079D01*
X0162417Y0371079D01*
X0131709Y0371079D02*
X0131709Y0308087D01*
X0119898Y0308087D01*
X0150606Y0308087D02*
X0162417Y0308087D01*
X0150606Y0308087D02*
X0150606Y0245094D01*
X0162417Y0245094D01*
X0131709Y0245094D02*
X0131709Y0182102D01*
X0119898Y0182102D01*
X0150606Y0182102D02*
X0162417Y0182102D01*
X0150606Y0182102D02*
X0150606Y0119110D01*
X0162417Y0119110D01*
X0131709Y0119110D02*
X0131709Y0056118D01*
X0119898Y0056118D01*
X0119898Y0119110D02*
X0131709Y0119110D01*
X0086433Y0119110D02*
X0074622Y0119110D01*
X0195882Y0119110D02*
X0207693Y0119110D01*
X0207693Y0056118D01*
X0195882Y0056118D01*
X0226591Y0119110D02*
X0226591Y0182102D01*
X0238402Y0182102D01*
X0207693Y0182102D02*
X0195882Y0182102D01*
X0207693Y0182102D02*
X0207693Y0245094D01*
X0195882Y0245094D01*
X0226591Y0245094D02*
X0226591Y0308087D01*
X0238402Y0308087D01*
X0207693Y0308087D02*
X0195882Y0308087D01*
X0207693Y0308087D02*
X0207693Y0371079D01*
X0195882Y0371079D01*
X0226591Y0371079D02*
X0226591Y0434071D01*
X0238402Y0434071D01*
X0207693Y0434071D02*
X0195882Y0434071D01*
X0207693Y0434071D02*
X0207693Y0497063D01*
X0195882Y0497063D01*
X0226591Y0497063D02*
X0238402Y0497063D01*
X0226591Y0497063D02*
X0226591Y0560055D01*
X0238402Y0560055D01*
X0207693Y0560055D02*
X0195882Y0560055D01*
X0207693Y0560055D02*
X0207693Y0623047D01*
X0195882Y0623047D01*
X0226591Y0623047D02*
X0226591Y0686039D01*
X0238402Y0686039D01*
X0207693Y0686039D02*
X0195882Y0686039D01*
X0207693Y0686039D02*
X0207693Y0749031D01*
X0195882Y0749031D01*
X0226591Y0749031D02*
X0226591Y0772654D01*
X0228559Y0774622D01*
X0231315Y0774622D01*
X0226591Y0749031D02*
X0238402Y0749031D01*
X0271866Y0749031D02*
X0283677Y0749031D01*
X0283677Y0686039D01*
X0271866Y0686039D01*
X0302575Y0686039D02*
X0314386Y0686039D01*
X0302575Y0686039D02*
X0302575Y0623047D01*
X0314386Y0623047D01*
X0283677Y0623047D02*
X0283677Y0560055D01*
X0271866Y0560055D01*
X0302575Y0560055D02*
X0302575Y0497063D01*
X0314386Y0497063D01*
X0283677Y0497063D02*
X0283677Y0434071D01*
X0271866Y0434071D01*
X0302575Y0434071D02*
X0314386Y0434071D01*
X0302575Y0434071D02*
X0302575Y0371079D01*
X0314386Y0371079D01*
X0283677Y0371079D02*
X0283677Y0308087D01*
X0271866Y0308087D01*
X0302575Y0308087D02*
X0314386Y0308087D01*
X0302575Y0308087D02*
X0302575Y0245094D01*
X0314386Y0245094D01*
X0283677Y0245094D02*
X0283677Y0182102D01*
X0271866Y0182102D01*
X0302575Y0182102D02*
X0314386Y0182102D01*
X0302575Y0182102D02*
X0302575Y0119110D01*
X0314386Y0119110D01*
X0283677Y0119110D02*
X0283677Y0056118D01*
X0271866Y0056118D01*
X0271866Y0119110D02*
X0283677Y0119110D01*
X0238402Y0119110D02*
X0226591Y0119110D01*
X0347850Y0119110D02*
X0359661Y0119110D01*
X0359661Y0056118D01*
X0347850Y0056118D01*
X0378559Y0119110D02*
X0378559Y0182102D01*
X0390370Y0182102D01*
X0359661Y0182102D02*
X0347850Y0182102D01*
X0359661Y0182102D02*
X0359661Y0245094D01*
X0347850Y0245094D01*
X0378559Y0245094D02*
X0378559Y0308087D01*
X0390370Y0308087D01*
X0359661Y0308087D02*
X0347850Y0308087D01*
X0359661Y0308087D02*
X0359661Y0371079D01*
X0347850Y0371079D01*
X0378559Y0371079D02*
X0378559Y0434071D01*
X0390370Y0434071D01*
X0359661Y0434071D02*
X0347850Y0434071D01*
X0359661Y0434071D02*
X0359661Y0497063D01*
X0347850Y0497063D01*
X0378559Y0497063D02*
X0390370Y0497063D01*
X0378559Y0497063D02*
X0378559Y0560055D01*
X0390370Y0560055D01*
X0359661Y0560055D02*
X0347850Y0560055D01*
X0359661Y0560055D02*
X0359661Y0623047D01*
X0347850Y0623047D01*
X0378559Y0623047D02*
X0378559Y0686039D01*
X0390370Y0686039D01*
X0359661Y0686039D02*
X0347850Y0686039D01*
X0359661Y0686039D02*
X0359661Y0749031D01*
X0347850Y0749031D01*
X0378559Y0749031D02*
X0378559Y0772654D01*
X0380528Y0774622D01*
X0383283Y0774622D01*
X0378559Y0749031D02*
X0390370Y0749031D01*
X0423835Y0749031D02*
X0435646Y0749031D01*
X0435646Y0686039D01*
X0423835Y0686039D01*
X0454543Y0686039D02*
X0466354Y0686039D01*
X0454543Y0686039D02*
X0454543Y0623047D01*
X0466354Y0623047D01*
X0435646Y0623047D02*
X0435646Y0560055D01*
X0423835Y0560055D01*
X0454543Y0560055D02*
X0454543Y0497063D01*
X0466354Y0497063D01*
X0435646Y0497063D02*
X0435646Y0434071D01*
X0423835Y0434071D01*
X0454543Y0434071D02*
X0466354Y0434071D01*
X0454543Y0434071D02*
X0454543Y0371079D01*
X0466354Y0371079D01*
X0435646Y0371079D02*
X0435646Y0308087D01*
X0423835Y0308087D01*
X0454543Y0308087D02*
X0466354Y0308087D01*
X0454543Y0308087D02*
X0454543Y0245094D01*
X0466354Y0245094D01*
X0435646Y0245094D02*
X0435646Y0182102D01*
X0423835Y0182102D01*
X0454543Y0182102D02*
X0466354Y0182102D01*
X0454543Y0182102D02*
X0454543Y0119110D01*
X0466354Y0119110D01*
X0435646Y0119110D02*
X0435646Y0056118D01*
X0423835Y0056118D01*
X0423835Y0119110D02*
X0435646Y0119110D01*
X0390370Y0119110D02*
X0378559Y0119110D01*
X0499819Y0119110D02*
X0511630Y0119110D01*
X0511630Y0056118D01*
X0499819Y0056118D01*
X0530528Y0119110D02*
X0530528Y0182102D01*
X0542339Y0182102D01*
X0511630Y0182102D02*
X0499819Y0182102D01*
X0511630Y0182102D02*
X0511630Y0245094D01*
X0499819Y0245094D01*
X0530528Y0245094D02*
X0530528Y0308087D01*
X0542339Y0308087D01*
X0511630Y0308087D02*
X0499819Y0308087D01*
X0511630Y0308087D02*
X0511630Y0371079D01*
X0499819Y0371079D01*
X0530528Y0371079D02*
X0530528Y0434071D01*
X0542339Y0434071D01*
X0511630Y0434071D02*
X0499819Y0434071D01*
X0511630Y0434071D02*
X0511630Y0497063D01*
X0499819Y0497063D01*
X0530528Y0497063D02*
X0542339Y0497063D01*
X0530528Y0497063D02*
X0530528Y0560055D01*
X0542339Y0560055D01*
X0511630Y0560055D02*
X0499819Y0560055D01*
X0511630Y0560055D02*
X0511630Y0623047D01*
X0499819Y0623047D01*
X0530528Y0623047D02*
X0530528Y0686039D01*
X0542339Y0686039D01*
X0511630Y0686039D02*
X0499819Y0686039D01*
X0511630Y0686039D02*
X0511630Y0749031D01*
X0499819Y0749031D01*
X0530528Y0749031D02*
X0530528Y0772654D01*
X0532496Y0774622D01*
X0535252Y0774622D01*
X0530528Y0749031D02*
X0542339Y0749031D01*
X0575803Y0749031D02*
X0587614Y0749031D01*
X0587614Y0686039D01*
X0575803Y0686039D01*
X0606512Y0686039D02*
X0618323Y0686039D01*
X0606512Y0686039D02*
X0606512Y0623047D01*
X0618323Y0623047D01*
X0587614Y0623047D02*
X0587614Y0560055D01*
X0575803Y0560055D01*
X0606512Y0560055D02*
X0606512Y0497063D01*
X0618323Y0497063D01*
X0587614Y0497063D02*
X0587614Y0434071D01*
X0575803Y0434071D01*
X0606512Y0434071D02*
X0618323Y0434071D01*
X0606512Y0434071D02*
X0606512Y0371079D01*
X0618323Y0371079D01*
X0587614Y0371079D02*
X0587614Y0308087D01*
X0575803Y0308087D01*
X0606512Y0308087D02*
X0618323Y0308087D01*
X0606512Y0308087D02*
X0606512Y0245094D01*
X0618323Y0245094D01*
X0587614Y0245094D02*
X0587614Y0182102D01*
X0575803Y0182102D01*
X0606512Y0182102D02*
X0618323Y0182102D01*
X0606512Y0182102D02*
X0606512Y0119110D01*
X0618323Y0119110D01*
X0587614Y0119110D02*
X0587614Y0056118D01*
X0575803Y0056118D01*
X0575803Y0119110D02*
X0587614Y0119110D01*
X0542339Y0119110D02*
X0530528Y0119110D01*
X0651787Y0119110D02*
X0663598Y0119110D01*
X0663598Y0056118D01*
X0651787Y0056118D01*
X0682496Y0119110D02*
X0682496Y0182102D01*
X0694307Y0182102D01*
X0663598Y0182102D02*
X0651787Y0182102D01*
X0663598Y0182102D02*
X0663598Y0245094D01*
X0651787Y0245094D01*
X0682496Y0245094D02*
X0682496Y0308087D01*
X0694307Y0308087D01*
X0663598Y0308087D02*
X0651787Y0308087D01*
X0663598Y0308087D02*
X0663598Y0371079D01*
X0651787Y0371079D01*
X0682496Y0371079D02*
X0682496Y0434071D01*
X0694307Y0434071D01*
X0663598Y0434071D02*
X0651787Y0434071D01*
X0663598Y0434071D02*
X0663598Y0497063D01*
X0651787Y0497063D01*
X0682496Y0497063D02*
X0694307Y0497063D01*
X0682496Y0497063D02*
X0682496Y0560055D01*
X0694307Y0560055D01*
X0663598Y0560055D02*
X0651787Y0560055D01*
X0663598Y0560055D02*
X0663598Y0623047D01*
X0651787Y0623047D01*
X0682496Y0623047D02*
X0682496Y0686039D01*
X0694307Y0686039D01*
X0663598Y0686039D02*
X0651787Y0686039D01*
X0663598Y0686039D02*
X0663598Y0749031D01*
X0651787Y0749031D01*
X0682496Y0749031D02*
X0682496Y0772654D01*
X0684465Y0774622D01*
X0687220Y0774622D01*
X0682496Y0749031D02*
X0694307Y0749031D01*
X0727772Y0749031D02*
X0739583Y0749031D01*
X0739583Y0686039D01*
X0727772Y0686039D01*
X0758480Y0686039D02*
X0770291Y0686039D01*
X0758480Y0686039D02*
X0758480Y0623047D01*
X0770291Y0623047D01*
X0739583Y0623047D02*
X0739583Y0560055D01*
X0727772Y0560055D01*
X0758480Y0560055D02*
X0758480Y0497063D01*
X0770291Y0497063D01*
X0739583Y0497063D02*
X0739583Y0434071D01*
X0727772Y0434071D01*
X0758480Y0434071D02*
X0770291Y0434071D01*
X0758480Y0434071D02*
X0758480Y0371079D01*
X0770291Y0371079D01*
X0739583Y0371079D02*
X0739583Y0308087D01*
X0727772Y0308087D01*
X0758480Y0308087D02*
X0770291Y0308087D01*
X0758480Y0308087D02*
X0758480Y0245094D01*
X0770291Y0245094D01*
X0739583Y0245094D02*
X0739583Y0182102D01*
X0727772Y0182102D01*
X0758480Y0182102D02*
X0770291Y0182102D01*
X0758480Y0182102D02*
X0758480Y0119110D01*
X0770291Y0119110D01*
X0739583Y0119110D02*
X0739583Y0056118D01*
X0727772Y0056118D01*
X0727772Y0119110D02*
X0739583Y0119110D01*
X0694307Y0119110D02*
X0682496Y0119110D01*
X0682496Y0245094D02*
X0694307Y0245094D01*
X0727772Y0245094D02*
X0739583Y0245094D01*
X0739583Y0371079D02*
X0727772Y0371079D01*
X0694307Y0371079D02*
X0682496Y0371079D01*
X0587614Y0371079D02*
X0575803Y0371079D01*
X0542339Y0371079D02*
X0530528Y0371079D01*
X0435646Y0371079D02*
X0423835Y0371079D01*
X0390370Y0371079D02*
X0378559Y0371079D01*
X0283677Y0371079D02*
X0271866Y0371079D01*
X0238402Y0371079D02*
X0226591Y0371079D01*
X0131709Y0371079D02*
X0119898Y0371079D01*
X0086433Y0371079D02*
X0074622Y0371079D01*
X0119898Y0497063D02*
X0131709Y0497063D01*
X0150606Y0560055D02*
X0162417Y0560055D01*
X0131709Y0623047D02*
X0119898Y0623047D01*
X0086433Y0623047D02*
X0074622Y0623047D01*
X0150606Y0749031D02*
X0150606Y0772654D01*
X0152575Y0774622D01*
X0155331Y0774622D01*
X0150606Y0749031D02*
X0162417Y0749031D01*
X0226591Y0623047D02*
X0238402Y0623047D01*
X0271866Y0623047D02*
X0283677Y0623047D01*
X0302575Y0560055D02*
X0314386Y0560055D01*
X0283677Y0497063D02*
X0271866Y0497063D01*
X0378559Y0623047D02*
X0390370Y0623047D01*
X0423835Y0623047D02*
X0435646Y0623047D01*
X0454543Y0560055D02*
X0466354Y0560055D01*
X0435646Y0497063D02*
X0423835Y0497063D01*
X0530528Y0623047D02*
X0542339Y0623047D01*
X0575803Y0623047D02*
X0587614Y0623047D01*
X0606512Y0560055D02*
X0618323Y0560055D01*
X0587614Y0497063D02*
X0575803Y0497063D01*
X0682496Y0623047D02*
X0694307Y0623047D01*
X0727772Y0623047D02*
X0739583Y0623047D01*
X0758480Y0560055D02*
X0770291Y0560055D01*
X0739583Y0497063D02*
X0727772Y0497063D01*
X0758480Y0749031D02*
X0758480Y0772654D01*
X0760449Y0774622D01*
X0763205Y0774622D01*
X0758480Y0749031D02*
X0770291Y0749031D01*
X0618323Y0749031D02*
X0606512Y0749031D01*
X0606512Y0772654D01*
X0608480Y0774622D01*
X0611236Y0774622D01*
X0466354Y0749031D02*
X0454543Y0749031D01*
X0454543Y0772654D01*
X0456512Y0774622D01*
X0459268Y0774622D01*
X0314386Y0749031D02*
X0302575Y0749031D01*
X0302575Y0772654D01*
X0304543Y0774622D01*
X0307299Y0774622D01*
X0283677Y0245094D02*
X0271866Y0245094D01*
X0238402Y0245094D02*
X0226591Y0245094D01*
X0131709Y0245094D02*
X0119898Y0245094D01*
X0086433Y0245094D02*
X0074622Y0245094D01*
X0378559Y0245094D02*
X0390370Y0245094D01*
X0423835Y0245094D02*
X0435646Y0245094D01*
X0530528Y0245094D02*
X0542339Y0245094D01*
X0575803Y0245094D02*
X0587614Y0245094D01*
M02*
