G75*
%MOIN*%
%OFA0B0*%
%FSLAX25Y25*%
%IPPOS*%
%LPD*%
%AMOC8*
5,1,8,0,0,1.08239X$1,22.5*
%
%ADD10OC8,0.05937*%
%ADD11C,0.07600*%
%ADD12C,0.08600*%
%ADD13C,0.05000*%
D10*
X0043913Y0774622D03*
X0079346Y0774622D03*
X0090449Y0774622D03*
X0119898Y0774622D03*
X0155331Y0774622D03*
X0166433Y0774622D03*
X0195882Y0774622D03*
X0231315Y0774622D03*
X0242417Y0774622D03*
X0271866Y0774622D03*
X0307299Y0774622D03*
X0318402Y0774622D03*
X0347850Y0774622D03*
X0383283Y0774622D03*
X0394386Y0774622D03*
X0423835Y0774622D03*
X0459268Y0774622D03*
X0470370Y0774622D03*
X0499819Y0774622D03*
X0535252Y0774622D03*
X0546354Y0774622D03*
X0575803Y0774622D03*
X0611236Y0774622D03*
X0622339Y0774622D03*
X0651787Y0774622D03*
X0687220Y0774622D03*
X0698323Y0774622D03*
X0727772Y0774622D03*
X0763205Y0774622D03*
X0774307Y0774622D03*
D11*
X0770291Y0717535D03*
X0727772Y0654543D03*
X0694307Y0591551D03*
X0651787Y0654543D03*
X0618323Y0591551D03*
X0575803Y0654543D03*
X0542339Y0591551D03*
X0499819Y0654543D03*
X0466354Y0591551D03*
X0423835Y0654543D03*
X0390370Y0591551D03*
X0347850Y0654543D03*
X0314386Y0591551D03*
X0271866Y0654543D03*
X0238402Y0591551D03*
X0195882Y0654543D03*
X0162417Y0591551D03*
X0119898Y0654543D03*
X0086433Y0591551D03*
X0043913Y0654543D03*
X0086433Y0717535D03*
X0162417Y0717535D03*
X0238402Y0717535D03*
X0314386Y0717535D03*
X0390370Y0717535D03*
X0466354Y0717535D03*
X0542339Y0717535D03*
X0618323Y0717535D03*
X0694307Y0717535D03*
X0770291Y0591551D03*
X0727772Y0528559D03*
X0694307Y0465567D03*
X0727772Y0402575D03*
X0770291Y0465567D03*
X0770291Y0337614D03*
X0727772Y0276591D03*
X0694307Y0213598D03*
X0651787Y0276591D03*
X0618323Y0213598D03*
X0575803Y0276591D03*
X0542339Y0213598D03*
X0499819Y0276591D03*
X0466354Y0213598D03*
X0423835Y0276591D03*
X0390370Y0213598D03*
X0347850Y0276591D03*
X0314386Y0213598D03*
X0271866Y0276591D03*
X0238402Y0213598D03*
X0195882Y0276591D03*
X0162417Y0213598D03*
X0119898Y0276591D03*
X0086433Y0213598D03*
X0043913Y0276591D03*
X0086433Y0337614D03*
X0119898Y0402575D03*
X0086433Y0465567D03*
X0043913Y0402575D03*
X0162417Y0465567D03*
X0195882Y0402575D03*
X0238402Y0465567D03*
X0271866Y0402575D03*
X0314386Y0465567D03*
X0347850Y0402575D03*
X0390370Y0465567D03*
X0423835Y0402575D03*
X0466354Y0465567D03*
X0499819Y0402575D03*
X0542339Y0465567D03*
X0575803Y0402575D03*
X0618323Y0465567D03*
X0651787Y0402575D03*
X0618323Y0337614D03*
X0542339Y0337614D03*
X0466354Y0337614D03*
X0390370Y0337614D03*
X0314386Y0337614D03*
X0238402Y0337614D03*
X0162417Y0337614D03*
X0195882Y0150606D03*
X0162417Y0087614D03*
X0119898Y0150606D03*
X0086433Y0087614D03*
X0043913Y0150606D03*
X0238402Y0087614D03*
X0271866Y0150606D03*
X0314386Y0087614D03*
X0347850Y0150606D03*
X0390370Y0087614D03*
X0423835Y0150606D03*
X0466354Y0087614D03*
X0499819Y0150606D03*
X0542339Y0087614D03*
X0575803Y0150606D03*
X0618323Y0087614D03*
X0651787Y0150606D03*
X0694307Y0087614D03*
X0727772Y0150606D03*
X0770291Y0087614D03*
X0770291Y0213598D03*
X0694307Y0337614D03*
X0651787Y0528559D03*
X0575803Y0528559D03*
X0499819Y0528559D03*
X0423835Y0528559D03*
X0347850Y0528559D03*
X0271866Y0528559D03*
X0195882Y0528559D03*
X0119898Y0528559D03*
X0043913Y0528559D03*
D12*
X0043913Y0402575D01*
X0043913Y0276591D01*
X0043913Y0150606D01*
X0043913Y0036433D01*
X0086433Y0087614D02*
X0086433Y0213598D01*
X0086433Y0337614D01*
X0086433Y0465567D01*
X0086433Y0591551D01*
X0086433Y0717535D01*
X0086433Y0758480D01*
X0090370Y0762417D01*
X0090370Y0774543D01*
X0090449Y0774622D01*
X0119898Y0774622D02*
X0119898Y0654543D01*
X0119898Y0528559D01*
X0119898Y0402575D01*
X0119898Y0276591D01*
X0119898Y0150606D01*
X0119898Y0036433D01*
X0162417Y0087614D02*
X0162417Y0213598D01*
X0162417Y0337614D01*
X0162417Y0465567D01*
X0162417Y0591551D01*
X0162417Y0717535D01*
X0162417Y0758480D01*
X0166354Y0762417D01*
X0166354Y0774543D01*
X0166433Y0774622D01*
X0195882Y0774622D02*
X0195882Y0654543D01*
X0195882Y0528559D01*
X0195882Y0402575D01*
X0195882Y0276591D01*
X0195882Y0150606D01*
X0195882Y0036433D01*
X0238402Y0087614D02*
X0238402Y0213598D01*
X0238402Y0337614D01*
X0238402Y0465567D01*
X0238402Y0591551D01*
X0238402Y0717535D01*
X0238402Y0758480D01*
X0242339Y0762417D01*
X0242339Y0774543D01*
X0242417Y0774622D01*
X0271866Y0774622D02*
X0271866Y0654543D01*
X0271866Y0528559D01*
X0271866Y0402575D01*
X0271866Y0276591D01*
X0271866Y0150606D01*
X0271866Y0036433D01*
X0314386Y0087614D02*
X0314386Y0213598D01*
X0314386Y0337614D01*
X0314386Y0465567D01*
X0314386Y0591551D01*
X0314386Y0717535D01*
X0314386Y0758480D01*
X0318323Y0762417D01*
X0318323Y0774543D01*
X0318402Y0774622D01*
X0347850Y0774622D02*
X0347850Y0654543D01*
X0347850Y0528559D01*
X0347850Y0402575D01*
X0347850Y0276591D01*
X0347850Y0150606D01*
X0347850Y0036433D01*
X0390370Y0087614D02*
X0390370Y0213598D01*
X0390370Y0337614D01*
X0390370Y0465567D01*
X0390370Y0591551D01*
X0390370Y0717535D01*
X0390370Y0758480D01*
X0394307Y0762417D01*
X0394307Y0774543D01*
X0394386Y0774622D01*
X0423835Y0774622D02*
X0423835Y0654543D01*
X0423835Y0528559D01*
X0423835Y0402575D01*
X0423835Y0276591D01*
X0423835Y0150606D01*
X0423835Y0036433D01*
X0466354Y0087614D02*
X0466354Y0213598D01*
X0466354Y0337614D01*
X0466354Y0465567D01*
X0466354Y0591551D01*
X0466354Y0717535D01*
X0466354Y0758480D01*
X0470291Y0762417D01*
X0470291Y0774543D01*
X0470370Y0774622D01*
X0499819Y0774622D02*
X0499819Y0654543D01*
X0499819Y0528559D01*
X0499819Y0402575D01*
X0499819Y0276591D01*
X0499819Y0150606D01*
X0499819Y0036433D01*
X0542339Y0087614D02*
X0542339Y0213598D01*
X0542339Y0337614D01*
X0542339Y0465567D01*
X0542339Y0591551D01*
X0542339Y0717535D01*
X0542339Y0758480D01*
X0546276Y0762417D01*
X0546276Y0774543D01*
X0546354Y0774622D01*
X0575803Y0774622D02*
X0575803Y0654543D01*
X0575803Y0528559D01*
X0575803Y0402575D01*
X0575803Y0276591D01*
X0575803Y0150606D01*
X0575803Y0036433D01*
X0618323Y0087614D02*
X0618323Y0213598D01*
X0618323Y0337614D01*
X0618323Y0465567D01*
X0618323Y0591551D01*
X0618323Y0717535D01*
X0618323Y0758480D01*
X0622260Y0762417D01*
X0622260Y0774543D01*
X0622339Y0774622D01*
X0651787Y0774622D02*
X0651787Y0654543D01*
X0651787Y0528559D01*
X0651787Y0402575D01*
X0651787Y0276591D01*
X0651787Y0150606D01*
X0651787Y0036433D01*
X0694307Y0087614D02*
X0694307Y0213598D01*
X0694307Y0337614D01*
X0694307Y0465567D01*
X0694307Y0591551D01*
X0694307Y0717535D01*
X0694307Y0758480D01*
X0698244Y0762417D01*
X0698244Y0774543D01*
X0698323Y0774622D01*
X0727772Y0774622D02*
X0727772Y0654543D01*
X0727772Y0528559D01*
X0727772Y0402575D01*
X0727772Y0276591D01*
X0727772Y0150606D01*
X0727772Y0036433D01*
X0770291Y0087614D02*
X0770291Y0213598D01*
X0770291Y0337614D01*
X0770291Y0465567D01*
X0770291Y0591551D01*
X0770291Y0717535D01*
X0770291Y0758480D01*
X0774228Y0762417D01*
X0774228Y0774543D01*
X0774307Y0774622D01*
X0043913Y0774622D02*
X0043913Y0654543D01*
X0043913Y0528559D01*
D13*
X0043913Y0036433D03*
X0119898Y0036433D03*
X0195882Y0036433D03*
X0271866Y0036433D03*
X0347850Y0036433D03*
X0423835Y0036433D03*
X0499819Y0036433D03*
X0575803Y0036433D03*
X0651787Y0036433D03*
X0727772Y0036433D03*
M02*
