%
M48
M72
T01C0.02362
T02C0.03937
%
T01
X36827Y27772
X41551Y27772
X46276Y27772
X51000Y27772
X55724Y27772
X43913Y36433
X75016Y27772
X79740Y27772
X84465Y27772
X89189Y27772
X93913Y27772
X112811Y27772
X117535Y27772
X122260Y27772
X126984Y27772
X131709Y27772
X119898Y36433
X151000Y27772
X155724Y27772
X160449Y27772
X165173Y27772
X169898Y27772
X188795Y27772
X193520Y27772
X198244Y27772
X202969Y27772
X207693Y27772
X195882Y36433
X226984Y27772
X231709Y27772
X236433Y27772
X241157Y27772
X245882Y27772
X264780Y27772
X269504Y27772
X274228Y27772
X278953Y27772
X283677Y27772
X271866Y36433
X302969Y27772
X307693Y27772
X312417Y27772
X317142Y27772
X321866Y27772
X340764Y27772
X345488Y27772
X350213Y27772
X354937Y27772
X359661Y27772
X347850Y36433
X378953Y27772
X383677Y27772
X388402Y27772
X393126Y27772
X397850Y27772
X416748Y27772
X421472Y27772
X426197Y27772
X430921Y27772
X435646Y27772
X423835Y36433
X454937Y27772
X459661Y27772
X464386Y27772
X469110Y27772
X473835Y27772
X492732Y27772
X497457Y27772
X502181Y27772
X506906Y27772
X511630Y27772
X499819Y36433
X530921Y27772
X535646Y27772
X540370Y27772
X545094Y27772
X549819Y27772
X568717Y27772
X573441Y27772
X578165Y27772
X582890Y27772
X587614Y27772
X575803Y36433
X606906Y27772
X611630Y27772
X616354Y27772
X621079Y27772
X625803Y27772
X644701Y27772
X649425Y27772
X654150Y27772
X658874Y27772
X663598Y27772
X651787Y36433
X682890Y27772
X687614Y27772
X692339Y27772
X697063Y27772
X701787Y27772
X720685Y27772
X725409Y27772
X730134Y27772
X734858Y27772
X739583Y27772
X727772Y36433
X758874Y27772
X763598Y27772
X768323Y27772
X773047Y27772
X777772Y27772
X770291Y87614
X727772Y150606
X694307Y87614
X651787Y150606
X618323Y87614
X575803Y150606
X542339Y87614
X499819Y150606
X466354Y87614
X423835Y150606
X390370Y87614
X347850Y150606
X314386Y87614
X271866Y150606
X238402Y87614
X195882Y150606
X162417Y87614
X119898Y150606
X86433Y87614
X43913Y150606
X86433Y213598
X119898Y276591
X162417Y213598
X195882Y276591
X238402Y213598
X271866Y276591
X314386Y213598
X347850Y276591
X390370Y213598
X423835Y276591
X466354Y213598
X499819Y276591
X542339Y213598
X575803Y276591
X618323Y213598
X651787Y276591
X694307Y213598
X727772Y276591
X770291Y213598
X770291Y337614
X787220Y398244
X787220Y402969
X787220Y407693
X749031Y407693
X749031Y402969
X749031Y398244
X727772Y402575
X711236Y402969
X711236Y407693
X711236Y398244
X673047Y398244
X673047Y402969
X673047Y407693
X651787Y402575
X635252Y402969
X635252Y407693
X635252Y398244
X597063Y398244
X597063Y402969
X597063Y407693
X575803Y402575
X559268Y402969
X559268Y407693
X559268Y398244
X521079Y398244
X521079Y402969
X521079Y407693
X499819Y402575
X483283Y402969
X483283Y407693
X483283Y398244
X445094Y398244
X445094Y402969
X445094Y407693
X423835Y402575
X407299Y402969
X407299Y407693
X407299Y398244
X369110Y398244
X369110Y402969
X369110Y407693
X347850Y402575
X331315Y402969
X331315Y407693
X331315Y398244
X293126Y398244
X293126Y402969
X293126Y407693
X271866Y402575
X255331Y402969
X255331Y407693
X255331Y398244
X217142Y398244
X217142Y402969
X217142Y407693
X195882Y402575
X179346Y402969
X179346Y407693
X179346Y398244
X141157Y398244
X141157Y402969
X141157Y407693
X119898Y402575
X103362Y402969
X103362Y407693
X103362Y398244
X65173Y398244
X65173Y402969
X65173Y407693
X43913Y402575
X26984Y402969
X26984Y407693
X26984Y398244
X86433Y337614
X43913Y276591
X162417Y337614
X238402Y337614
X314386Y337614
X390370Y337614
X466354Y337614
X542339Y337614
X618323Y337614
X694307Y337614
X694307Y465567
X727772Y528559
X694307Y591551
X727772Y654543
X770291Y591551
X770291Y717535
X767929Y790370
X763205Y790370
X758480Y790370
X772654Y790370
X777378Y790370
X739976Y790370
X735252Y790370
X730528Y790370
X725803Y790370
X721079Y790370
X701394Y790370
X696669Y790370
X691945Y790370
X687220Y790370
X682496Y790370
X663992Y790370
X659268Y790370
X654543Y790370
X649819Y790370
X645094Y790370
X625409Y790370
X620685Y790370
X615961Y790370
X611236Y790370
X606512Y790370
X588008Y790370
X583283Y790370
X578559Y790370
X573835Y790370
X569110Y790370
X549425Y790370
X544701Y790370
X539976Y790370
X535252Y790370
X530528Y790370
X512024Y790370
X507299Y790370
X502575Y790370
X497850Y790370
X493126Y790370
X473441Y790370
X468717Y790370
X463992Y790370
X459268Y790370
X454543Y790370
X436039Y790370
X431315Y790370
X426591Y790370
X421866Y790370
X417142Y790370
X397457Y790370
X392732Y790370
X388008Y790370
X383283Y790370
X378559Y790370
X360055Y790370
X355331Y790370
X350606Y790370
X345882Y790370
X341157Y790370
X321472Y790370
X316748Y790370
X312024Y790370
X307299Y790370
X302575Y790370
X284071Y790370
X279346Y790370
X274622Y790370
X269898Y790370
X265173Y790370
X245488Y790370
X240764Y790370
X236039Y790370
X231315Y790370
X226591Y790370
X208087Y790370
X203362Y790370
X198638Y790370
X193913Y790370
X189189Y790370
X169504Y790370
X164780Y790370
X160055Y790370
X155331Y790370
X150606Y790370
X132102Y790370
X127378Y790370
X122654Y790370
X117929Y790370
X113205Y790370
X93520Y790370
X88795Y790370
X84071Y790370
X79346Y790370
X74622Y790370
X56118Y790370
X51394Y790370
X46669Y790370
X41945Y790370
X37220Y790370
X86433Y717535
X119898Y654543
X86433Y591551
X43913Y654543
X162417Y591551
X195882Y654543
X238402Y591551
X271866Y654543
X314386Y591551
X347850Y654543
X390370Y591551
X423835Y654543
X466354Y591551
X499819Y654543
X542339Y591551
X575803Y654543
X618323Y591551
X651787Y654543
X618323Y717535
X542339Y717535
X466354Y717535
X390370Y717535
X314386Y717535
X238402Y717535
X162417Y717535
X195882Y528559
X162417Y465567
X119898Y528559
X86433Y465567
X43913Y528559
X238402Y465567
X271866Y528559
X314386Y465567
X347850Y528559
X390370Y465567
X423835Y528559
X466354Y465567
X499819Y528559
X542339Y465567
X575803Y528559
X618323Y465567
X651787Y528559
X770291Y465567
X694307Y717535
T02
X698323Y774622
X687220Y774622
X651787Y774622
X622339Y774622
X611236Y774622
X575803Y774622
X546354Y774622
X535252Y774622
X499819Y774622
X470370Y774622
X459268Y774622
X423835Y774622
X394386Y774622
X383283Y774622
X347850Y774622
X318402Y774622
X307299Y774622
X271866Y774622
X242417Y774622
X231315Y774622
X195882Y774622
X166433Y774622
X155331Y774622
X119898Y774622
X90449Y774622
X79346Y774622
X43913Y774622
X727772Y774622
X763205Y774622
X774307Y774622
M30
