G75*
%MOIN*%
%OFA0B0*%
%FSLAX25Y25*%
%IPPOS*%
%LPD*%
%AMOC8*
5,1,8,0,0,1.08239X$1,22.5*
%
%ADD10C,0.09900*%
%ADD11OC8,0.05200*%
%ADD12C,0.07000*%
%ADD13OC8,0.07000*%
%ADD14R,0.05150X0.05150*%
%ADD15C,0.05150*%
%ADD16C,0.06300*%
%ADD17OC8,0.06300*%
%ADD18R,0.05937X0.05937*%
%ADD19R,0.12661X0.12661*%
%ADD20C,0.06000*%
%ADD21C,0.07000*%
%ADD22C,0.10000*%
%ADD23OC8,0.10000*%
%ADD24C,0.05200*%
%ADD25C,0.01000*%
%ADD26C,0.01600*%
%ADD27C,0.04000*%
D10*
X0025050Y0123499D02*
X0034950Y0123499D01*
X0034950Y0139099D02*
X0025050Y0139099D01*
X0025050Y0169812D02*
X0034950Y0169812D01*
X0034950Y0185412D02*
X0025050Y0185412D01*
X0025050Y0201012D02*
X0034950Y0201012D01*
X0332570Y0115792D02*
X0342470Y0115792D01*
X0342470Y0100192D02*
X0332570Y0100192D01*
D11*
X0201299Y0166339D03*
X0189882Y0166339D03*
X0189882Y0206339D03*
X0201299Y0206339D03*
X0062874Y0186063D03*
X0062874Y0156063D03*
X0062717Y0139409D03*
X0046969Y0108799D03*
X0051969Y0101299D03*
X0062717Y0099409D03*
X0041969Y0101299D03*
X0026969Y0082402D03*
X0026969Y0072165D03*
X0026944Y0061899D03*
X0026773Y0051654D03*
X0066773Y0051654D03*
X0066944Y0061899D03*
X0066969Y0072165D03*
X0066969Y0082402D03*
D12*
X0092047Y0086299D03*
X0092047Y0076299D03*
X0092047Y0066299D03*
X0092047Y0056299D03*
X0152047Y0056299D03*
X0152047Y0066299D03*
X0152047Y0076299D03*
X0152047Y0086299D03*
X0152047Y0096299D03*
X0152047Y0106299D03*
X0152047Y0116299D03*
X0152047Y0126299D03*
X0152047Y0136299D03*
X0152047Y0146299D03*
X0152047Y0156299D03*
X0152047Y0166299D03*
X0152047Y0176299D03*
X0152047Y0186299D03*
X0152047Y0196299D03*
X0092047Y0196299D03*
X0092047Y0186299D03*
X0092047Y0176299D03*
X0092047Y0166299D03*
X0092047Y0156299D03*
X0092047Y0146299D03*
X0092047Y0136299D03*
X0092047Y0126299D03*
X0092047Y0116299D03*
X0092047Y0106299D03*
X0092047Y0096299D03*
D13*
X0111947Y0195899D03*
X0121947Y0195899D03*
X0131947Y0195899D03*
X0131947Y0205899D03*
X0121947Y0205899D03*
X0111947Y0205899D03*
D14*
X0315482Y0072972D03*
X0315482Y0042972D03*
D15*
X0305482Y0042972D03*
X0305482Y0052972D03*
X0315482Y0052972D03*
X0315482Y0062972D03*
X0305482Y0062972D03*
X0305482Y0072972D03*
D16*
X0282520Y0076614D03*
X0282165Y0027638D03*
D17*
X0292165Y0027638D03*
X0292520Y0076614D03*
D18*
X0218599Y0067533D03*
X0198913Y0067533D03*
X0198913Y0010447D03*
X0208756Y0010447D03*
X0218599Y0010447D03*
D19*
X0232772Y0039974D03*
X0184740Y0039974D03*
D20*
X0168079Y0056496D02*
X0162079Y0056496D01*
X0162079Y0066496D02*
X0168079Y0066496D01*
X0168079Y0076496D02*
X0162079Y0076496D01*
X0162079Y0086496D02*
X0168079Y0086496D01*
X0168079Y0096496D02*
X0162079Y0096496D01*
X0162079Y0106496D02*
X0168079Y0106496D01*
X0168079Y0116496D02*
X0162079Y0116496D01*
X0162079Y0126496D02*
X0168079Y0126496D01*
X0168079Y0136496D02*
X0162079Y0136496D01*
X0162079Y0146496D02*
X0168079Y0146496D01*
X0168079Y0156496D02*
X0162079Y0156496D01*
X0162079Y0166496D02*
X0168079Y0166496D01*
X0168079Y0176496D02*
X0162079Y0176496D01*
X0162079Y0186496D02*
X0168079Y0186496D01*
X0168079Y0196496D02*
X0162079Y0196496D01*
X0216803Y0197953D02*
X0222803Y0197953D01*
X0222803Y0187953D02*
X0216803Y0187953D01*
X0216803Y0177953D02*
X0222803Y0177953D01*
X0222803Y0167953D02*
X0216803Y0167953D01*
X0216803Y0157953D02*
X0222803Y0157953D01*
X0222803Y0147953D02*
X0216803Y0147953D01*
X0082252Y0146496D02*
X0076252Y0146496D01*
X0076252Y0136496D02*
X0082252Y0136496D01*
X0082252Y0126496D02*
X0076252Y0126496D01*
X0076252Y0116496D02*
X0082252Y0116496D01*
X0082252Y0106496D02*
X0076252Y0106496D01*
X0076252Y0096496D02*
X0082252Y0096496D01*
X0082252Y0086496D02*
X0076252Y0086496D01*
X0076252Y0076496D02*
X0082252Y0076496D01*
X0082252Y0066496D02*
X0076252Y0066496D01*
X0076252Y0056496D02*
X0082252Y0056496D01*
X0014535Y0060827D02*
X0008535Y0060827D01*
X0008535Y0070827D02*
X0014535Y0070827D01*
X0014535Y0080827D02*
X0008535Y0080827D01*
X0008535Y0090827D02*
X0014535Y0090827D01*
X0014535Y0100827D02*
X0008535Y0100827D01*
X0076252Y0156496D02*
X0082252Y0156496D01*
X0082252Y0166496D02*
X0076252Y0166496D01*
X0076252Y0176496D02*
X0082252Y0176496D01*
X0082252Y0186496D02*
X0076252Y0186496D01*
X0076252Y0196496D02*
X0082252Y0196496D01*
X0312835Y0020441D02*
X0312835Y0014441D01*
X0322835Y0014441D02*
X0322835Y0020441D01*
D21*
X0315787Y0111972D02*
X0315787Y0118972D01*
X0275787Y0118972D02*
X0275787Y0111972D01*
D22*
X0239724Y0107205D03*
D23*
X0259724Y0107205D03*
D24*
X0178119Y0163499D02*
X0178119Y0168699D01*
X0178119Y0203499D02*
X0178119Y0208699D01*
D25*
X0201999Y0170499D02*
X0219099Y0187599D01*
X0219803Y0187953D01*
X0201999Y0170499D02*
X0201999Y0166899D01*
X0201299Y0166339D01*
X0201999Y0165999D01*
X0201999Y0144399D01*
X0238899Y0107499D01*
X0239724Y0107205D01*
X0292520Y0076614D02*
X0292899Y0076899D01*
X0307299Y0076899D01*
X0310899Y0073299D01*
X0315399Y0073299D01*
X0315482Y0072972D01*
X0316299Y0072399D01*
X0319899Y0068799D01*
X0319899Y0039999D01*
X0312699Y0032799D01*
X0312699Y0027399D01*
X0292899Y0027399D01*
X0292165Y0027638D01*
X0300999Y0032799D02*
X0248799Y0032799D01*
X0221799Y0005799D01*
X0159699Y0005799D01*
X0093999Y0071499D01*
X0066999Y0071499D01*
X0066969Y0072165D01*
X0066099Y0072399D01*
X0052599Y0085899D01*
X0052599Y0101199D01*
X0051969Y0101299D01*
X0053499Y0109299D02*
X0053499Y0139899D01*
X0075099Y0161499D01*
X0126399Y0161499D01*
X0151599Y0136299D01*
X0152047Y0136299D01*
X0169599Y0161499D02*
X0129099Y0161499D01*
X0104799Y0185799D01*
X0092199Y0185799D01*
X0092047Y0186299D01*
X0078699Y0195699D02*
X0079252Y0196496D01*
X0078699Y0195699D02*
X0042699Y0159699D01*
X0042699Y0102099D01*
X0041969Y0101299D01*
X0041799Y0101199D01*
X0027399Y0086799D01*
X0027399Y0083199D01*
X0026969Y0082402D01*
X0022899Y0084999D02*
X0022899Y0066099D01*
X0026499Y0062499D01*
X0026944Y0061899D01*
X0026969Y0072165D02*
X0027399Y0072399D01*
X0039099Y0084099D01*
X0065199Y0057999D01*
X0066099Y0057999D01*
X0076899Y0047199D01*
X0039099Y0084099D02*
X0046299Y0091299D01*
X0046299Y0108399D01*
X0046969Y0108799D01*
X0030000Y0123499D02*
X0029199Y0122799D01*
X0029199Y0091299D01*
X0022899Y0084999D01*
X0019299Y0088599D02*
X0012099Y0081399D01*
X0011535Y0080827D01*
X0019299Y0088599D02*
X0019299Y0102999D01*
X0018399Y0103899D01*
X0018399Y0141699D01*
X0029199Y0152499D01*
X0029199Y0169599D01*
X0030000Y0169812D01*
X0030000Y0201012D02*
X0030099Y0201099D01*
X0092047Y0156299D02*
X0092199Y0156099D01*
X0147099Y0101199D01*
X0173199Y0101199D01*
X0218199Y0056199D01*
X0218199Y0011199D01*
X0218599Y0010447D01*
X0208756Y0010447D02*
X0208299Y0011199D01*
X0199299Y0020199D01*
X0199299Y0066999D01*
X0198913Y0067533D01*
X0156999Y0052599D02*
X0156999Y0088599D01*
X0154299Y0091299D01*
X0147099Y0091299D01*
X0092199Y0146199D01*
X0092047Y0146299D01*
X0092047Y0136299D02*
X0092199Y0136299D01*
X0137199Y0091299D01*
X0151599Y0086799D02*
X0152047Y0086299D01*
X0151599Y0086799D02*
X0119199Y0086799D01*
X0094899Y0111099D01*
X0090399Y0111099D01*
X0086799Y0114699D01*
X0086799Y0118299D01*
X0083199Y0121899D01*
X0074199Y0121899D01*
X0063399Y0132699D01*
X0063399Y0138999D01*
X0062717Y0139409D01*
X0169599Y0161499D02*
X0259599Y0071499D01*
X0293799Y0071499D01*
X0294699Y0072399D01*
X0304599Y0072399D01*
X0305482Y0072972D01*
X0310899Y0042699D02*
X0300999Y0032799D01*
X0312699Y0027399D02*
X0322599Y0017499D01*
X0322835Y0017441D01*
X0315399Y0042699D02*
X0310899Y0042699D01*
X0315399Y0042699D02*
X0315482Y0042972D01*
X0198913Y0010447D02*
X0198399Y0011199D01*
X0156999Y0052599D01*
D26*
X0026973Y0006301D02*
X0026772Y0006099D01*
X0156429Y0006099D01*
X0097147Y0065381D01*
X0097147Y0065285D01*
X0096371Y0063410D01*
X0094936Y0061976D01*
X0093303Y0061299D01*
X0094936Y0060623D01*
X0096371Y0059188D01*
X0097147Y0057314D01*
X0097147Y0055285D01*
X0096371Y0053410D01*
X0094936Y0051976D01*
X0093062Y0051199D01*
X0091033Y0051199D01*
X0089158Y0051976D01*
X0087724Y0053410D01*
X0086947Y0055285D01*
X0086947Y0057314D01*
X0087724Y0059188D01*
X0089158Y0060623D01*
X0090791Y0061299D01*
X0089158Y0061976D01*
X0087724Y0063410D01*
X0086947Y0065285D01*
X0086947Y0067314D01*
X0087724Y0069188D01*
X0087935Y0069399D01*
X0085854Y0069399D01*
X0086152Y0069102D01*
X0086852Y0067411D01*
X0086852Y0065581D01*
X0086152Y0063890D01*
X0084858Y0062596D01*
X0083167Y0061896D01*
X0075337Y0061896D01*
X0073646Y0062596D01*
X0072352Y0063890D01*
X0071652Y0065581D01*
X0071652Y0067411D01*
X0072352Y0069102D01*
X0072650Y0069399D01*
X0070142Y0069399D01*
X0068708Y0067965D01*
X0065229Y0067965D01*
X0062769Y0070426D01*
X0062769Y0072760D01*
X0050499Y0085029D01*
X0050499Y0097099D01*
X0050229Y0097099D01*
X0048399Y0098929D01*
X0048399Y0090429D01*
X0042069Y0084099D01*
X0062744Y0063424D01*
X0062744Y0063639D01*
X0065205Y0066099D01*
X0068684Y0066099D01*
X0071144Y0063639D01*
X0071144Y0060160D01*
X0069026Y0058042D01*
X0071768Y0055300D01*
X0071652Y0055581D01*
X0071652Y0057411D01*
X0072352Y0059102D01*
X0073646Y0060396D01*
X0075337Y0061096D01*
X0083167Y0061096D01*
X0084858Y0060396D01*
X0086152Y0059102D01*
X0086852Y0057411D01*
X0086852Y0055581D01*
X0086152Y0053890D01*
X0084858Y0052596D01*
X0083167Y0051896D01*
X0075337Y0051896D01*
X0075056Y0052013D01*
X0076269Y0050799D01*
X0077615Y0050799D01*
X0078938Y0050251D01*
X0079951Y0049238D01*
X0080499Y0047915D01*
X0080499Y0046483D01*
X0079951Y0045160D01*
X0078938Y0044147D01*
X0077615Y0043599D01*
X0076183Y0043599D01*
X0074860Y0044147D01*
X0073847Y0045160D01*
X0073299Y0046483D01*
X0073299Y0047829D01*
X0070973Y0050155D01*
X0070973Y0049914D01*
X0068513Y0047454D01*
X0065034Y0047454D01*
X0062573Y0049914D01*
X0062573Y0053394D01*
X0065034Y0055854D01*
X0065274Y0055854D01*
X0065229Y0055899D01*
X0064329Y0055899D01*
X0039099Y0081129D01*
X0031168Y0073199D01*
X0031168Y0070426D01*
X0028708Y0067965D01*
X0025229Y0067965D01*
X0022769Y0070426D01*
X0022769Y0073905D01*
X0025229Y0076365D01*
X0028396Y0076365D01*
X0036999Y0084969D01*
X0038229Y0086199D01*
X0044199Y0092169D01*
X0044199Y0097590D01*
X0043708Y0097099D01*
X0040669Y0097099D01*
X0029499Y0085929D01*
X0029499Y0085811D01*
X0031168Y0084141D01*
X0031168Y0080662D01*
X0028708Y0078202D01*
X0025229Y0078202D01*
X0022769Y0080662D01*
X0022769Y0084141D01*
X0025229Y0086602D01*
X0025299Y0086602D01*
X0025299Y0087669D01*
X0037769Y0100138D01*
X0037769Y0103039D01*
X0040229Y0105499D01*
X0040599Y0105499D01*
X0040599Y0119784D01*
X0040574Y0119741D01*
X0040036Y0119039D01*
X0039410Y0118413D01*
X0038708Y0117875D01*
X0037942Y0117432D01*
X0037124Y0117094D01*
X0036270Y0116865D01*
X0035392Y0116749D01*
X0030800Y0116749D01*
X0030800Y0122699D01*
X0029200Y0122699D01*
X0029200Y0116749D01*
X0024608Y0116749D01*
X0023730Y0116865D01*
X0022876Y0117094D01*
X0022058Y0117432D01*
X0021292Y0117875D01*
X0020590Y0118413D01*
X0020499Y0118504D01*
X0020499Y0104769D01*
X0021399Y0103869D01*
X0021399Y0087729D01*
X0017769Y0084099D01*
X0018435Y0083432D01*
X0019135Y0081742D01*
X0019135Y0079912D01*
X0018435Y0078221D01*
X0017141Y0076927D01*
X0015450Y0076227D01*
X0007620Y0076227D01*
X0006099Y0076857D01*
X0006099Y0074797D01*
X0007620Y0075427D01*
X0015450Y0075427D01*
X0017141Y0074726D01*
X0018435Y0073432D01*
X0019135Y0071742D01*
X0019135Y0069912D01*
X0018435Y0068221D01*
X0017141Y0066927D01*
X0015450Y0066227D01*
X0007620Y0066227D01*
X0006099Y0066857D01*
X0006099Y0064973D01*
X0006693Y0065275D01*
X0007411Y0065509D01*
X0008158Y0065627D01*
X0011335Y0065627D01*
X0011335Y0061027D01*
X0011735Y0061027D01*
X0011735Y0065627D01*
X0014913Y0065627D01*
X0015659Y0065509D01*
X0016378Y0065275D01*
X0017051Y0064932D01*
X0017662Y0064488D01*
X0018197Y0063954D01*
X0018641Y0063343D01*
X0018984Y0062669D01*
X0019217Y0061951D01*
X0019335Y0061205D01*
X0019335Y0061027D01*
X0011736Y0061027D01*
X0011736Y0060627D01*
X0019335Y0060627D01*
X0019335Y0060449D01*
X0019217Y0059703D01*
X0018984Y0058984D01*
X0018641Y0058311D01*
X0018197Y0057700D01*
X0017662Y0057166D01*
X0017051Y0056721D01*
X0016378Y0056378D01*
X0015659Y0056145D01*
X0014913Y0056027D01*
X0011735Y0056027D01*
X0011735Y0060627D01*
X0011335Y0060627D01*
X0011335Y0056027D01*
X0008158Y0056027D01*
X0007411Y0056145D01*
X0006693Y0056378D01*
X0006099Y0056681D01*
X0006099Y0026772D01*
X0006301Y0026973D01*
X0006301Y0026973D01*
X0010427Y0029076D01*
X0010427Y0029076D01*
X0015000Y0029800D01*
X0015000Y0029800D01*
X0019573Y0029076D01*
X0019573Y0029076D01*
X0023699Y0026973D01*
X0023699Y0026973D01*
X0026973Y0023699D01*
X0026973Y0023699D01*
X0029076Y0019573D01*
X0029076Y0019573D01*
X0029800Y0015000D01*
X0029076Y0010427D01*
X0029076Y0010427D01*
X0026973Y0006301D01*
X0026973Y0006301D01*
X0027683Y0007693D02*
X0154835Y0007693D01*
X0153237Y0009292D02*
X0028497Y0009292D01*
X0029149Y0010890D02*
X0151638Y0010890D01*
X0150040Y0012489D02*
X0029402Y0012489D01*
X0029655Y0014087D02*
X0148441Y0014087D01*
X0146843Y0015686D02*
X0029691Y0015686D01*
X0029438Y0017284D02*
X0145244Y0017284D01*
X0143646Y0018883D02*
X0029185Y0018883D01*
X0028613Y0020481D02*
X0142047Y0020481D01*
X0140449Y0022080D02*
X0027799Y0022080D01*
X0026984Y0023678D02*
X0138850Y0023678D01*
X0137252Y0025277D02*
X0025396Y0025277D01*
X0023797Y0026875D02*
X0135653Y0026875D01*
X0134055Y0028474D02*
X0020754Y0028474D01*
X0009246Y0028474D02*
X0006099Y0028474D01*
X0006099Y0030072D02*
X0132456Y0030072D01*
X0130858Y0031671D02*
X0006099Y0031671D01*
X0006099Y0033269D02*
X0129259Y0033269D01*
X0127661Y0034868D02*
X0006099Y0034868D01*
X0006099Y0036466D02*
X0126062Y0036466D01*
X0124464Y0038065D02*
X0006099Y0038065D01*
X0006099Y0039663D02*
X0122865Y0039663D01*
X0121267Y0041262D02*
X0006099Y0041262D01*
X0006099Y0042861D02*
X0119668Y0042861D01*
X0118070Y0044459D02*
X0079250Y0044459D01*
X0080323Y0046058D02*
X0116471Y0046058D01*
X0114873Y0047656D02*
X0080499Y0047656D01*
X0079935Y0049255D02*
X0113274Y0049255D01*
X0111676Y0050853D02*
X0076215Y0050853D01*
X0073299Y0047656D02*
X0068715Y0047656D01*
X0070314Y0049255D02*
X0071874Y0049255D01*
X0073475Y0046058D02*
X0006099Y0046058D01*
X0006099Y0047656D02*
X0024549Y0047656D01*
X0024951Y0047254D02*
X0026773Y0047254D01*
X0026773Y0051654D01*
X0022373Y0051654D01*
X0022373Y0049832D01*
X0024951Y0047254D01*
X0026774Y0047254D02*
X0028596Y0047254D01*
X0031173Y0049832D01*
X0031173Y0051654D01*
X0026774Y0051654D01*
X0026774Y0051654D01*
X0031173Y0051654D01*
X0031173Y0053477D01*
X0028596Y0056054D01*
X0026774Y0056054D01*
X0026774Y0051654D01*
X0026774Y0047254D01*
X0026773Y0047656D02*
X0026774Y0047656D01*
X0026773Y0049255D02*
X0026774Y0049255D01*
X0026773Y0050853D02*
X0026774Y0050853D01*
X0026773Y0051654D02*
X0026774Y0051654D01*
X0026773Y0051654D01*
X0026773Y0051654D01*
X0022373Y0051654D01*
X0022373Y0053477D01*
X0024951Y0056054D01*
X0026773Y0056054D01*
X0026773Y0051654D01*
X0026773Y0052452D02*
X0026774Y0052452D01*
X0026773Y0054050D02*
X0026774Y0054050D01*
X0026773Y0055649D02*
X0026774Y0055649D01*
X0026944Y0057499D02*
X0026944Y0061899D01*
X0026944Y0061899D01*
X0022544Y0061899D01*
X0022544Y0060077D01*
X0025122Y0057499D01*
X0026944Y0057499D01*
X0028767Y0057499D01*
X0031344Y0060077D01*
X0031344Y0061899D01*
X0026944Y0061899D01*
X0026944Y0061899D01*
X0026944Y0057499D01*
X0026944Y0058846D02*
X0026944Y0058846D01*
X0026944Y0060444D02*
X0026944Y0060444D01*
X0026944Y0061899D02*
X0026944Y0061899D01*
X0022544Y0061899D01*
X0022544Y0063722D01*
X0025122Y0066299D01*
X0026944Y0066299D01*
X0026944Y0061899D01*
X0026944Y0061899D01*
X0026944Y0066299D01*
X0028767Y0066299D01*
X0031344Y0063722D01*
X0031344Y0061899D01*
X0026944Y0061899D01*
X0026944Y0062043D02*
X0026944Y0062043D01*
X0026944Y0063641D02*
X0026944Y0063641D01*
X0026944Y0065240D02*
X0026944Y0065240D01*
X0024062Y0065240D02*
X0016448Y0065240D01*
X0016926Y0066838D02*
X0053390Y0066838D01*
X0051792Y0068437D02*
X0029180Y0068437D01*
X0030778Y0070035D02*
X0050193Y0070035D01*
X0048595Y0071634D02*
X0031168Y0071634D01*
X0031202Y0073232D02*
X0046996Y0073232D01*
X0045398Y0074831D02*
X0032801Y0074831D01*
X0034399Y0076429D02*
X0043799Y0076429D01*
X0042201Y0078028D02*
X0035998Y0078028D01*
X0037596Y0079626D02*
X0040602Y0079626D01*
X0043345Y0082823D02*
X0052705Y0082823D01*
X0054304Y0081225D02*
X0044943Y0081225D01*
X0046542Y0079626D02*
X0055902Y0079626D01*
X0057501Y0078028D02*
X0048141Y0078028D01*
X0049739Y0076429D02*
X0059099Y0076429D01*
X0060698Y0074831D02*
X0051338Y0074831D01*
X0052936Y0073232D02*
X0062296Y0073232D01*
X0062769Y0071634D02*
X0054535Y0071634D01*
X0056133Y0070035D02*
X0063159Y0070035D01*
X0064757Y0068437D02*
X0057732Y0068437D01*
X0059330Y0066838D02*
X0071652Y0066838D01*
X0071793Y0065240D02*
X0069543Y0065240D01*
X0071142Y0063641D02*
X0072601Y0063641D01*
X0071144Y0062043D02*
X0074983Y0062043D01*
X0073763Y0060444D02*
X0071144Y0060444D01*
X0072246Y0058846D02*
X0069830Y0058846D01*
X0069821Y0057247D02*
X0071652Y0057247D01*
X0071652Y0055649D02*
X0071420Y0055649D01*
X0064828Y0055649D02*
X0029002Y0055649D01*
X0030600Y0054050D02*
X0063230Y0054050D01*
X0062573Y0052452D02*
X0031173Y0052452D01*
X0031173Y0050853D02*
X0062573Y0050853D01*
X0063233Y0049255D02*
X0030596Y0049255D01*
X0028998Y0047656D02*
X0064832Y0047656D01*
X0074548Y0044459D02*
X0006099Y0044459D01*
X0006099Y0049255D02*
X0022951Y0049255D01*
X0022373Y0050853D02*
X0006099Y0050853D01*
X0006099Y0052452D02*
X0022373Y0052452D01*
X0022947Y0054050D02*
X0006099Y0054050D01*
X0006099Y0055649D02*
X0024545Y0055649D01*
X0023775Y0058846D02*
X0018913Y0058846D01*
X0019335Y0060444D02*
X0022544Y0060444D01*
X0022544Y0062043D02*
X0019187Y0062043D01*
X0018424Y0063641D02*
X0022544Y0063641D01*
X0024757Y0068437D02*
X0018524Y0068437D01*
X0019135Y0070035D02*
X0023159Y0070035D01*
X0022769Y0071634D02*
X0019135Y0071634D01*
X0018518Y0073232D02*
X0022769Y0073232D01*
X0023694Y0074831D02*
X0016889Y0074831D01*
X0015939Y0076429D02*
X0028459Y0076429D01*
X0030058Y0078028D02*
X0018242Y0078028D01*
X0019017Y0079626D02*
X0023804Y0079626D01*
X0022769Y0081225D02*
X0019135Y0081225D01*
X0018687Y0082823D02*
X0022769Y0082823D01*
X0023049Y0084422D02*
X0018092Y0084422D01*
X0019690Y0086020D02*
X0024648Y0086020D01*
X0025299Y0087619D02*
X0021289Y0087619D01*
X0021399Y0089217D02*
X0026847Y0089217D01*
X0028446Y0090816D02*
X0021399Y0090816D01*
X0021399Y0092414D02*
X0030045Y0092414D01*
X0031643Y0094013D02*
X0021399Y0094013D01*
X0021399Y0095611D02*
X0033242Y0095611D01*
X0034840Y0097210D02*
X0021399Y0097210D01*
X0021399Y0098808D02*
X0036439Y0098808D01*
X0037769Y0100407D02*
X0021399Y0100407D01*
X0021399Y0102005D02*
X0037769Y0102005D01*
X0038334Y0103604D02*
X0021399Y0103604D01*
X0020499Y0105202D02*
X0039932Y0105202D01*
X0040599Y0106801D02*
X0020499Y0106801D01*
X0020499Y0108399D02*
X0040599Y0108399D01*
X0040599Y0109998D02*
X0020499Y0109998D01*
X0020499Y0111596D02*
X0040599Y0111596D01*
X0040599Y0113195D02*
X0020499Y0113195D01*
X0020499Y0114794D02*
X0040599Y0114794D01*
X0040599Y0116392D02*
X0020499Y0116392D01*
X0020499Y0117991D02*
X0021141Y0117991D01*
X0016299Y0117991D02*
X0006099Y0117991D01*
X0006099Y0119589D02*
X0016299Y0119589D01*
X0016299Y0121188D02*
X0006099Y0121188D01*
X0006099Y0122786D02*
X0016299Y0122786D01*
X0016299Y0124385D02*
X0006099Y0124385D01*
X0006099Y0125983D02*
X0016299Y0125983D01*
X0016299Y0127582D02*
X0006099Y0127582D01*
X0006099Y0129180D02*
X0016299Y0129180D01*
X0016299Y0130779D02*
X0006099Y0130779D01*
X0006099Y0132377D02*
X0016299Y0132377D01*
X0016299Y0133976D02*
X0006099Y0133976D01*
X0006099Y0135574D02*
X0016299Y0135574D01*
X0016299Y0137173D02*
X0006099Y0137173D01*
X0006099Y0138771D02*
X0016299Y0138771D01*
X0016299Y0140370D02*
X0006099Y0140370D01*
X0006099Y0141968D02*
X0016299Y0141968D01*
X0016299Y0142569D02*
X0016299Y0105075D01*
X0015450Y0105427D01*
X0007620Y0105427D01*
X0006099Y0104797D01*
X0006099Y0217953D01*
X0006301Y0217751D01*
X0010427Y0215649D01*
X0015000Y0214924D01*
X0019573Y0215649D01*
X0019573Y0215649D01*
X0023699Y0217751D01*
X0023699Y0217751D01*
X0026973Y0221025D01*
X0029076Y0225151D01*
X0029800Y0229724D01*
X0029076Y0234298D01*
X0026973Y0238424D01*
X0026811Y0238586D01*
X0341456Y0238586D01*
X0340507Y0237636D01*
X0338405Y0233510D01*
X0337680Y0228937D01*
X0338405Y0224364D01*
X0338405Y0224364D01*
X0340507Y0220238D01*
X0340507Y0220238D01*
X0343781Y0216964D01*
X0347907Y0214861D01*
X0352480Y0214137D01*
X0352480Y0214137D01*
X0357054Y0214861D01*
X0361145Y0216946D01*
X0361145Y0028907D01*
X0357723Y0030650D01*
X0353150Y0031375D01*
X0348576Y0030650D01*
X0344450Y0028548D01*
X0341176Y0025274D01*
X0339074Y0021148D01*
X0338350Y0016575D01*
X0338350Y0016575D01*
X0339074Y0012001D01*
X0341176Y0007876D01*
X0341176Y0007876D01*
X0342953Y0006099D01*
X0225069Y0006099D01*
X0249669Y0030699D01*
X0278509Y0030699D01*
X0278138Y0030328D01*
X0277415Y0028583D01*
X0277415Y0026693D01*
X0278138Y0024947D01*
X0279475Y0023611D01*
X0281221Y0022888D01*
X0283110Y0022888D01*
X0284856Y0023611D01*
X0286192Y0024947D01*
X0286915Y0026693D01*
X0286915Y0028583D01*
X0286192Y0030328D01*
X0285821Y0030699D01*
X0288509Y0030699D01*
X0287415Y0029605D01*
X0287415Y0025670D01*
X0290198Y0022888D01*
X0294133Y0022888D01*
X0296544Y0025299D01*
X0311829Y0025299D01*
X0312088Y0025041D01*
X0311920Y0025041D01*
X0310229Y0024341D01*
X0308935Y0023047D01*
X0308235Y0021356D01*
X0308235Y0013526D01*
X0308935Y0011835D01*
X0310229Y0010541D01*
X0311920Y0009841D01*
X0313750Y0009841D01*
X0315440Y0010541D01*
X0316734Y0011835D01*
X0317435Y0013526D01*
X0317435Y0019694D01*
X0318235Y0018894D01*
X0318235Y0013526D01*
X0318935Y0011835D01*
X0320229Y0010541D01*
X0321920Y0009841D01*
X0323750Y0009841D01*
X0325440Y0010541D01*
X0326734Y0011835D01*
X0327435Y0013526D01*
X0327435Y0021356D01*
X0326734Y0023047D01*
X0325440Y0024341D01*
X0323750Y0025041D01*
X0321920Y0025041D01*
X0320229Y0024341D01*
X0319478Y0023590D01*
X0314799Y0028269D01*
X0314799Y0031929D01*
X0320769Y0037899D01*
X0321999Y0039129D01*
X0321999Y0069669D01*
X0319657Y0072011D01*
X0319657Y0076210D01*
X0318720Y0077147D01*
X0312245Y0077147D01*
X0311307Y0076210D01*
X0311307Y0075861D01*
X0309399Y0077769D01*
X0308169Y0078999D01*
X0296852Y0078999D01*
X0294487Y0081364D01*
X0290552Y0081364D01*
X0287770Y0078582D01*
X0287770Y0074647D01*
X0288817Y0073599D01*
X0286448Y0073599D01*
X0286753Y0074020D01*
X0287107Y0074714D01*
X0287348Y0075455D01*
X0287470Y0076225D01*
X0287470Y0076614D01*
X0282520Y0076614D01*
X0282520Y0076614D01*
X0287470Y0076614D01*
X0287470Y0077004D01*
X0287348Y0077773D01*
X0287107Y0078514D01*
X0286753Y0079209D01*
X0286295Y0079839D01*
X0285744Y0080390D01*
X0285114Y0080848D01*
X0284420Y0081202D01*
X0283679Y0081442D01*
X0282909Y0081564D01*
X0282520Y0081564D01*
X0282520Y0076614D01*
X0282520Y0076614D01*
X0277570Y0076614D01*
X0277570Y0076225D01*
X0277692Y0075455D01*
X0277932Y0074714D01*
X0278286Y0074020D01*
X0278592Y0073599D01*
X0260469Y0073599D01*
X0171699Y0162369D01*
X0171078Y0162990D01*
X0171978Y0163890D01*
X0172679Y0165581D01*
X0172679Y0167411D01*
X0171978Y0169102D01*
X0170684Y0170396D01*
X0168994Y0171096D01*
X0161164Y0171096D01*
X0159473Y0170396D01*
X0158179Y0169102D01*
X0157479Y0167411D01*
X0157479Y0165581D01*
X0158179Y0163890D01*
X0158470Y0163599D01*
X0156449Y0163599D01*
X0157147Y0165285D01*
X0157147Y0167314D01*
X0156371Y0169188D01*
X0154936Y0170623D01*
X0153303Y0171299D01*
X0154936Y0171976D01*
X0156371Y0173410D01*
X0157147Y0175285D01*
X0157147Y0177314D01*
X0156371Y0179188D01*
X0154936Y0180623D01*
X0153303Y0181299D01*
X0154936Y0181976D01*
X0156371Y0183410D01*
X0157147Y0185285D01*
X0157147Y0187314D01*
X0156371Y0189188D01*
X0154936Y0190623D01*
X0153303Y0191299D01*
X0154936Y0191976D01*
X0156371Y0193410D01*
X0157147Y0195285D01*
X0157147Y0197314D01*
X0156371Y0199188D01*
X0154936Y0200623D01*
X0153062Y0201399D01*
X0151033Y0201399D01*
X0149158Y0200623D01*
X0147724Y0199188D01*
X0146947Y0197314D01*
X0146947Y0195285D01*
X0147724Y0193410D01*
X0149158Y0191976D01*
X0150791Y0191299D01*
X0149158Y0190623D01*
X0147724Y0189188D01*
X0146947Y0187314D01*
X0146947Y0185285D01*
X0147724Y0183410D01*
X0149158Y0181976D01*
X0150791Y0181299D01*
X0149158Y0180623D01*
X0147724Y0179188D01*
X0146947Y0177314D01*
X0146947Y0175285D01*
X0147724Y0173410D01*
X0149158Y0171976D01*
X0150791Y0171299D01*
X0149158Y0170623D01*
X0147724Y0169188D01*
X0146947Y0167314D01*
X0146947Y0165285D01*
X0147645Y0163599D01*
X0129969Y0163599D01*
X0106899Y0186669D01*
X0105669Y0187899D01*
X0096905Y0187899D01*
X0096371Y0189188D01*
X0094936Y0190623D01*
X0093303Y0191299D01*
X0094936Y0191976D01*
X0096371Y0193410D01*
X0097147Y0195285D01*
X0097147Y0197314D01*
X0096371Y0199188D01*
X0094936Y0200623D01*
X0093062Y0201399D01*
X0091033Y0201399D01*
X0089158Y0200623D01*
X0087724Y0199188D01*
X0086947Y0197314D01*
X0086947Y0195285D01*
X0087724Y0193410D01*
X0089158Y0191976D01*
X0090791Y0191299D01*
X0089158Y0190623D01*
X0087724Y0189188D01*
X0086947Y0187314D01*
X0086947Y0185285D01*
X0087724Y0183410D01*
X0089158Y0181976D01*
X0090791Y0181299D01*
X0089158Y0180623D01*
X0087724Y0179188D01*
X0086947Y0177314D01*
X0086947Y0175285D01*
X0087724Y0173410D01*
X0089158Y0171976D01*
X0090791Y0171299D01*
X0089158Y0170623D01*
X0087724Y0169188D01*
X0086947Y0167314D01*
X0086947Y0165285D01*
X0087645Y0163599D01*
X0085860Y0163599D01*
X0086152Y0163890D01*
X0086852Y0165581D01*
X0086852Y0167411D01*
X0086152Y0169102D01*
X0084858Y0170396D01*
X0083167Y0171096D01*
X0075337Y0171096D01*
X0073646Y0170396D01*
X0072352Y0169102D01*
X0071652Y0167411D01*
X0071652Y0165581D01*
X0072352Y0163890D01*
X0073436Y0162806D01*
X0072999Y0162369D01*
X0067074Y0156444D01*
X0067074Y0157803D01*
X0064614Y0160263D01*
X0061134Y0160263D01*
X0058674Y0157803D01*
X0058674Y0154323D01*
X0061134Y0151863D01*
X0062493Y0151863D01*
X0051399Y0140769D01*
X0051399Y0112290D01*
X0050447Y0111338D01*
X0050424Y0111283D01*
X0048708Y0112999D01*
X0045229Y0112999D01*
X0044799Y0112570D01*
X0044799Y0158829D01*
X0071652Y0185682D01*
X0071652Y0185581D01*
X0072352Y0183890D01*
X0073646Y0182596D01*
X0075337Y0181896D01*
X0083167Y0181896D01*
X0084858Y0182596D01*
X0086152Y0183890D01*
X0086852Y0185581D01*
X0086852Y0187411D01*
X0086152Y0189102D01*
X0084858Y0190396D01*
X0083167Y0191096D01*
X0077066Y0191096D01*
X0077866Y0191896D01*
X0083167Y0191896D01*
X0084858Y0192596D01*
X0086152Y0193890D01*
X0086852Y0195581D01*
X0086852Y0197411D01*
X0086152Y0199102D01*
X0084858Y0200396D01*
X0083167Y0201096D01*
X0075337Y0201096D01*
X0073646Y0200396D01*
X0072352Y0199102D01*
X0071652Y0197411D01*
X0071652Y0195581D01*
X0072352Y0193890D01*
X0073136Y0193106D01*
X0067074Y0187044D01*
X0067074Y0187803D01*
X0064614Y0190263D01*
X0061134Y0190263D01*
X0058674Y0187803D01*
X0058674Y0184323D01*
X0061134Y0181863D01*
X0061893Y0181863D01*
X0041829Y0161799D01*
X0040599Y0160569D01*
X0040599Y0142577D01*
X0040503Y0142809D01*
X0038660Y0144652D01*
X0036253Y0145649D01*
X0025319Y0145649D01*
X0031299Y0151629D01*
X0031299Y0163262D01*
X0036253Y0163262D01*
X0038660Y0164259D01*
X0040503Y0166102D01*
X0041500Y0168509D01*
X0041500Y0171115D01*
X0040503Y0173522D01*
X0038660Y0175365D01*
X0036253Y0176362D01*
X0023747Y0176362D01*
X0021340Y0175365D01*
X0019497Y0173522D01*
X0018500Y0171115D01*
X0018500Y0168509D01*
X0019497Y0166102D01*
X0021340Y0164259D01*
X0023747Y0163262D01*
X0027099Y0163262D01*
X0027099Y0153369D01*
X0017529Y0143799D01*
X0016299Y0142569D01*
X0017297Y0143567D02*
X0006099Y0143567D01*
X0006099Y0145165D02*
X0018895Y0145165D01*
X0020494Y0146764D02*
X0006099Y0146764D01*
X0006099Y0148362D02*
X0022092Y0148362D01*
X0023691Y0149961D02*
X0006099Y0149961D01*
X0006099Y0151559D02*
X0025289Y0151559D01*
X0026888Y0153158D02*
X0006099Y0153158D01*
X0006099Y0154756D02*
X0027099Y0154756D01*
X0027099Y0156355D02*
X0006099Y0156355D01*
X0006099Y0157953D02*
X0027099Y0157953D01*
X0027099Y0159552D02*
X0006099Y0159552D01*
X0006099Y0161150D02*
X0027099Y0161150D01*
X0027099Y0162749D02*
X0006099Y0162749D01*
X0006099Y0164347D02*
X0021251Y0164347D01*
X0019653Y0165946D02*
X0006099Y0165946D01*
X0006099Y0167544D02*
X0018900Y0167544D01*
X0018500Y0169143D02*
X0006099Y0169143D01*
X0006099Y0170741D02*
X0018500Y0170741D01*
X0019008Y0172340D02*
X0006099Y0172340D01*
X0006099Y0173938D02*
X0019914Y0173938D01*
X0021756Y0175537D02*
X0006099Y0175537D01*
X0006099Y0177135D02*
X0057166Y0177135D01*
X0055567Y0175537D02*
X0038244Y0175537D01*
X0040086Y0173938D02*
X0053969Y0173938D01*
X0052370Y0172340D02*
X0040992Y0172340D01*
X0041500Y0170741D02*
X0050772Y0170741D01*
X0049173Y0169143D02*
X0041500Y0169143D01*
X0041100Y0167544D02*
X0047575Y0167544D01*
X0045976Y0165946D02*
X0040347Y0165946D01*
X0038749Y0164347D02*
X0044378Y0164347D01*
X0042779Y0162749D02*
X0031299Y0162749D01*
X0031299Y0161150D02*
X0041180Y0161150D01*
X0040599Y0159552D02*
X0031299Y0159552D01*
X0031299Y0157953D02*
X0040599Y0157953D01*
X0040599Y0156355D02*
X0031299Y0156355D01*
X0031299Y0154756D02*
X0040599Y0154756D01*
X0040599Y0153158D02*
X0031299Y0153158D01*
X0031229Y0151559D02*
X0040599Y0151559D01*
X0040599Y0149961D02*
X0029631Y0149961D01*
X0028032Y0148362D02*
X0040599Y0148362D01*
X0040599Y0146764D02*
X0026434Y0146764D01*
X0037421Y0145165D02*
X0040599Y0145165D01*
X0040599Y0143567D02*
X0039746Y0143567D01*
X0044799Y0143567D02*
X0054197Y0143567D01*
X0055795Y0145165D02*
X0044799Y0145165D01*
X0044799Y0146764D02*
X0057394Y0146764D01*
X0058992Y0148362D02*
X0044799Y0148362D01*
X0044799Y0149961D02*
X0060591Y0149961D01*
X0062189Y0151559D02*
X0044799Y0151559D01*
X0044799Y0153158D02*
X0059840Y0153158D01*
X0058674Y0154756D02*
X0044799Y0154756D01*
X0044799Y0156355D02*
X0058674Y0156355D01*
X0058825Y0157953D02*
X0044799Y0157953D01*
X0045522Y0159552D02*
X0060423Y0159552D01*
X0065325Y0159552D02*
X0070182Y0159552D01*
X0071781Y0161150D02*
X0047120Y0161150D01*
X0048719Y0162749D02*
X0073379Y0162749D01*
X0072163Y0164347D02*
X0050317Y0164347D01*
X0051916Y0165946D02*
X0071652Y0165946D01*
X0071707Y0167544D02*
X0053514Y0167544D01*
X0055113Y0169143D02*
X0072393Y0169143D01*
X0074481Y0170741D02*
X0056711Y0170741D01*
X0058310Y0172340D02*
X0074265Y0172340D01*
X0073646Y0172596D02*
X0075337Y0171896D01*
X0083167Y0171896D01*
X0084858Y0172596D01*
X0086152Y0173890D01*
X0086852Y0175581D01*
X0086852Y0177411D01*
X0086152Y0179102D01*
X0084858Y0180396D01*
X0083167Y0181096D01*
X0075337Y0181096D01*
X0073646Y0180396D01*
X0072352Y0179102D01*
X0071652Y0177411D01*
X0071652Y0175581D01*
X0072352Y0173890D01*
X0073646Y0172596D01*
X0072332Y0173938D02*
X0059908Y0173938D01*
X0061507Y0175537D02*
X0071670Y0175537D01*
X0071652Y0177135D02*
X0063105Y0177135D01*
X0064704Y0178734D02*
X0072200Y0178734D01*
X0073583Y0180332D02*
X0066302Y0180332D01*
X0067901Y0181931D02*
X0075253Y0181931D01*
X0072713Y0183530D02*
X0069499Y0183530D01*
X0071098Y0185128D02*
X0071840Y0185128D01*
X0068355Y0188325D02*
X0066552Y0188325D01*
X0064953Y0189924D02*
X0069954Y0189924D01*
X0071552Y0191522D02*
X0037315Y0191522D01*
X0036253Y0191962D02*
X0023747Y0191962D01*
X0021340Y0190965D01*
X0019497Y0189122D01*
X0018500Y0186715D01*
X0018500Y0184109D01*
X0019497Y0181702D01*
X0021340Y0179859D01*
X0023747Y0178862D01*
X0036253Y0178862D01*
X0038660Y0179859D01*
X0040503Y0181702D01*
X0041500Y0184109D01*
X0041500Y0186715D01*
X0040503Y0189122D01*
X0038660Y0190965D01*
X0036253Y0191962D01*
X0036270Y0194377D02*
X0035392Y0194262D01*
X0030800Y0194262D01*
X0030800Y0200212D01*
X0030800Y0201812D01*
X0029200Y0201812D01*
X0029200Y0207762D01*
X0024608Y0207762D01*
X0023730Y0207646D01*
X0022876Y0207417D01*
X0022058Y0207079D01*
X0021292Y0206636D01*
X0020590Y0206098D01*
X0019964Y0205472D01*
X0019426Y0204770D01*
X0018983Y0204004D01*
X0018645Y0203186D01*
X0018415Y0202331D01*
X0018347Y0201812D01*
X0029200Y0201812D01*
X0029200Y0200212D01*
X0018347Y0200212D01*
X0018415Y0199692D01*
X0018645Y0198837D01*
X0018983Y0198020D01*
X0019426Y0197254D01*
X0019964Y0196552D01*
X0020590Y0195926D01*
X0021292Y0195387D01*
X0022058Y0194945D01*
X0022876Y0194606D01*
X0023730Y0194377D01*
X0024608Y0194262D01*
X0029200Y0194262D01*
X0029200Y0200212D01*
X0030800Y0200212D01*
X0041653Y0200212D01*
X0041584Y0199692D01*
X0041355Y0198837D01*
X0041017Y0198020D01*
X0040574Y0197254D01*
X0040036Y0196552D01*
X0039410Y0195926D01*
X0038708Y0195387D01*
X0037942Y0194945D01*
X0037124Y0194606D01*
X0036270Y0194377D01*
X0037397Y0194719D02*
X0072009Y0194719D01*
X0071652Y0196318D02*
X0039802Y0196318D01*
X0040957Y0197916D02*
X0071861Y0197916D01*
X0072765Y0199515D02*
X0041537Y0199515D01*
X0041653Y0201812D02*
X0041584Y0202331D01*
X0041355Y0203186D01*
X0041017Y0204004D01*
X0040574Y0204770D01*
X0040036Y0205472D01*
X0039410Y0206098D01*
X0038708Y0206636D01*
X0037942Y0207079D01*
X0037124Y0207417D01*
X0036270Y0207646D01*
X0035392Y0207762D01*
X0030800Y0207762D01*
X0030800Y0201812D01*
X0041653Y0201812D01*
X0041483Y0202712D02*
X0107922Y0202712D01*
X0106847Y0203787D02*
X0109735Y0200899D01*
X0106847Y0198012D01*
X0106847Y0193787D01*
X0109835Y0190799D01*
X0114060Y0190799D01*
X0116947Y0193687D01*
X0119835Y0190799D01*
X0124060Y0190799D01*
X0126947Y0193687D01*
X0129835Y0190799D01*
X0134060Y0190799D01*
X0137047Y0193787D01*
X0137047Y0198012D01*
X0134160Y0200899D01*
X0137047Y0203787D01*
X0137047Y0208012D01*
X0134060Y0210999D01*
X0129835Y0210999D01*
X0126947Y0208112D01*
X0124060Y0210999D01*
X0119835Y0210999D01*
X0116947Y0208112D01*
X0114060Y0210999D01*
X0109835Y0210999D01*
X0106847Y0208012D01*
X0106847Y0203787D01*
X0106847Y0204310D02*
X0040840Y0204310D01*
X0039599Y0205909D02*
X0106847Y0205909D01*
X0106847Y0207507D02*
X0036789Y0207507D01*
X0030800Y0207507D02*
X0029200Y0207507D01*
X0029200Y0205909D02*
X0030800Y0205909D01*
X0030800Y0204310D02*
X0029200Y0204310D01*
X0029200Y0202712D02*
X0030800Y0202712D01*
X0030800Y0201113D02*
X0090342Y0201113D01*
X0088050Y0199515D02*
X0085739Y0199515D01*
X0086643Y0197916D02*
X0087197Y0197916D01*
X0086947Y0196318D02*
X0086852Y0196318D01*
X0087182Y0194719D02*
X0086495Y0194719D01*
X0085382Y0193121D02*
X0088013Y0193121D01*
X0090253Y0191522D02*
X0077492Y0191522D01*
X0073122Y0193121D02*
X0006099Y0193121D01*
X0006099Y0194719D02*
X0022603Y0194719D01*
X0020198Y0196318D02*
X0006099Y0196318D01*
X0006099Y0197916D02*
X0019043Y0197916D01*
X0018463Y0199515D02*
X0006099Y0199515D01*
X0006099Y0201113D02*
X0029200Y0201113D01*
X0029200Y0199515D02*
X0030800Y0199515D01*
X0030800Y0197916D02*
X0029200Y0197916D01*
X0029200Y0196318D02*
X0030800Y0196318D01*
X0030800Y0194719D02*
X0029200Y0194719D01*
X0022685Y0191522D02*
X0006099Y0191522D01*
X0006099Y0189924D02*
X0020299Y0189924D01*
X0019167Y0188325D02*
X0006099Y0188325D01*
X0006099Y0186727D02*
X0018505Y0186727D01*
X0018500Y0185128D02*
X0006099Y0185128D01*
X0006099Y0183530D02*
X0018740Y0183530D01*
X0019402Y0181931D02*
X0006099Y0181931D01*
X0006099Y0180332D02*
X0020866Y0180332D01*
X0006099Y0178734D02*
X0058764Y0178734D01*
X0060363Y0180332D02*
X0039134Y0180332D01*
X0040598Y0181931D02*
X0061066Y0181931D01*
X0059468Y0183530D02*
X0041260Y0183530D01*
X0041500Y0185128D02*
X0058674Y0185128D01*
X0058674Y0186727D02*
X0041495Y0186727D01*
X0040833Y0188325D02*
X0059196Y0188325D01*
X0060795Y0189924D02*
X0039701Y0189924D01*
X0018517Y0202712D02*
X0006099Y0202712D01*
X0006099Y0204310D02*
X0019160Y0204310D01*
X0020401Y0205909D02*
X0006099Y0205909D01*
X0006099Y0207507D02*
X0023211Y0207507D01*
X0015000Y0214924D02*
X0015000Y0214924D01*
X0018632Y0215500D02*
X0346654Y0215500D01*
X0347907Y0214861D02*
X0347907Y0214861D01*
X0343781Y0216964D02*
X0343781Y0216964D01*
X0343646Y0217098D02*
X0022418Y0217098D01*
X0024645Y0218697D02*
X0342048Y0218697D01*
X0340478Y0220295D02*
X0026244Y0220295D01*
X0026973Y0221025D02*
X0026973Y0221025D01*
X0027416Y0221894D02*
X0339663Y0221894D01*
X0338849Y0223492D02*
X0028230Y0223492D01*
X0029045Y0225091D02*
X0338289Y0225091D01*
X0338036Y0226689D02*
X0029319Y0226689D01*
X0029076Y0225151D02*
X0029076Y0225151D01*
X0029572Y0228288D02*
X0337783Y0228288D01*
X0337680Y0228937D02*
X0337680Y0228937D01*
X0337831Y0229886D02*
X0029774Y0229886D01*
X0029521Y0231485D02*
X0338084Y0231485D01*
X0338337Y0233083D02*
X0029268Y0233083D01*
X0029076Y0234298D02*
X0029076Y0234298D01*
X0028880Y0234682D02*
X0339002Y0234682D01*
X0338405Y0233510D02*
X0338405Y0233510D01*
X0339816Y0236280D02*
X0028065Y0236280D01*
X0027251Y0237879D02*
X0340750Y0237879D01*
X0340507Y0237636D02*
X0340507Y0237636D01*
X0358307Y0215500D02*
X0361145Y0215500D01*
X0361145Y0213901D02*
X0006099Y0213901D01*
X0006099Y0212303D02*
X0175593Y0212303D01*
X0175813Y0212462D02*
X0175253Y0212055D01*
X0174763Y0211566D01*
X0174356Y0211005D01*
X0174042Y0210388D01*
X0173828Y0209730D01*
X0173719Y0209045D01*
X0173719Y0206099D01*
X0173719Y0203153D01*
X0173828Y0202469D01*
X0174042Y0201810D01*
X0174356Y0201193D01*
X0174763Y0200633D01*
X0175253Y0200143D01*
X0175813Y0199736D01*
X0176430Y0199422D01*
X0177089Y0199208D01*
X0177773Y0199099D01*
X0178119Y0199099D01*
X0178119Y0206099D01*
X0178119Y0206099D01*
X0173719Y0206099D01*
X0178119Y0206099D01*
X0178119Y0206099D01*
X0178119Y0199099D01*
X0178466Y0199099D01*
X0179150Y0199208D01*
X0179808Y0199422D01*
X0180425Y0199736D01*
X0180986Y0200143D01*
X0181475Y0200633D01*
X0181882Y0201193D01*
X0182197Y0201810D01*
X0182411Y0202469D01*
X0182519Y0203153D01*
X0182519Y0206099D01*
X0178119Y0206099D01*
X0178119Y0213099D01*
X0177773Y0213099D01*
X0177089Y0212991D01*
X0176430Y0212777D01*
X0175813Y0212462D01*
X0178119Y0212303D02*
X0178119Y0212303D01*
X0178119Y0213099D02*
X0178119Y0206099D01*
X0178119Y0206099D01*
X0178119Y0206099D01*
X0182519Y0206099D01*
X0182519Y0209045D01*
X0182411Y0209730D01*
X0182197Y0210388D01*
X0181882Y0211005D01*
X0181475Y0211566D01*
X0180986Y0212055D01*
X0180425Y0212462D01*
X0179808Y0212777D01*
X0179150Y0212991D01*
X0178466Y0213099D01*
X0178119Y0213099D01*
X0178119Y0210704D02*
X0178119Y0210704D01*
X0178119Y0209106D02*
X0178119Y0209106D01*
X0178119Y0207507D02*
X0178119Y0207507D01*
X0178119Y0205909D02*
X0178119Y0205909D01*
X0178119Y0204310D02*
X0178119Y0204310D01*
X0178119Y0202712D02*
X0178119Y0202712D01*
X0178119Y0201113D02*
X0178119Y0201113D01*
X0178119Y0199515D02*
X0178119Y0199515D01*
X0176248Y0199515D02*
X0171566Y0199515D01*
X0171978Y0199102D02*
X0170684Y0200396D01*
X0168994Y0201096D01*
X0161164Y0201096D01*
X0159473Y0200396D01*
X0158179Y0199102D01*
X0157479Y0197411D01*
X0157479Y0195581D01*
X0158179Y0193890D01*
X0159473Y0192596D01*
X0161164Y0191896D01*
X0168994Y0191896D01*
X0170684Y0192596D01*
X0171978Y0193890D01*
X0172679Y0195581D01*
X0172679Y0197411D01*
X0171978Y0199102D01*
X0172470Y0197916D02*
X0212203Y0197916D01*
X0212203Y0197038D02*
X0212903Y0195347D01*
X0214197Y0194053D01*
X0215888Y0193353D01*
X0223718Y0193353D01*
X0225409Y0194053D01*
X0226703Y0195347D01*
X0227403Y0197038D01*
X0227403Y0198868D01*
X0226703Y0200558D01*
X0225409Y0201852D01*
X0223718Y0202553D01*
X0215888Y0202553D01*
X0214197Y0201852D01*
X0212903Y0200558D01*
X0212203Y0198868D01*
X0212203Y0197038D01*
X0212501Y0196318D02*
X0172679Y0196318D01*
X0172322Y0194719D02*
X0213531Y0194719D01*
X0214961Y0192401D02*
X0214287Y0192058D01*
X0213676Y0191614D01*
X0213142Y0191080D01*
X0212698Y0190468D01*
X0212355Y0189795D01*
X0212121Y0189077D01*
X0212003Y0188331D01*
X0212003Y0188153D01*
X0219603Y0188153D01*
X0219603Y0192753D01*
X0216425Y0192753D01*
X0215679Y0192635D01*
X0214961Y0192401D01*
X0213584Y0191522D02*
X0153841Y0191522D01*
X0155635Y0189924D02*
X0159001Y0189924D01*
X0159473Y0190396D02*
X0158179Y0189102D01*
X0157479Y0187411D01*
X0157479Y0185581D01*
X0158179Y0183890D01*
X0159473Y0182596D01*
X0161164Y0181896D01*
X0168994Y0181896D01*
X0170684Y0182596D01*
X0171978Y0183890D01*
X0172679Y0185581D01*
X0172679Y0187411D01*
X0171978Y0189102D01*
X0170684Y0190396D01*
X0168994Y0191096D01*
X0161164Y0191096D01*
X0159473Y0190396D01*
X0157857Y0188325D02*
X0156728Y0188325D01*
X0157147Y0186727D02*
X0157479Y0186727D01*
X0157666Y0185128D02*
X0157082Y0185128D01*
X0156420Y0183530D02*
X0158540Y0183530D01*
X0161079Y0181931D02*
X0154828Y0181931D01*
X0155226Y0180332D02*
X0159410Y0180332D01*
X0159473Y0180396D02*
X0158179Y0179102D01*
X0157479Y0177411D01*
X0157479Y0175581D01*
X0158179Y0173890D01*
X0159473Y0172596D01*
X0161164Y0171896D01*
X0168994Y0171896D01*
X0170684Y0172596D01*
X0171978Y0173890D01*
X0172679Y0175581D01*
X0172679Y0177411D01*
X0171978Y0179102D01*
X0170684Y0180396D01*
X0168994Y0181096D01*
X0161164Y0181096D01*
X0159473Y0180396D01*
X0158027Y0178734D02*
X0156559Y0178734D01*
X0157147Y0177135D02*
X0157479Y0177135D01*
X0157497Y0175537D02*
X0157147Y0175537D01*
X0156590Y0173938D02*
X0158159Y0173938D01*
X0160092Y0172340D02*
X0155300Y0172340D01*
X0154650Y0170741D02*
X0160308Y0170741D01*
X0158220Y0169143D02*
X0156390Y0169143D01*
X0157052Y0167544D02*
X0157534Y0167544D01*
X0157479Y0165946D02*
X0157147Y0165946D01*
X0156759Y0164347D02*
X0157990Y0164347D01*
X0147336Y0164347D02*
X0129221Y0164347D01*
X0127622Y0165946D02*
X0146947Y0165946D01*
X0147043Y0167544D02*
X0126024Y0167544D01*
X0124425Y0169143D02*
X0147705Y0169143D01*
X0149445Y0170741D02*
X0122827Y0170741D01*
X0121228Y0172340D02*
X0148794Y0172340D01*
X0147505Y0173938D02*
X0119630Y0173938D01*
X0118031Y0175537D02*
X0146947Y0175537D01*
X0146947Y0177135D02*
X0116433Y0177135D01*
X0114834Y0178734D02*
X0147536Y0178734D01*
X0148868Y0180332D02*
X0113236Y0180332D01*
X0111637Y0181931D02*
X0149266Y0181931D01*
X0147674Y0183530D02*
X0110039Y0183530D01*
X0108440Y0185128D02*
X0147012Y0185128D01*
X0146947Y0186727D02*
X0106842Y0186727D01*
X0109112Y0191522D02*
X0093841Y0191522D01*
X0095635Y0189924D02*
X0148459Y0189924D01*
X0147366Y0188325D02*
X0096728Y0188325D01*
X0096081Y0193121D02*
X0107513Y0193121D01*
X0106847Y0194719D02*
X0096913Y0194719D01*
X0097147Y0196318D02*
X0106847Y0196318D01*
X0106847Y0197916D02*
X0096898Y0197916D01*
X0096044Y0199515D02*
X0108350Y0199515D01*
X0109521Y0201113D02*
X0093752Y0201113D01*
X0107941Y0209106D02*
X0006099Y0209106D01*
X0006099Y0210704D02*
X0109540Y0210704D01*
X0114355Y0210704D02*
X0119540Y0210704D01*
X0117941Y0209106D02*
X0115953Y0209106D01*
X0124355Y0210704D02*
X0129540Y0210704D01*
X0127941Y0209106D02*
X0125953Y0209106D01*
X0134355Y0210704D02*
X0174203Y0210704D01*
X0173729Y0209106D02*
X0135953Y0209106D01*
X0137047Y0207507D02*
X0173719Y0207507D01*
X0173719Y0205909D02*
X0137047Y0205909D01*
X0137047Y0204310D02*
X0173719Y0204310D01*
X0173789Y0202712D02*
X0135972Y0202712D01*
X0134374Y0201113D02*
X0150342Y0201113D01*
X0148050Y0199515D02*
X0135544Y0199515D01*
X0137047Y0197916D02*
X0147197Y0197916D01*
X0146947Y0196318D02*
X0137047Y0196318D01*
X0137047Y0194719D02*
X0147182Y0194719D01*
X0148013Y0193121D02*
X0136381Y0193121D01*
X0134783Y0191522D02*
X0150253Y0191522D01*
X0156081Y0193121D02*
X0158949Y0193121D01*
X0157836Y0194719D02*
X0156913Y0194719D01*
X0157147Y0196318D02*
X0157479Y0196318D01*
X0157688Y0197916D02*
X0156898Y0197916D01*
X0156044Y0199515D02*
X0158592Y0199515D01*
X0153752Y0201113D02*
X0174414Y0201113D01*
X0179991Y0199515D02*
X0212471Y0199515D01*
X0213458Y0201113D02*
X0181824Y0201113D01*
X0182449Y0202712D02*
X0187569Y0202712D01*
X0188142Y0202139D02*
X0191622Y0202139D01*
X0194082Y0204599D01*
X0194082Y0208078D01*
X0191622Y0210539D01*
X0188142Y0210539D01*
X0185682Y0208078D01*
X0185682Y0204599D01*
X0188142Y0202139D01*
X0185971Y0204310D02*
X0182519Y0204310D01*
X0182519Y0205909D02*
X0185682Y0205909D01*
X0185682Y0207507D02*
X0182519Y0207507D01*
X0182510Y0209106D02*
X0186709Y0209106D01*
X0182036Y0210704D02*
X0361145Y0210704D01*
X0361145Y0209106D02*
X0204472Y0209106D01*
X0205499Y0208078D02*
X0203039Y0210539D01*
X0199560Y0210539D01*
X0197099Y0208078D01*
X0197099Y0204599D01*
X0199560Y0202139D01*
X0203039Y0202139D01*
X0205499Y0204599D01*
X0205499Y0208078D01*
X0205499Y0207507D02*
X0361145Y0207507D01*
X0361145Y0205909D02*
X0205499Y0205909D01*
X0205210Y0204310D02*
X0361145Y0204310D01*
X0361145Y0202712D02*
X0203612Y0202712D01*
X0198986Y0202712D02*
X0192195Y0202712D01*
X0193793Y0204310D02*
X0197388Y0204310D01*
X0197099Y0205909D02*
X0194082Y0205909D01*
X0194082Y0207507D02*
X0197099Y0207507D01*
X0198127Y0209106D02*
X0193054Y0209106D01*
X0180645Y0212303D02*
X0361145Y0212303D01*
X0357054Y0214861D02*
X0357054Y0214861D01*
X0361145Y0201113D02*
X0226148Y0201113D01*
X0227135Y0199515D02*
X0361145Y0199515D01*
X0361145Y0197916D02*
X0227403Y0197916D01*
X0227105Y0196318D02*
X0361145Y0196318D01*
X0361145Y0194719D02*
X0226075Y0194719D01*
X0224646Y0192401D02*
X0223927Y0192635D01*
X0223181Y0192753D01*
X0220003Y0192753D01*
X0220003Y0188153D01*
X0219603Y0188153D01*
X0219603Y0187753D01*
X0212003Y0187753D01*
X0212003Y0187575D01*
X0212121Y0186829D01*
X0212355Y0186110D01*
X0212698Y0185437D01*
X0213142Y0184826D01*
X0213676Y0184292D01*
X0214287Y0183847D01*
X0214961Y0183504D01*
X0215679Y0183271D01*
X0216425Y0183153D01*
X0219603Y0183153D01*
X0219603Y0187753D01*
X0220003Y0187753D01*
X0220003Y0188153D01*
X0227603Y0188153D01*
X0227603Y0188331D01*
X0227485Y0189077D01*
X0227251Y0189795D01*
X0226908Y0190468D01*
X0226464Y0191080D01*
X0225930Y0191614D01*
X0225319Y0192058D01*
X0224646Y0192401D01*
X0226022Y0191522D02*
X0361145Y0191522D01*
X0361145Y0189924D02*
X0227186Y0189924D01*
X0227603Y0188325D02*
X0361145Y0188325D01*
X0361145Y0186727D02*
X0227452Y0186727D01*
X0227485Y0186829D02*
X0227603Y0187575D01*
X0227603Y0187753D01*
X0220003Y0187753D01*
X0220003Y0183153D01*
X0223181Y0183153D01*
X0223927Y0183271D01*
X0224646Y0183504D01*
X0225319Y0183847D01*
X0225930Y0184292D01*
X0226464Y0184826D01*
X0226908Y0185437D01*
X0227251Y0186110D01*
X0227485Y0186829D01*
X0226684Y0185128D02*
X0361145Y0185128D01*
X0361145Y0183530D02*
X0224695Y0183530D01*
X0223718Y0182553D02*
X0215888Y0182553D01*
X0214197Y0181852D01*
X0212903Y0180558D01*
X0212203Y0178868D01*
X0212203Y0177038D01*
X0212903Y0175347D01*
X0214197Y0174053D01*
X0215888Y0173353D01*
X0223718Y0173353D01*
X0225409Y0174053D01*
X0226703Y0175347D01*
X0227403Y0177038D01*
X0227403Y0178868D01*
X0226703Y0180558D01*
X0225409Y0181852D01*
X0223718Y0182553D01*
X0225219Y0181931D02*
X0361145Y0181931D01*
X0361145Y0180332D02*
X0226796Y0180332D01*
X0227403Y0178734D02*
X0361145Y0178734D01*
X0361145Y0177135D02*
X0227403Y0177135D01*
X0226781Y0175537D02*
X0361145Y0175537D01*
X0361145Y0173938D02*
X0225132Y0173938D01*
X0224232Y0172340D02*
X0361145Y0172340D01*
X0361145Y0170741D02*
X0226520Y0170741D01*
X0226703Y0170558D02*
X0225409Y0171852D01*
X0223718Y0172553D01*
X0215888Y0172553D01*
X0214197Y0171852D01*
X0212903Y0170558D01*
X0212203Y0168868D01*
X0212203Y0167038D01*
X0212903Y0165347D01*
X0214197Y0164053D01*
X0215888Y0163353D01*
X0223718Y0163353D01*
X0225409Y0164053D01*
X0226703Y0165347D01*
X0227403Y0167038D01*
X0227403Y0168868D01*
X0226703Y0170558D01*
X0227289Y0169143D02*
X0361145Y0169143D01*
X0361145Y0167544D02*
X0227403Y0167544D01*
X0226951Y0165946D02*
X0361145Y0165946D01*
X0361145Y0164347D02*
X0225703Y0164347D01*
X0225409Y0161852D02*
X0223718Y0162553D01*
X0215888Y0162553D01*
X0214197Y0161852D01*
X0212903Y0160558D01*
X0212203Y0158868D01*
X0212203Y0157038D01*
X0212903Y0155347D01*
X0214197Y0154053D01*
X0215888Y0153353D01*
X0223718Y0153353D01*
X0225409Y0154053D01*
X0226703Y0155347D01*
X0227403Y0157038D01*
X0227403Y0158868D01*
X0226703Y0160558D01*
X0225409Y0161852D01*
X0226111Y0161150D02*
X0361145Y0161150D01*
X0361145Y0159552D02*
X0227120Y0159552D01*
X0227403Y0157953D02*
X0361145Y0157953D01*
X0361145Y0156355D02*
X0227120Y0156355D01*
X0226112Y0154756D02*
X0361145Y0154756D01*
X0361145Y0153158D02*
X0180910Y0153158D01*
X0179312Y0154756D02*
X0213494Y0154756D01*
X0212486Y0156355D02*
X0177713Y0156355D01*
X0176115Y0157953D02*
X0212203Y0157953D01*
X0212487Y0159552D02*
X0179565Y0159552D01*
X0178955Y0159299D02*
X0180498Y0159939D01*
X0181680Y0161120D01*
X0182319Y0162664D01*
X0182319Y0169535D01*
X0181680Y0171078D01*
X0180498Y0172260D01*
X0178955Y0172899D01*
X0177284Y0172899D01*
X0175740Y0172260D01*
X0174559Y0171078D01*
X0173919Y0169535D01*
X0173919Y0162664D01*
X0174559Y0161120D01*
X0175740Y0159939D01*
X0177284Y0159299D01*
X0178955Y0159299D01*
X0176674Y0159552D02*
X0174516Y0159552D01*
X0174546Y0161150D02*
X0172918Y0161150D01*
X0173919Y0162749D02*
X0171319Y0162749D01*
X0172168Y0164347D02*
X0173919Y0164347D01*
X0173919Y0165946D02*
X0172679Y0165946D01*
X0172624Y0167544D02*
X0173919Y0167544D01*
X0173919Y0169143D02*
X0171937Y0169143D01*
X0169850Y0170741D02*
X0174419Y0170741D01*
X0175934Y0172340D02*
X0170065Y0172340D01*
X0171998Y0173938D02*
X0214474Y0173938D01*
X0215374Y0172340D02*
X0180305Y0172340D01*
X0181819Y0170741D02*
X0213086Y0170741D01*
X0212317Y0169143D02*
X0204717Y0169143D01*
X0205699Y0168161D02*
X0203122Y0170739D01*
X0201299Y0170739D01*
X0199477Y0170739D01*
X0196899Y0168161D01*
X0196899Y0166339D01*
X0201299Y0166339D01*
X0201299Y0170739D01*
X0201299Y0166339D01*
X0201299Y0166339D01*
X0201299Y0166339D01*
X0196899Y0166339D01*
X0196899Y0164516D01*
X0199477Y0161939D01*
X0201299Y0161939D01*
X0201299Y0166338D01*
X0201299Y0166338D01*
X0201299Y0161939D01*
X0203122Y0161939D01*
X0205699Y0164516D01*
X0205699Y0166339D01*
X0205699Y0168161D01*
X0205699Y0167544D02*
X0212203Y0167544D01*
X0212655Y0165946D02*
X0205699Y0165946D01*
X0205699Y0166339D02*
X0201299Y0166339D01*
X0205699Y0166339D01*
X0205531Y0164347D02*
X0213903Y0164347D01*
X0213495Y0161150D02*
X0181692Y0161150D01*
X0182319Y0162749D02*
X0187249Y0162749D01*
X0188059Y0161939D02*
X0185482Y0164516D01*
X0185482Y0166339D01*
X0189882Y0166339D01*
X0189882Y0166339D01*
X0189882Y0170739D01*
X0191704Y0170739D01*
X0194282Y0168161D01*
X0194282Y0166339D01*
X0189882Y0166339D01*
X0189882Y0170739D01*
X0188059Y0170739D01*
X0185482Y0168161D01*
X0185482Y0166339D01*
X0189882Y0166339D01*
X0189882Y0166339D01*
X0189882Y0166339D01*
X0194282Y0166339D01*
X0194282Y0164516D01*
X0191704Y0161939D01*
X0189882Y0161939D01*
X0189882Y0166338D01*
X0189882Y0166338D01*
X0189882Y0161939D01*
X0188059Y0161939D01*
X0189882Y0162749D02*
X0189882Y0162749D01*
X0189882Y0164347D02*
X0189882Y0164347D01*
X0189882Y0165946D02*
X0189882Y0165946D01*
X0189882Y0167544D02*
X0189882Y0167544D01*
X0189882Y0169143D02*
X0189882Y0169143D01*
X0193300Y0169143D02*
X0197881Y0169143D01*
X0196899Y0167544D02*
X0194282Y0167544D01*
X0194282Y0165946D02*
X0196899Y0165946D01*
X0197068Y0164347D02*
X0194113Y0164347D01*
X0192515Y0162749D02*
X0198666Y0162749D01*
X0201299Y0162749D02*
X0201299Y0162749D01*
X0201299Y0164347D02*
X0201299Y0164347D01*
X0201299Y0165946D02*
X0201299Y0165946D01*
X0201299Y0166339D02*
X0201299Y0166339D01*
X0201299Y0167544D02*
X0201299Y0167544D01*
X0201299Y0169143D02*
X0201299Y0169143D01*
X0203932Y0162749D02*
X0361145Y0162749D01*
X0361145Y0151559D02*
X0225702Y0151559D01*
X0225409Y0151852D02*
X0226703Y0150558D01*
X0227403Y0148868D01*
X0227403Y0147038D01*
X0226703Y0145347D01*
X0225409Y0144053D01*
X0223718Y0143353D01*
X0215888Y0143353D01*
X0214197Y0144053D01*
X0212903Y0145347D01*
X0212203Y0147038D01*
X0212203Y0148868D01*
X0212903Y0150558D01*
X0214197Y0151852D01*
X0215888Y0152553D01*
X0223718Y0152553D01*
X0225409Y0151852D01*
X0226950Y0149961D02*
X0361145Y0149961D01*
X0361145Y0148362D02*
X0227403Y0148362D01*
X0227290Y0146764D02*
X0361145Y0146764D01*
X0361145Y0145165D02*
X0226521Y0145165D01*
X0224235Y0143567D02*
X0361145Y0143567D01*
X0361145Y0141968D02*
X0192100Y0141968D01*
X0193699Y0140370D02*
X0361145Y0140370D01*
X0361145Y0138771D02*
X0195297Y0138771D01*
X0196896Y0137173D02*
X0361145Y0137173D01*
X0361145Y0135574D02*
X0198494Y0135574D01*
X0200093Y0133976D02*
X0361145Y0133976D01*
X0361145Y0132377D02*
X0201691Y0132377D01*
X0203290Y0130779D02*
X0361145Y0130779D01*
X0361145Y0129180D02*
X0204888Y0129180D01*
X0206487Y0127582D02*
X0361145Y0127582D01*
X0361145Y0125983D02*
X0208085Y0125983D01*
X0209684Y0124385D02*
X0361145Y0124385D01*
X0361145Y0122786D02*
X0319186Y0122786D01*
X0318676Y0123296D02*
X0316802Y0124072D01*
X0314773Y0124072D01*
X0312898Y0123296D01*
X0311464Y0121861D01*
X0310687Y0119987D01*
X0310687Y0110958D01*
X0311464Y0109084D01*
X0312898Y0107649D01*
X0314773Y0106872D01*
X0316802Y0106872D01*
X0318676Y0107649D01*
X0320111Y0109084D01*
X0320887Y0110958D01*
X0320887Y0119987D01*
X0320111Y0121861D01*
X0318676Y0123296D01*
X0320390Y0121188D02*
X0328702Y0121188D01*
X0328859Y0121345D02*
X0327017Y0119502D01*
X0326020Y0117095D01*
X0326020Y0114489D01*
X0327017Y0112082D01*
X0328859Y0110239D01*
X0331267Y0109242D01*
X0343773Y0109242D01*
X0346180Y0110239D01*
X0348023Y0112082D01*
X0349020Y0114489D01*
X0349020Y0117095D01*
X0348023Y0119502D01*
X0346180Y0121345D01*
X0343773Y0122342D01*
X0331267Y0122342D01*
X0328859Y0121345D01*
X0327104Y0119589D02*
X0320887Y0119589D01*
X0320887Y0117991D02*
X0326391Y0117991D01*
X0326020Y0116392D02*
X0320887Y0116392D01*
X0320887Y0114794D02*
X0326020Y0114794D01*
X0326556Y0113195D02*
X0320887Y0113195D01*
X0320887Y0111596D02*
X0327502Y0111596D01*
X0329442Y0109998D02*
X0320490Y0109998D01*
X0319427Y0108399D02*
X0361145Y0108399D01*
X0361145Y0106801D02*
X0343885Y0106801D01*
X0343789Y0106827D02*
X0342912Y0106942D01*
X0338320Y0106942D01*
X0338320Y0100992D01*
X0349173Y0100992D01*
X0349104Y0101512D01*
X0348875Y0102366D01*
X0348537Y0103184D01*
X0348094Y0103950D01*
X0347555Y0104652D01*
X0346930Y0105278D01*
X0346228Y0105817D01*
X0345462Y0106259D01*
X0344644Y0106598D01*
X0343789Y0106827D01*
X0347005Y0105202D02*
X0361145Y0105202D01*
X0361145Y0103604D02*
X0348294Y0103604D01*
X0348972Y0102005D02*
X0361145Y0102005D01*
X0361145Y0100407D02*
X0338320Y0100407D01*
X0338320Y0100992D02*
X0338320Y0099392D01*
X0349173Y0099392D01*
X0349104Y0098872D01*
X0348875Y0098018D01*
X0348537Y0097200D01*
X0348094Y0096434D01*
X0347555Y0095732D01*
X0346930Y0095106D01*
X0346228Y0094568D01*
X0345462Y0094125D01*
X0344644Y0093787D01*
X0343789Y0093558D01*
X0342912Y0093442D01*
X0338320Y0093442D01*
X0338320Y0099392D01*
X0336720Y0099392D01*
X0336720Y0093442D01*
X0332127Y0093442D01*
X0331250Y0093558D01*
X0330395Y0093787D01*
X0329578Y0094125D01*
X0328812Y0094568D01*
X0328110Y0095106D01*
X0327484Y0095732D01*
X0326945Y0096434D01*
X0326503Y0097200D01*
X0326164Y0098018D01*
X0325935Y0098872D01*
X0325867Y0099392D01*
X0336720Y0099392D01*
X0336720Y0100992D01*
X0336720Y0106942D01*
X0332127Y0106942D01*
X0331250Y0106827D01*
X0330395Y0106598D01*
X0329578Y0106259D01*
X0328812Y0105817D01*
X0328110Y0105278D01*
X0327484Y0104652D01*
X0326945Y0103950D01*
X0326503Y0103184D01*
X0326164Y0102366D01*
X0325935Y0101512D01*
X0325867Y0100992D01*
X0336720Y0100992D01*
X0338320Y0100992D01*
X0338320Y0102005D02*
X0336720Y0102005D01*
X0336720Y0100407D02*
X0240187Y0100407D01*
X0240170Y0100405D02*
X0241054Y0100521D01*
X0241915Y0100752D01*
X0242738Y0101093D01*
X0243510Y0101539D01*
X0244218Y0102081D01*
X0244848Y0102712D01*
X0245391Y0103419D01*
X0245836Y0104191D01*
X0246177Y0105014D01*
X0246408Y0105875D01*
X0246524Y0106759D01*
X0246524Y0107005D01*
X0239924Y0107005D01*
X0239924Y0100405D01*
X0240170Y0100405D01*
X0239924Y0100407D02*
X0239524Y0100407D01*
X0239524Y0100405D02*
X0239524Y0107005D01*
X0232924Y0107005D01*
X0232924Y0106759D01*
X0233041Y0105875D01*
X0233271Y0105014D01*
X0233613Y0104191D01*
X0234058Y0103419D01*
X0234601Y0102712D01*
X0235231Y0102081D01*
X0235938Y0101539D01*
X0236710Y0101093D01*
X0237534Y0100752D01*
X0238395Y0100521D01*
X0239279Y0100405D01*
X0239524Y0100405D01*
X0239262Y0100407D02*
X0233661Y0100407D01*
X0232063Y0102005D02*
X0235330Y0102005D01*
X0233951Y0103604D02*
X0230464Y0103604D01*
X0228866Y0105202D02*
X0233221Y0105202D01*
X0232924Y0106801D02*
X0227267Y0106801D01*
X0225669Y0108399D02*
X0233023Y0108399D01*
X0233041Y0108534D02*
X0232924Y0107650D01*
X0232924Y0107405D01*
X0239524Y0107405D01*
X0239524Y0107005D01*
X0239924Y0107005D01*
X0239924Y0107405D01*
X0239524Y0107405D01*
X0239524Y0114005D01*
X0239279Y0114005D01*
X0238395Y0113888D01*
X0237534Y0113658D01*
X0236710Y0113317D01*
X0235938Y0112871D01*
X0235231Y0112328D01*
X0234601Y0111698D01*
X0234058Y0110991D01*
X0233613Y0110219D01*
X0233271Y0109395D01*
X0233041Y0108534D01*
X0233521Y0109998D02*
X0224070Y0109998D01*
X0222472Y0111596D02*
X0234523Y0111596D01*
X0236500Y0113195D02*
X0220873Y0113195D01*
X0219275Y0114794D02*
X0270687Y0114794D01*
X0270687Y0116392D02*
X0217676Y0116392D01*
X0216078Y0117991D02*
X0270687Y0117991D01*
X0270687Y0119589D02*
X0214479Y0119589D01*
X0212881Y0121188D02*
X0271185Y0121188D01*
X0271464Y0121861D02*
X0270687Y0119987D01*
X0270687Y0110958D01*
X0271464Y0109084D01*
X0272898Y0107649D01*
X0274773Y0106872D01*
X0276802Y0106872D01*
X0278676Y0107649D01*
X0280111Y0109084D01*
X0280887Y0110958D01*
X0280887Y0119987D01*
X0280111Y0121861D01*
X0278676Y0123296D01*
X0276802Y0124072D01*
X0274773Y0124072D01*
X0272898Y0123296D01*
X0271464Y0121861D01*
X0272389Y0122786D02*
X0211282Y0122786D01*
X0239524Y0113195D02*
X0239924Y0113195D01*
X0239924Y0114005D02*
X0240170Y0114005D01*
X0241054Y0113888D01*
X0241915Y0113658D01*
X0242738Y0113317D01*
X0243510Y0112871D01*
X0244218Y0112328D01*
X0244848Y0111698D01*
X0245391Y0110991D01*
X0245836Y0110219D01*
X0246177Y0109395D01*
X0246408Y0108534D01*
X0246524Y0107650D01*
X0246524Y0107405D01*
X0239924Y0107405D01*
X0239924Y0114005D01*
X0239924Y0111596D02*
X0239524Y0111596D01*
X0239524Y0109998D02*
X0239924Y0109998D01*
X0239924Y0108399D02*
X0239524Y0108399D01*
X0239524Y0106801D02*
X0239924Y0106801D01*
X0239924Y0105202D02*
X0239524Y0105202D01*
X0239524Y0103604D02*
X0239924Y0103604D01*
X0239924Y0102005D02*
X0239524Y0102005D01*
X0244119Y0102005D02*
X0255590Y0102005D01*
X0256991Y0100605D02*
X0262458Y0100605D01*
X0266324Y0104471D01*
X0266324Y0109939D01*
X0262458Y0113805D01*
X0256991Y0113805D01*
X0253124Y0109939D01*
X0253124Y0104471D01*
X0256991Y0100605D01*
X0253991Y0103604D02*
X0245497Y0103604D01*
X0246228Y0105202D02*
X0253124Y0105202D01*
X0253124Y0106801D02*
X0246524Y0106801D01*
X0246426Y0108399D02*
X0253124Y0108399D01*
X0253184Y0109998D02*
X0245928Y0109998D01*
X0244926Y0111596D02*
X0254782Y0111596D01*
X0256381Y0113195D02*
X0242949Y0113195D01*
X0263068Y0113195D02*
X0270687Y0113195D01*
X0270687Y0111596D02*
X0264666Y0111596D01*
X0266265Y0109998D02*
X0271085Y0109998D01*
X0272148Y0108399D02*
X0266324Y0108399D01*
X0266324Y0106801D02*
X0331154Y0106801D01*
X0328034Y0105202D02*
X0266324Y0105202D01*
X0265457Y0103604D02*
X0326745Y0103604D01*
X0326067Y0102005D02*
X0263859Y0102005D01*
X0279427Y0108399D02*
X0312148Y0108399D01*
X0311085Y0109998D02*
X0280490Y0109998D01*
X0280887Y0111596D02*
X0310687Y0111596D01*
X0310687Y0113195D02*
X0280887Y0113195D01*
X0280887Y0114794D02*
X0310687Y0114794D01*
X0310687Y0116392D02*
X0280887Y0116392D01*
X0280887Y0117991D02*
X0310687Y0117991D01*
X0310687Y0119589D02*
X0280887Y0119589D01*
X0280390Y0121188D02*
X0311185Y0121188D01*
X0312389Y0122786D02*
X0279186Y0122786D01*
X0238457Y0095611D02*
X0327604Y0095611D01*
X0326499Y0097210D02*
X0236858Y0097210D01*
X0235260Y0098808D02*
X0325952Y0098808D01*
X0329849Y0094013D02*
X0240055Y0094013D01*
X0241654Y0092414D02*
X0361145Y0092414D01*
X0361145Y0090816D02*
X0243252Y0090816D01*
X0244851Y0089217D02*
X0361145Y0089217D01*
X0361145Y0087619D02*
X0246449Y0087619D01*
X0248048Y0086020D02*
X0361145Y0086020D01*
X0361145Y0084422D02*
X0249646Y0084422D01*
X0251245Y0082823D02*
X0361145Y0082823D01*
X0361145Y0081225D02*
X0294627Y0081225D01*
X0296225Y0079626D02*
X0361145Y0079626D01*
X0361145Y0078028D02*
X0309141Y0078028D01*
X0310739Y0076429D02*
X0311527Y0076429D01*
X0319438Y0076429D02*
X0361145Y0076429D01*
X0361145Y0074831D02*
X0319657Y0074831D01*
X0319657Y0073232D02*
X0361145Y0073232D01*
X0361145Y0071634D02*
X0320035Y0071634D01*
X0321633Y0070035D02*
X0361145Y0070035D01*
X0361145Y0068437D02*
X0321999Y0068437D01*
X0321999Y0066838D02*
X0361145Y0066838D01*
X0361145Y0065240D02*
X0321999Y0065240D01*
X0321999Y0063641D02*
X0361145Y0063641D01*
X0361145Y0062043D02*
X0321999Y0062043D01*
X0321999Y0060444D02*
X0361145Y0060444D01*
X0361145Y0058846D02*
X0321999Y0058846D01*
X0321999Y0057247D02*
X0361145Y0057247D01*
X0361145Y0055649D02*
X0321999Y0055649D01*
X0321999Y0054050D02*
X0361145Y0054050D01*
X0361145Y0052452D02*
X0321999Y0052452D01*
X0321999Y0050853D02*
X0361145Y0050853D01*
X0361145Y0049255D02*
X0321999Y0049255D01*
X0321999Y0047656D02*
X0361145Y0047656D01*
X0361145Y0046058D02*
X0321999Y0046058D01*
X0321999Y0044459D02*
X0361145Y0044459D01*
X0361145Y0042861D02*
X0321999Y0042861D01*
X0321999Y0041262D02*
X0361145Y0041262D01*
X0361145Y0039663D02*
X0321999Y0039663D01*
X0320935Y0038065D02*
X0361145Y0038065D01*
X0361145Y0036466D02*
X0319336Y0036466D01*
X0317738Y0034868D02*
X0361145Y0034868D01*
X0361145Y0033269D02*
X0316139Y0033269D01*
X0314799Y0031671D02*
X0361145Y0031671D01*
X0361145Y0030072D02*
X0358857Y0030072D01*
X0357723Y0030650D02*
X0357723Y0030650D01*
X0347442Y0030072D02*
X0314799Y0030072D01*
X0314799Y0028474D02*
X0344376Y0028474D01*
X0344450Y0028548D02*
X0344450Y0028548D01*
X0342778Y0026875D02*
X0316193Y0026875D01*
X0317791Y0025277D02*
X0341179Y0025277D01*
X0341176Y0025274D02*
X0341176Y0025274D01*
X0340363Y0023678D02*
X0326103Y0023678D01*
X0327135Y0022080D02*
X0339549Y0022080D01*
X0339074Y0021148D02*
X0339074Y0021148D01*
X0338968Y0020481D02*
X0327435Y0020481D01*
X0327435Y0018883D02*
X0338715Y0018883D01*
X0338462Y0017284D02*
X0327435Y0017284D01*
X0327435Y0015686D02*
X0338490Y0015686D01*
X0338744Y0014087D02*
X0327435Y0014087D01*
X0327005Y0012489D02*
X0338997Y0012489D01*
X0339074Y0012001D02*
X0339074Y0012001D01*
X0339640Y0010890D02*
X0325789Y0010890D01*
X0319880Y0010890D02*
X0315789Y0010890D01*
X0317005Y0012489D02*
X0318664Y0012489D01*
X0318235Y0014087D02*
X0317435Y0014087D01*
X0317435Y0015686D02*
X0318235Y0015686D01*
X0318235Y0017284D02*
X0317435Y0017284D01*
X0317435Y0018883D02*
X0318235Y0018883D01*
X0319390Y0023678D02*
X0319567Y0023678D01*
X0311852Y0025277D02*
X0296522Y0025277D01*
X0294923Y0023678D02*
X0309567Y0023678D01*
X0308535Y0022080D02*
X0241050Y0022080D01*
X0242648Y0023678D02*
X0279407Y0023678D01*
X0278002Y0025277D02*
X0244247Y0025277D01*
X0245845Y0026875D02*
X0277415Y0026875D01*
X0277415Y0028474D02*
X0247444Y0028474D01*
X0249042Y0030072D02*
X0278032Y0030072D01*
X0286298Y0030072D02*
X0287882Y0030072D01*
X0287415Y0028474D02*
X0286915Y0028474D01*
X0286915Y0026875D02*
X0287415Y0026875D01*
X0287809Y0025277D02*
X0286329Y0025277D01*
X0284923Y0023678D02*
X0289407Y0023678D01*
X0308235Y0020481D02*
X0239451Y0020481D01*
X0237853Y0018883D02*
X0308235Y0018883D01*
X0308235Y0017284D02*
X0236254Y0017284D01*
X0234656Y0015686D02*
X0308235Y0015686D01*
X0308235Y0014087D02*
X0233057Y0014087D01*
X0231459Y0012489D02*
X0308664Y0012489D01*
X0309880Y0010890D02*
X0229860Y0010890D01*
X0228262Y0009292D02*
X0340455Y0009292D01*
X0341358Y0007693D02*
X0226663Y0007693D01*
X0259238Y0074831D02*
X0277894Y0074831D01*
X0277570Y0076429D02*
X0257639Y0076429D01*
X0256041Y0078028D02*
X0277774Y0078028D01*
X0277692Y0077773D02*
X0277570Y0077004D01*
X0277570Y0076614D01*
X0282520Y0076614D01*
X0282520Y0076614D01*
X0282520Y0081564D01*
X0282130Y0081564D01*
X0281361Y0081442D01*
X0280620Y0081202D01*
X0279925Y0080848D01*
X0279295Y0080390D01*
X0278744Y0079839D01*
X0278286Y0079209D01*
X0277932Y0078514D01*
X0277692Y0077773D01*
X0278590Y0079626D02*
X0254442Y0079626D01*
X0252843Y0081225D02*
X0280691Y0081225D01*
X0282520Y0081225D02*
X0282520Y0081225D01*
X0282520Y0079626D02*
X0282520Y0079626D01*
X0282520Y0078028D02*
X0282520Y0078028D01*
X0286450Y0079626D02*
X0288814Y0079626D01*
X0287770Y0078028D02*
X0287265Y0078028D01*
X0287470Y0076429D02*
X0287770Y0076429D01*
X0287770Y0074831D02*
X0287145Y0074831D01*
X0284348Y0081225D02*
X0290413Y0081225D01*
X0336720Y0094013D02*
X0338320Y0094013D01*
X0338320Y0095611D02*
X0336720Y0095611D01*
X0336720Y0097210D02*
X0338320Y0097210D01*
X0338320Y0098808D02*
X0336720Y0098808D01*
X0336720Y0103604D02*
X0338320Y0103604D01*
X0338320Y0105202D02*
X0336720Y0105202D01*
X0336720Y0106801D02*
X0338320Y0106801D01*
X0345597Y0109998D02*
X0361145Y0109998D01*
X0361145Y0111596D02*
X0347537Y0111596D01*
X0348484Y0113195D02*
X0361145Y0113195D01*
X0361145Y0114794D02*
X0349020Y0114794D01*
X0349020Y0116392D02*
X0361145Y0116392D01*
X0361145Y0117991D02*
X0348649Y0117991D01*
X0347936Y0119589D02*
X0361145Y0119589D01*
X0361145Y0121188D02*
X0346337Y0121188D01*
X0349087Y0098808D02*
X0361145Y0098808D01*
X0361145Y0097210D02*
X0348541Y0097210D01*
X0347435Y0095611D02*
X0361145Y0095611D01*
X0361145Y0094013D02*
X0345190Y0094013D01*
X0215372Y0143567D02*
X0190502Y0143567D01*
X0188903Y0145165D02*
X0213085Y0145165D01*
X0212317Y0146764D02*
X0187305Y0146764D01*
X0185706Y0148362D02*
X0212203Y0148362D01*
X0212656Y0149961D02*
X0184107Y0149961D01*
X0182509Y0151559D02*
X0213904Y0151559D01*
X0185651Y0164347D02*
X0182319Y0164347D01*
X0182319Y0165946D02*
X0185482Y0165946D01*
X0185482Y0167544D02*
X0182319Y0167544D01*
X0182319Y0169143D02*
X0186464Y0169143D01*
X0172660Y0175537D02*
X0212825Y0175537D01*
X0212203Y0177135D02*
X0172679Y0177135D01*
X0172131Y0178734D02*
X0212203Y0178734D01*
X0212810Y0180332D02*
X0170748Y0180332D01*
X0169078Y0181931D02*
X0214387Y0181931D01*
X0214911Y0183530D02*
X0171618Y0183530D01*
X0172491Y0185128D02*
X0212922Y0185128D01*
X0212155Y0186727D02*
X0172679Y0186727D01*
X0172300Y0188325D02*
X0212003Y0188325D01*
X0212420Y0189924D02*
X0171157Y0189924D01*
X0171209Y0193121D02*
X0361145Y0193121D01*
X0220003Y0191522D02*
X0219603Y0191522D01*
X0219603Y0189924D02*
X0220003Y0189924D01*
X0220003Y0188325D02*
X0219603Y0188325D01*
X0219603Y0186727D02*
X0220003Y0186727D01*
X0220003Y0185128D02*
X0219603Y0185128D01*
X0219603Y0183530D02*
X0220003Y0183530D01*
X0129112Y0191522D02*
X0124783Y0191522D01*
X0126381Y0193121D02*
X0127513Y0193121D01*
X0119112Y0191522D02*
X0114783Y0191522D01*
X0116381Y0193121D02*
X0117513Y0193121D01*
X0088459Y0189924D02*
X0085330Y0189924D01*
X0086473Y0188325D02*
X0087366Y0188325D01*
X0086947Y0186727D02*
X0086852Y0186727D01*
X0087012Y0185128D02*
X0086664Y0185128D01*
X0085791Y0183530D02*
X0087674Y0183530D01*
X0089266Y0181931D02*
X0083251Y0181931D01*
X0084921Y0180332D02*
X0088868Y0180332D01*
X0087536Y0178734D02*
X0086304Y0178734D01*
X0086852Y0177135D02*
X0086947Y0177135D01*
X0086947Y0175537D02*
X0086834Y0175537D01*
X0086172Y0173938D02*
X0087505Y0173938D01*
X0088794Y0172340D02*
X0084239Y0172340D01*
X0084023Y0170741D02*
X0089445Y0170741D01*
X0087705Y0169143D02*
X0086110Y0169143D01*
X0086797Y0167544D02*
X0087043Y0167544D01*
X0086947Y0165946D02*
X0086852Y0165946D01*
X0087336Y0164347D02*
X0086341Y0164347D01*
X0085854Y0159399D02*
X0087935Y0159399D01*
X0087724Y0159188D01*
X0086947Y0157314D01*
X0086947Y0155285D01*
X0087724Y0153410D01*
X0089158Y0151976D01*
X0090791Y0151299D01*
X0089158Y0150623D01*
X0087724Y0149188D01*
X0086947Y0147314D01*
X0086947Y0145285D01*
X0087724Y0143410D01*
X0089158Y0141976D01*
X0090791Y0141299D01*
X0089158Y0140623D01*
X0087724Y0139188D01*
X0086947Y0137314D01*
X0086947Y0135285D01*
X0087724Y0133410D01*
X0089158Y0131976D01*
X0090791Y0131299D01*
X0089158Y0130623D01*
X0087724Y0129188D01*
X0086947Y0127314D01*
X0086947Y0125285D01*
X0087724Y0123410D01*
X0089158Y0121976D01*
X0090791Y0121299D01*
X0089158Y0120623D01*
X0088302Y0119766D01*
X0085299Y0122769D01*
X0085165Y0122903D01*
X0086152Y0123890D01*
X0086852Y0125581D01*
X0086852Y0127411D01*
X0086152Y0129102D01*
X0084858Y0130396D01*
X0083167Y0131096D01*
X0075337Y0131096D01*
X0073646Y0130396D01*
X0072352Y0129102D01*
X0071653Y0127415D01*
X0065499Y0133569D01*
X0065499Y0136252D01*
X0066917Y0137670D01*
X0066917Y0141149D01*
X0064456Y0143609D01*
X0060977Y0143609D01*
X0058517Y0141149D01*
X0058517Y0137670D01*
X0060977Y0135209D01*
X0061299Y0135209D01*
X0061299Y0131829D01*
X0062529Y0130599D01*
X0073190Y0119939D01*
X0072352Y0119102D01*
X0071652Y0117411D01*
X0071652Y0115581D01*
X0072352Y0113890D01*
X0073646Y0112596D01*
X0075337Y0111896D01*
X0083167Y0111896D01*
X0084858Y0112596D01*
X0085395Y0113134D01*
X0085929Y0112599D01*
X0088532Y0109997D01*
X0087724Y0109188D01*
X0086947Y0107314D01*
X0086947Y0105285D01*
X0087724Y0103410D01*
X0089158Y0101976D01*
X0090791Y0101299D01*
X0089158Y0100623D01*
X0087724Y0099188D01*
X0086947Y0097314D01*
X0086947Y0095285D01*
X0087724Y0093410D01*
X0089158Y0091976D01*
X0090791Y0091299D01*
X0089158Y0090623D01*
X0087724Y0089188D01*
X0086947Y0087314D01*
X0086947Y0085285D01*
X0087724Y0083410D01*
X0089158Y0081976D01*
X0090791Y0081299D01*
X0089158Y0080623D01*
X0087724Y0079188D01*
X0086947Y0077314D01*
X0086947Y0075285D01*
X0087645Y0073599D01*
X0085860Y0073599D01*
X0086152Y0073890D01*
X0086852Y0075581D01*
X0086852Y0077411D01*
X0086152Y0079102D01*
X0084858Y0080396D01*
X0083167Y0081096D01*
X0075337Y0081096D01*
X0073646Y0080396D01*
X0072352Y0079102D01*
X0071652Y0077411D01*
X0071652Y0075581D01*
X0072352Y0073890D01*
X0072643Y0073599D01*
X0071168Y0073599D01*
X0071168Y0073905D01*
X0068708Y0076365D01*
X0065229Y0076365D01*
X0065166Y0076302D01*
X0054699Y0086769D01*
X0054699Y0098090D01*
X0056168Y0099560D01*
X0056168Y0103039D01*
X0053708Y0105499D01*
X0050229Y0105499D01*
X0048399Y0103670D01*
X0048399Y0104599D01*
X0048708Y0104599D01*
X0050908Y0106799D01*
X0051460Y0106247D01*
X0052783Y0105699D01*
X0054215Y0105699D01*
X0055538Y0106247D01*
X0056551Y0107260D01*
X0057099Y0108583D01*
X0057099Y0110015D01*
X0056551Y0111338D01*
X0055599Y0112290D01*
X0055599Y0139029D01*
X0071798Y0155228D01*
X0072352Y0153890D01*
X0073646Y0152596D01*
X0075337Y0151896D01*
X0083167Y0151896D01*
X0084858Y0152596D01*
X0086152Y0153890D01*
X0086852Y0155581D01*
X0086852Y0157411D01*
X0086152Y0159102D01*
X0085854Y0159399D01*
X0086627Y0157953D02*
X0087212Y0157953D01*
X0086947Y0156355D02*
X0086852Y0156355D01*
X0087166Y0154756D02*
X0086510Y0154756D01*
X0085419Y0153158D02*
X0087976Y0153158D01*
X0090164Y0151559D02*
X0068129Y0151559D01*
X0066531Y0149961D02*
X0073211Y0149961D01*
X0073646Y0150396D02*
X0072352Y0149102D01*
X0071652Y0147411D01*
X0071652Y0145581D01*
X0072352Y0143890D01*
X0073646Y0142596D01*
X0075337Y0141896D01*
X0083167Y0141896D01*
X0084858Y0142596D01*
X0086152Y0143890D01*
X0086852Y0145581D01*
X0086852Y0147411D01*
X0086152Y0149102D01*
X0084858Y0150396D01*
X0083167Y0151096D01*
X0075337Y0151096D01*
X0073646Y0150396D01*
X0072046Y0148362D02*
X0064932Y0148362D01*
X0063334Y0146764D02*
X0071652Y0146764D01*
X0071824Y0145165D02*
X0061735Y0145165D01*
X0060934Y0143567D02*
X0060137Y0143567D01*
X0059336Y0141968D02*
X0058538Y0141968D01*
X0058517Y0140370D02*
X0056940Y0140370D01*
X0055599Y0138771D02*
X0058517Y0138771D01*
X0059014Y0137173D02*
X0055599Y0137173D01*
X0055599Y0135574D02*
X0060612Y0135574D01*
X0061299Y0133976D02*
X0055599Y0133976D01*
X0055599Y0132377D02*
X0061299Y0132377D01*
X0062350Y0130779D02*
X0055599Y0130779D01*
X0055599Y0129180D02*
X0063948Y0129180D01*
X0065547Y0127582D02*
X0055599Y0127582D01*
X0055599Y0125983D02*
X0067145Y0125983D01*
X0068744Y0124385D02*
X0055599Y0124385D01*
X0055599Y0122786D02*
X0070342Y0122786D01*
X0071941Y0121188D02*
X0055599Y0121188D01*
X0055599Y0119589D02*
X0072840Y0119589D01*
X0071892Y0117991D02*
X0055599Y0117991D01*
X0055599Y0116392D02*
X0071652Y0116392D01*
X0071978Y0114794D02*
X0055599Y0114794D01*
X0055599Y0113195D02*
X0073048Y0113195D01*
X0073646Y0110396D02*
X0072352Y0109102D01*
X0071652Y0107411D01*
X0071652Y0105581D01*
X0072352Y0103890D01*
X0073646Y0102596D01*
X0075337Y0101896D01*
X0083167Y0101896D01*
X0084858Y0102596D01*
X0086152Y0103890D01*
X0086852Y0105581D01*
X0086852Y0107411D01*
X0086152Y0109102D01*
X0084858Y0110396D01*
X0083167Y0111096D01*
X0075337Y0111096D01*
X0073646Y0110396D01*
X0073249Y0109998D02*
X0057099Y0109998D01*
X0057023Y0108399D02*
X0072061Y0108399D01*
X0071652Y0106801D02*
X0056092Y0106801D01*
X0054005Y0105202D02*
X0071809Y0105202D01*
X0072639Y0103604D02*
X0064462Y0103604D01*
X0064456Y0103609D02*
X0060977Y0103609D01*
X0058517Y0101149D01*
X0058517Y0097670D01*
X0060977Y0095209D01*
X0064456Y0095209D01*
X0066917Y0097670D01*
X0066917Y0101149D01*
X0064456Y0103609D01*
X0066060Y0102005D02*
X0075073Y0102005D01*
X0075337Y0101096D02*
X0073646Y0100396D01*
X0072352Y0099102D01*
X0071652Y0097411D01*
X0071652Y0095581D01*
X0072352Y0093890D01*
X0073646Y0092596D01*
X0075337Y0091896D01*
X0083167Y0091896D01*
X0084858Y0092596D01*
X0086152Y0093890D01*
X0086852Y0095581D01*
X0086852Y0097411D01*
X0086152Y0099102D01*
X0084858Y0100396D01*
X0083167Y0101096D01*
X0075337Y0101096D01*
X0073673Y0100407D02*
X0066917Y0100407D01*
X0066917Y0098808D02*
X0072231Y0098808D01*
X0071652Y0097210D02*
X0066457Y0097210D01*
X0064858Y0095611D02*
X0071652Y0095611D01*
X0072302Y0094013D02*
X0054699Y0094013D01*
X0054699Y0095611D02*
X0060575Y0095611D01*
X0058976Y0097210D02*
X0054699Y0097210D01*
X0055417Y0098808D02*
X0058517Y0098808D01*
X0058517Y0100407D02*
X0056168Y0100407D01*
X0056168Y0102005D02*
X0059373Y0102005D01*
X0060971Y0103604D02*
X0055603Y0103604D01*
X0049932Y0105202D02*
X0049311Y0105202D01*
X0048520Y0098808D02*
X0048399Y0098808D01*
X0048399Y0097210D02*
X0050118Y0097210D01*
X0050499Y0095611D02*
X0048399Y0095611D01*
X0048399Y0094013D02*
X0050499Y0094013D01*
X0050499Y0092414D02*
X0048399Y0092414D01*
X0048399Y0090816D02*
X0050499Y0090816D01*
X0050499Y0089217D02*
X0047187Y0089217D01*
X0045589Y0087619D02*
X0050499Y0087619D01*
X0050499Y0086020D02*
X0043990Y0086020D01*
X0042392Y0084422D02*
X0051107Y0084422D01*
X0055448Y0086020D02*
X0064365Y0086020D01*
X0065146Y0086802D02*
X0062569Y0084224D01*
X0062568Y0082402D01*
X0066968Y0082402D01*
X0066968Y0082402D01*
X0066968Y0086802D01*
X0065146Y0086802D01*
X0066969Y0086802D02*
X0068791Y0086802D01*
X0071368Y0084224D01*
X0071368Y0082402D01*
X0066969Y0082402D01*
X0066969Y0082402D01*
X0066968Y0082402D01*
X0062569Y0082402D01*
X0062569Y0080579D01*
X0065146Y0078002D01*
X0066968Y0078002D01*
X0066968Y0082401D01*
X0066969Y0082401D01*
X0066969Y0082402D02*
X0071368Y0082402D01*
X0071368Y0080579D01*
X0068791Y0078002D01*
X0066969Y0078002D01*
X0066969Y0082401D01*
X0066969Y0082402D02*
X0066969Y0086802D01*
X0066968Y0086020D02*
X0066969Y0086020D01*
X0066968Y0084422D02*
X0066969Y0084422D01*
X0066968Y0082823D02*
X0066969Y0082823D01*
X0066968Y0081225D02*
X0066969Y0081225D01*
X0066968Y0079626D02*
X0066969Y0079626D01*
X0066968Y0078028D02*
X0066969Y0078028D01*
X0068817Y0078028D02*
X0071907Y0078028D01*
X0071652Y0076429D02*
X0065039Y0076429D01*
X0065120Y0078028D02*
X0063441Y0078028D01*
X0063521Y0079626D02*
X0061842Y0079626D01*
X0062569Y0081225D02*
X0060243Y0081225D01*
X0058645Y0082823D02*
X0062569Y0082823D01*
X0062766Y0084422D02*
X0057046Y0084422D01*
X0054699Y0087619D02*
X0071738Y0087619D01*
X0071652Y0087411D02*
X0071652Y0085581D01*
X0072352Y0083890D01*
X0073646Y0082596D01*
X0075337Y0081896D01*
X0083167Y0081896D01*
X0084858Y0082596D01*
X0086152Y0083890D01*
X0086852Y0085581D01*
X0086852Y0087411D01*
X0086152Y0089102D01*
X0084858Y0090396D01*
X0083167Y0091096D01*
X0075337Y0091096D01*
X0073646Y0090396D01*
X0072352Y0089102D01*
X0071652Y0087411D01*
X0071652Y0086020D02*
X0069572Y0086020D01*
X0071171Y0084422D02*
X0072132Y0084422D01*
X0071368Y0082823D02*
X0073419Y0082823D01*
X0071368Y0081225D02*
X0090612Y0081225D01*
X0088311Y0082823D02*
X0085085Y0082823D01*
X0086372Y0084422D02*
X0087305Y0084422D01*
X0086947Y0086020D02*
X0086852Y0086020D01*
X0086766Y0087619D02*
X0087074Y0087619D01*
X0087753Y0089217D02*
X0086036Y0089217D01*
X0083843Y0090816D02*
X0089624Y0090816D01*
X0088720Y0092414D02*
X0084418Y0092414D01*
X0086202Y0094013D02*
X0087474Y0094013D01*
X0086947Y0095611D02*
X0086852Y0095611D01*
X0086852Y0097210D02*
X0086947Y0097210D01*
X0087566Y0098808D02*
X0086273Y0098808D01*
X0084831Y0100407D02*
X0088942Y0100407D01*
X0089129Y0102005D02*
X0083431Y0102005D01*
X0085865Y0103604D02*
X0087643Y0103604D01*
X0086981Y0105202D02*
X0086695Y0105202D01*
X0086852Y0106801D02*
X0086947Y0106801D01*
X0087397Y0108399D02*
X0086443Y0108399D01*
X0085255Y0109998D02*
X0088531Y0109998D01*
X0086932Y0111596D02*
X0056293Y0111596D01*
X0051399Y0113195D02*
X0044799Y0113195D01*
X0044799Y0114794D02*
X0051399Y0114794D01*
X0051399Y0116392D02*
X0044799Y0116392D01*
X0044799Y0117991D02*
X0051399Y0117991D01*
X0051399Y0119589D02*
X0044799Y0119589D01*
X0044799Y0121188D02*
X0051399Y0121188D01*
X0051399Y0122786D02*
X0044799Y0122786D01*
X0044799Y0124385D02*
X0051399Y0124385D01*
X0051399Y0125983D02*
X0044799Y0125983D01*
X0044799Y0127582D02*
X0051399Y0127582D01*
X0051399Y0129180D02*
X0044799Y0129180D01*
X0044799Y0130779D02*
X0051399Y0130779D01*
X0051399Y0132377D02*
X0044799Y0132377D01*
X0044799Y0133976D02*
X0051399Y0133976D01*
X0051399Y0135574D02*
X0044799Y0135574D01*
X0044799Y0137173D02*
X0051399Y0137173D01*
X0051399Y0138771D02*
X0044799Y0138771D01*
X0044799Y0140370D02*
X0051399Y0140370D01*
X0052598Y0141968D02*
X0044799Y0141968D01*
X0040599Y0135622D02*
X0040599Y0127214D01*
X0040574Y0127257D01*
X0040036Y0127959D01*
X0039410Y0128585D01*
X0038708Y0129124D01*
X0037942Y0129566D01*
X0037124Y0129905D01*
X0036270Y0130134D01*
X0035392Y0130249D01*
X0030800Y0130249D01*
X0030800Y0124299D01*
X0029200Y0124299D01*
X0020499Y0124299D01*
X0020499Y0122699D01*
X0029200Y0122699D01*
X0029200Y0124299D01*
X0029200Y0130249D01*
X0024608Y0130249D01*
X0023730Y0130134D01*
X0022876Y0129905D01*
X0022058Y0129566D01*
X0021292Y0129124D01*
X0020590Y0128585D01*
X0020499Y0128494D01*
X0020499Y0134387D01*
X0021340Y0133546D01*
X0023747Y0132549D01*
X0036253Y0132549D01*
X0038660Y0133546D01*
X0040503Y0135389D01*
X0040599Y0135622D01*
X0040599Y0135574D02*
X0040580Y0135574D01*
X0040599Y0133976D02*
X0039090Y0133976D01*
X0040599Y0132377D02*
X0020499Y0132377D01*
X0020499Y0130779D02*
X0040599Y0130779D01*
X0040599Y0129180D02*
X0038610Y0129180D01*
X0040326Y0127582D02*
X0040599Y0127582D01*
X0030800Y0127582D02*
X0029200Y0127582D01*
X0029200Y0129180D02*
X0030800Y0129180D01*
X0030800Y0125983D02*
X0029200Y0125983D01*
X0029200Y0124385D02*
X0030800Y0124385D01*
X0029200Y0122786D02*
X0020499Y0122786D01*
X0020499Y0129180D02*
X0021390Y0129180D01*
X0020910Y0133976D02*
X0020499Y0133976D01*
X0029200Y0121188D02*
X0030800Y0121188D01*
X0030800Y0119589D02*
X0029200Y0119589D01*
X0029200Y0117991D02*
X0030800Y0117991D01*
X0038859Y0117991D02*
X0040599Y0117991D01*
X0040599Y0119589D02*
X0040458Y0119589D01*
X0050111Y0111596D02*
X0050705Y0111596D01*
X0044199Y0097210D02*
X0043819Y0097210D01*
X0044199Y0095611D02*
X0039181Y0095611D01*
X0037583Y0094013D02*
X0044199Y0094013D01*
X0044199Y0092414D02*
X0035984Y0092414D01*
X0034386Y0090816D02*
X0042846Y0090816D01*
X0041247Y0089217D02*
X0032787Y0089217D01*
X0031189Y0087619D02*
X0039649Y0087619D01*
X0038050Y0086020D02*
X0029590Y0086020D01*
X0030888Y0084422D02*
X0036452Y0084422D01*
X0034853Y0082823D02*
X0031168Y0082823D01*
X0031168Y0081225D02*
X0033255Y0081225D01*
X0031656Y0079626D02*
X0030133Y0079626D01*
X0029826Y0065240D02*
X0054989Y0065240D01*
X0056587Y0063641D02*
X0031344Y0063641D01*
X0031344Y0062043D02*
X0058186Y0062043D01*
X0059784Y0060444D02*
X0031344Y0060444D01*
X0030113Y0058846D02*
X0061383Y0058846D01*
X0062981Y0057247D02*
X0017744Y0057247D01*
X0011735Y0057247D02*
X0011335Y0057247D01*
X0011335Y0058846D02*
X0011735Y0058846D01*
X0011735Y0060444D02*
X0011335Y0060444D01*
X0011335Y0062043D02*
X0011735Y0062043D01*
X0011735Y0063641D02*
X0011335Y0063641D01*
X0011335Y0065240D02*
X0011735Y0065240D01*
X0006623Y0065240D02*
X0006099Y0065240D01*
X0006099Y0066838D02*
X0006144Y0066838D01*
X0006099Y0074831D02*
X0006182Y0074831D01*
X0006099Y0076429D02*
X0007132Y0076429D01*
X0007079Y0105202D02*
X0006099Y0105202D01*
X0006099Y0106801D02*
X0016299Y0106801D01*
X0016299Y0108399D02*
X0006099Y0108399D01*
X0006099Y0109998D02*
X0016299Y0109998D01*
X0016299Y0111596D02*
X0006099Y0111596D01*
X0006099Y0113195D02*
X0016299Y0113195D01*
X0016299Y0114794D02*
X0006099Y0114794D01*
X0006099Y0116392D02*
X0016299Y0116392D01*
X0016299Y0105202D02*
X0015992Y0105202D01*
X0054699Y0092414D02*
X0074086Y0092414D01*
X0074660Y0090816D02*
X0054699Y0090816D01*
X0054699Y0089217D02*
X0072468Y0089217D01*
X0072877Y0079626D02*
X0070416Y0079626D01*
X0070243Y0074831D02*
X0071963Y0074831D01*
X0072077Y0068437D02*
X0069180Y0068437D01*
X0064345Y0065240D02*
X0060929Y0065240D01*
X0062527Y0063641D02*
X0062746Y0063641D01*
X0083521Y0062043D02*
X0089091Y0062043D01*
X0088980Y0060444D02*
X0084741Y0060444D01*
X0086258Y0058846D02*
X0087582Y0058846D01*
X0086947Y0057247D02*
X0086852Y0057247D01*
X0086852Y0055649D02*
X0086947Y0055649D01*
X0087459Y0054050D02*
X0086218Y0054050D01*
X0084508Y0052452D02*
X0088682Y0052452D01*
X0095412Y0052452D02*
X0110077Y0052452D01*
X0108478Y0054050D02*
X0096636Y0054050D01*
X0097147Y0055649D02*
X0106880Y0055649D01*
X0105281Y0057247D02*
X0097147Y0057247D01*
X0096513Y0058846D02*
X0103683Y0058846D01*
X0102084Y0060444D02*
X0095115Y0060444D01*
X0095003Y0062043D02*
X0100486Y0062043D01*
X0098887Y0063641D02*
X0096466Y0063641D01*
X0097129Y0065240D02*
X0097289Y0065240D01*
X0087628Y0063641D02*
X0085902Y0063641D01*
X0086711Y0065240D02*
X0086966Y0065240D01*
X0086947Y0066838D02*
X0086852Y0066838D01*
X0086427Y0068437D02*
X0087412Y0068437D01*
X0087135Y0074831D02*
X0086541Y0074831D01*
X0086852Y0076429D02*
X0086947Y0076429D01*
X0087243Y0078028D02*
X0086597Y0078028D01*
X0085627Y0079626D02*
X0088162Y0079626D01*
X0086881Y0121188D02*
X0090522Y0121188D01*
X0088348Y0122786D02*
X0085282Y0122786D01*
X0086356Y0124385D02*
X0087320Y0124385D01*
X0086947Y0125983D02*
X0086852Y0125983D01*
X0086781Y0127582D02*
X0087058Y0127582D01*
X0087720Y0129180D02*
X0086073Y0129180D01*
X0083933Y0130779D02*
X0089535Y0130779D01*
X0088757Y0132377D02*
X0084328Y0132377D01*
X0084858Y0132596D02*
X0086152Y0133890D01*
X0086852Y0135581D01*
X0086852Y0137411D01*
X0086152Y0139102D01*
X0084858Y0140396D01*
X0083167Y0141096D01*
X0075337Y0141096D01*
X0073646Y0140396D01*
X0072352Y0139102D01*
X0071652Y0137411D01*
X0071652Y0135581D01*
X0072352Y0133890D01*
X0073646Y0132596D01*
X0075337Y0131896D01*
X0083167Y0131896D01*
X0084858Y0132596D01*
X0086187Y0133976D02*
X0087489Y0133976D01*
X0086947Y0135574D02*
X0086849Y0135574D01*
X0086852Y0137173D02*
X0086947Y0137173D01*
X0087551Y0138771D02*
X0086289Y0138771D01*
X0084884Y0140370D02*
X0088905Y0140370D01*
X0089176Y0141968D02*
X0083341Y0141968D01*
X0085828Y0143567D02*
X0087659Y0143567D01*
X0086997Y0145165D02*
X0086680Y0145165D01*
X0086852Y0146764D02*
X0086947Y0146764D01*
X0087382Y0148362D02*
X0086458Y0148362D01*
X0085293Y0149961D02*
X0088496Y0149961D01*
X0075163Y0141968D02*
X0066097Y0141968D01*
X0066917Y0140370D02*
X0073620Y0140370D01*
X0072215Y0138771D02*
X0066917Y0138771D01*
X0066419Y0137173D02*
X0071652Y0137173D01*
X0071655Y0135574D02*
X0065499Y0135574D01*
X0065499Y0133976D02*
X0072317Y0133976D01*
X0074176Y0132377D02*
X0066691Y0132377D01*
X0068290Y0130779D02*
X0074571Y0130779D01*
X0072431Y0129180D02*
X0069888Y0129180D01*
X0071487Y0127582D02*
X0071723Y0127582D01*
X0072676Y0143567D02*
X0064499Y0143567D01*
X0069728Y0153158D02*
X0073085Y0153158D01*
X0071994Y0154756D02*
X0071326Y0154756D01*
X0068583Y0157953D02*
X0066923Y0157953D01*
X0011368Y0215500D02*
X0006099Y0215500D01*
X0006099Y0217098D02*
X0007582Y0217098D01*
X0010427Y0215649D02*
X0010427Y0215649D01*
X0026973Y0238424D02*
X0026973Y0238424D01*
X0006203Y0026875D02*
X0006099Y0026875D01*
D27*
X0076899Y0047199D03*
X0137199Y0091299D03*
X0053499Y0109299D03*
M02*
