%
M48
M72
T01C0.02400
T02C0.03150
T03C0.03200
T04C0.03937
T05C0.04000
T06C0.06600
T07C0.08661
T08C0.11024
%
T01
X76899Y47199
X137199Y91299
X53499Y109299
T02
X305482Y72972
X315482Y72972
X315482Y62972
X305482Y62972
X305482Y52972
X315482Y52972
X315482Y42972
X305482Y42972
T03
X292165Y27638
X282165Y27638
X282520Y76614
X292520Y76614
X275787Y115472
X315787Y115472
X201299Y166339
X189882Y166339
X178119Y166099
X178119Y206099
X189882Y206339
X201299Y206339
X62874Y186063
X62874Y156063
X62717Y139409
X46969Y108799
X51969Y101299
X62717Y99409
X41969Y101299
X26969Y82402
X26969Y72165
X26944Y61899
X26773Y51654
X66773Y51654
X66944Y61899
X66969Y72165
X66969Y82402
T04
X198913Y67533
X218599Y67533
X218599Y10447
X208756Y10447
X198913Y10447
T05
X165079Y56496
X152047Y56299
X152047Y66299
X165079Y66496
X165079Y76496
X152047Y76299
X152047Y86299
X165079Y86496
X165079Y96496
X152047Y96299
X152047Y106299
X165079Y106496
X165079Y116496
X152047Y116299
X152047Y126299
X165079Y126496
X165079Y136496
X152047Y136299
X152047Y146299
X165079Y146496
X165079Y156496
X152047Y156299
X152047Y166299
X165079Y166496
X165079Y176496
X152047Y176299
X152047Y186299
X165079Y186496
X165079Y196496
X152047Y196299
X131947Y195899
X121947Y195899
X111947Y195899
X111947Y205899
X121947Y205899
X131947Y205899
X92047Y196299
X92047Y186299
X92047Y176299
X79252Y176496
X79252Y166496
X92047Y166299
X92047Y156299
X92047Y146299
X92047Y136299
X92047Y126299
X92047Y116299
X92047Y106299
X92047Y96299
X92047Y86299
X92047Y76299
X92047Y66299
X92047Y56299
X79252Y56496
X79252Y66496
X79252Y76496
X79252Y86496
X79252Y96496
X79252Y106496
X79252Y116496
X79252Y126496
X79252Y136496
X79252Y146496
X79252Y156496
X79252Y186496
X79252Y196496
X219803Y197953
X219803Y187953
X219803Y177953
X219803Y167953
X219803Y157953
X219803Y147953
X239724Y107205
X259724Y107205
X312835Y17441
X322835Y17441
X11535Y60827
X11535Y70827
X11535Y80827
X11535Y90827
X11535Y100827
T06
X30000Y123499
X30000Y139099
X30000Y169812
X30000Y185412
X30000Y201012
X337520Y115792
X337520Y100192
T07
X232772Y39974
X184740Y39974
T08
X15000Y15000
X353150Y16575
X352480Y228937
X15000Y229724
M30
